<svg width="75" height="76" viewBox="0 0 75 76" fill="none" xmlns="http://www.w3.org/2000/svg">
<path d="M36.2339 2.58176C7.42535 6.87652 2 16.0921 2 30.7661C2.71308 42.2633 10.7054 47.9452 38.3731 46.8715C72.9576 45.5294 72.601 30.7661 72.9576 30.7661C73.3141 30.7661 72.2446 -2.78667 36.2339 2.58176Z" fill="white" stroke="#2BABEE" stroke-width="3" stroke-linecap="round"/>
<path d="M26.8808 62.826C26.8808 64.1233 26.3815 65.3927 25.3828 66.634C24.3842 67.8753 23.1755 68.706 21.7568 69.126C21.3462 69.126 20.9262 69.1073 20.4968 69.07C20.0675 69.042 19.6942 69 19.3768 68.944C19.2275 67.628 19.1155 66.382 19.0408 65.206C18.9662 64.0207 18.9288 62.9147 18.9288 61.888C18.9288 61.5427 18.9288 61.1927 18.9288 60.838C18.9382 60.4833 18.9522 60.1287 18.9708 59.774C19.5962 59.4847 20.1748 59.2793 20.7068 59.158C21.2388 59.0273 21.7942 58.962 22.3728 58.962C23.8382 58.962 24.9535 59.2933 25.7188 59.956C26.4935 60.6187 26.8808 61.5753 26.8808 62.826ZM21.9108 60.628C21.8362 61.5147 21.7755 62.434 21.7288 63.386C21.6915 64.3287 21.6728 65.3087 21.6728 66.326C21.6728 66.5313 21.6728 66.69 21.6728 66.802C21.6728 66.9047 21.6775 66.998 21.6868 67.082C22.4335 66.69 23.0075 66.13 23.4088 65.402C23.8102 64.6647 24.0108 63.8153 24.0108 62.854C24.0108 62.1727 23.8382 61.6313 23.4928 61.23C23.1568 60.8193 22.7042 60.614 22.1348 60.614C22.0695 60.614 22.0228 60.614 21.9948 60.614C21.9668 60.614 21.9388 60.6187 21.9108 60.628ZM30.7389 69.14C29.7496 69.14 28.9983 68.8087 28.4849 68.146C27.9716 67.4833 27.7149 66.5313 27.7149 65.29C27.7149 64.6087 27.7849 63.8993 27.9249 63.162C28.0743 62.4153 28.2189 61.9067 28.3589 61.636C28.5736 61.58 28.7883 61.538 29.0029 61.51C29.2269 61.482 29.4323 61.468 29.6189 61.468C29.9083 61.468 30.1556 61.4867 30.3609 61.524C30.5756 61.5613 30.7389 61.6127 30.8509 61.678C30.7669 62.182 30.7016 62.6953 30.6549 63.218C30.6083 63.7407 30.5849 64.2447 30.5849 64.73C30.5849 65.5887 30.6363 66.2607 30.7389 66.746C30.8416 67.222 30.9863 67.46 31.1729 67.46C31.3503 67.46 31.4903 67.1847 31.5929 66.634C31.6956 66.0833 31.7469 65.3647 31.7469 64.478C31.7469 64.058 31.7283 63.624 31.6909 63.176C31.6536 62.7187 31.6163 62.4013 31.5789 62.224C31.9336 62.0747 32.3723 61.958 32.8949 61.874C33.4176 61.7807 33.9263 61.734 34.4209 61.734C34.4676 61.9487 34.5003 62.224 34.5189 62.56C34.5469 62.896 34.5609 63.26 34.5609 63.652C34.5609 65.444 34.2389 66.8067 33.5949 67.74C32.9509 68.6733 31.9989 69.14 30.7389 69.14ZM42.3145 69.308C42.0438 69.3827 41.6985 69.448 41.2785 69.504C40.8678 69.56 40.4945 69.588 40.1585 69.588C40.1212 69.4013 40.0792 69.182 40.0325 68.93C39.9858 68.678 39.9392 68.3747 39.8925 68.02C39.6872 68.496 39.4258 68.846 39.1085 69.07C38.8005 69.3033 38.4225 69.42 37.9745 69.42C37.1532 69.42 36.5185 69.1167 36.0705 68.51C35.6225 67.9033 35.3985 67.0587 35.3985 65.976C35.3985 64.604 35.7392 63.512 36.4205 62.7C37.1112 61.8787 38.0398 61.468 39.2065 61.468C39.2532 61.468 39.2905 61.468 39.3185 61.468C39.3558 61.468 39.3885 61.4727 39.4165 61.482C39.4072 61.0713 39.3978 60.6747 39.3885 60.292C39.3792 59.9 39.3745 59.5313 39.3745 59.186C39.5892 59.074 39.8925 58.9853 40.2845 58.92C40.6765 58.8547 41.0778 58.822 41.4885 58.822C41.6752 58.822 41.8572 58.8313 42.0345 58.85C42.2118 58.8687 42.3892 58.8967 42.5665 58.934C42.4732 59.5873 42.3985 60.642 42.3425 62.098C42.2958 63.554 42.2725 65.3927 42.2725 67.614C42.2725 67.8753 42.2725 68.1367 42.2725 68.398C42.2818 68.65 42.2958 68.9533 42.3145 69.308ZM38.1285 65.64C38.1285 66.2373 38.1892 66.6947 38.3105 67.012C38.4318 67.32 38.6092 67.474 38.8425 67.474C39.0105 67.474 39.1645 67.334 39.3045 67.054C39.4538 66.774 39.5705 66.3773 39.6545 65.864C39.6078 65.22 39.5705 64.6787 39.5425 64.24C39.5145 63.792 39.4912 63.3767 39.4725 62.994H39.3745C38.9918 62.994 38.6885 63.2273 38.4645 63.694C38.2405 64.1513 38.1285 64.8 38.1285 65.64ZM46.4739 64.156C46.5859 64.184 46.6933 64.2073 46.7959 64.226C46.9079 64.2353 47.0013 64.24 47.0759 64.24C47.1506 64.24 47.2346 64.24 47.3279 64.24C47.4306 64.2307 47.5006 64.2213 47.5379 64.212C47.5939 63.988 47.6359 63.778 47.6639 63.582C47.7013 63.386 47.7199 63.2087 47.7199 63.05C47.7199 62.854 47.6919 62.7093 47.6359 62.616C47.5893 62.5227 47.5146 62.476 47.4119 62.476C47.2253 62.476 47.0479 62.63 46.8799 62.938C46.7119 63.2367 46.5766 63.6427 46.4739 64.156ZM48.1679 66.312C48.5226 66.3773 48.8819 66.508 49.2459 66.704C49.6193 66.8907 49.9226 67.1053 50.1559 67.348C50.0813 67.5907 49.9086 67.852 49.6379 68.132C49.3673 68.412 49.0453 68.6453 48.6719 68.832C48.3733 68.9813 48.0466 69.0933 47.6919 69.168C47.3466 69.252 46.9826 69.294 46.5999 69.294C45.6293 69.294 44.8686 69.014 44.3179 68.454C43.7766 67.8847 43.5059 67.1147 43.5059 66.144C43.5059 65.5373 43.5993 64.9447 43.7859 64.366C43.9819 63.778 44.2573 63.246 44.6119 62.77C45.0133 62.238 45.4753 61.8227 45.9979 61.524C46.5206 61.2253 47.0573 61.076 47.6079 61.076C48.3919 61.076 49.0173 61.2767 49.4839 61.678C49.9506 62.07 50.1839 62.5973 50.1839 63.26C50.1839 63.5587 50.1513 63.89 50.0859 64.254C50.0299 64.6087 49.9553 64.9167 49.8619 65.178C49.5726 65.318 49.2133 65.4253 48.7839 65.5C48.3639 65.5653 47.8599 65.598 47.2719 65.598C47.1039 65.598 46.9359 65.5887 46.7679 65.57C46.6093 65.5513 46.4506 65.528 46.2919 65.5C46.2826 65.556 46.2779 65.6213 46.2779 65.696C46.2779 65.7613 46.2779 65.864 46.2779 66.004C46.2779 66.564 46.3479 66.9933 46.4879 67.292C46.6373 67.5907 46.8473 67.74 47.1179 67.74C47.2953 67.74 47.4866 67.5953 47.6919 67.306C47.8973 67.0167 48.0559 66.6853 48.1679 66.312ZM55.0128 64.296C55.8528 64.8 56.4128 65.2527 56.6928 65.654C56.9822 66.0553 57.1268 66.5033 57.1268 66.998C57.1268 67.754 56.8002 68.384 56.1468 68.888C55.4935 69.3827 54.6955 69.63 53.7528 69.63C52.9502 69.63 52.2782 69.3873 51.7368 68.902C51.1955 68.4167 50.9248 67.8427 50.9248 67.18C51.1395 67.0773 51.4242 66.9933 51.7788 66.928C52.1335 66.8533 52.4508 66.816 52.7308 66.816C52.7308 67.2267 52.8148 67.558 52.9828 67.81C53.1602 68.062 53.4075 68.188 53.7248 68.188C53.9582 68.188 54.1355 68.1367 54.2568 68.034C54.3782 67.9313 54.4388 67.782 54.4388 67.586C54.4388 67.39 54.3595 67.1987 54.2008 67.012C54.0515 66.8253 53.7108 66.5687 53.1788 66.242C52.3855 65.7473 51.8582 65.3133 51.5968 64.94C51.3355 64.5573 51.2048 64.128 51.2048 63.652C51.2048 62.9053 51.4895 62.2893 52.0588 61.804C52.6375 61.3093 53.3748 61.062 54.2708 61.062C55.1575 61.062 55.8762 61.258 56.4268 61.65C56.9868 62.042 57.3415 62.5927 57.4908 63.302C57.2202 63.4793 56.9122 63.6193 56.5668 63.722C56.2215 63.8153 55.7688 63.8807 55.2088 63.918C55.1435 63.4793 55.0408 63.162 54.9008 62.966C54.7702 62.7607 54.5882 62.658 54.3548 62.658C54.1962 62.658 54.0702 62.7047 53.9768 62.798C53.8928 62.8913 53.8508 63.0173 53.8508 63.176C53.8508 63.3253 53.9208 63.4793 54.0608 63.638C54.2008 63.7873 54.5182 64.0067 55.0128 64.296Z" fill="#2BABEE"/>
<path d="M48.4992 30.04C48.5213 29.4881 48.0918 29.0229 47.54 29.0008L38.5472 28.6411C37.9953 28.619 37.5301 29.0485 37.508 29.6003C37.4859 30.1522 37.9154 30.6174 38.4672 30.6395L46.4608 30.9592L46.1411 38.9528C46.119 39.5047 46.5485 39.9699 47.1003 39.992C47.6522 40.0141 48.1174 39.5846 48.1395 39.0328L48.4992 30.04ZM21.7929 28.2071C23.0796 29.4938 25.2764 31.4349 27.7219 33.1122C30.1301 34.7639 32.9366 36.2711 35.4095 36.4959L35.5905 34.5041C33.6634 34.3289 31.2199 33.0861 28.8531 31.4628C26.5236 29.8651 24.4204 28.0062 23.2071 26.7929L21.7929 28.2071ZM35.4095 36.4959C37.9045 36.7227 40.576 35.7359 42.8121 34.5302C45.0739 33.3106 47.0413 31.7843 48.1783 30.7348L46.8217 29.2652C45.792 30.2157 43.9594 31.6394 41.8629 32.7698C39.7407 33.9141 37.4955 34.6773 35.5905 34.5041L35.4095 36.4959Z" fill="#2BABEE"/>
<path d="M25.0019 21.4477C24.9681 21.9989 25.3875 22.4732 25.9388 22.507L34.9219 23.058C35.4731 23.0918 35.9474 22.6724 35.9812 22.1211C36.0151 21.5699 35.5956 21.0956 35.0443 21.0618L27.0593 20.572L27.5491 12.587C27.5829 12.0357 27.1635 11.5615 26.6122 11.5277C26.061 11.4938 25.5867 11.9133 25.5529 12.4646L25.0019 21.4477ZM52.6918 23.2779C51.3543 21.9964 49.071 20.0635 46.5302 18.3938C44.0243 16.7471 41.1175 15.2544 38.5668 15.0322L38.3932 17.0247C40.4185 17.2011 42.9717 18.4486 45.4318 20.0652C47.857 21.6589 50.0457 23.5125 51.3082 24.7221L52.6918 23.2779ZM38.5668 15.0322C35.9963 14.8083 33.2341 15.7828 30.91 16.9834C28.5622 18.1964 26.5187 19.7152 25.3375 20.7598L26.6625 22.258C27.7346 21.3097 29.6432 19.889 31.828 18.7603C34.0366 17.6193 36.3877 16.85 38.3932 17.0247L38.5668 15.0322Z" fill="#2BABEE"/>
</svg>
