<svg width="64" height="154" viewBox="0 0 64 154" fill="none" xmlns="http://www.w3.org/2000/svg">
<path d="M6.22227 64.9786L4.93033 64.5701L6.22227 64.9786ZM63.7056 4.46643C63.8335 3.72909 63.3394 3.02773 62.602 2.89991L50.5863 0.816914C49.849 0.689091 49.1476 1.1832 49.0198 1.92055C48.892 2.65789 49.3861 3.35924 50.1235 3.48706L60.8041 5.33862L58.9525 16.0192C58.8247 16.7566 59.3188 17.4579 60.0561 17.5857C60.7935 17.7136 61.4948 17.2194 61.6227 16.4821L63.7056 4.46643ZM47.5794 151.257C46.4025 151.158 45.1782 150.963 43.9175 150.673L43.3096 153.314C44.6851 153.63 46.0365 153.846 47.3516 153.957L47.5794 151.257ZM36.8141 148.176C34.6317 147.157 32.4181 145.896 30.2223 144.401L28.6974 146.641C31.0065 148.213 33.346 149.547 35.667 150.632L36.8141 148.176ZM24.2357 139.681C22.3976 138.019 20.6091 136.189 18.9023 134.198L16.8449 135.962C18.6264 138.04 20.4949 139.952 22.4182 141.691L24.2357 139.681ZM14.289 128.097C12.9054 126.016 11.6143 123.807 10.4394 121.476L8.01943 122.696C9.24383 125.125 10.5896 127.428 12.0322 129.598L14.289 128.097ZM7.40355 114.444C6.55067 112.096 5.81422 109.649 5.21244 107.107L2.57533 107.731C3.20152 110.377 3.96815 112.924 4.85647 115.369L7.40355 114.444ZM3.87225 99.5604C3.57395 97.0834 3.40151 94.5294 3.36889 91.9011L0.659119 91.9347C0.692948 94.6599 0.871782 97.3109 1.18171 99.8844L3.87225 99.5604ZM3.665 84.227C3.88456 81.7477 4.22705 79.2101 4.70267 76.6163L2.03714 76.1275C1.54657 78.8028 1.19266 81.4237 0.965587 83.988L3.665 84.227ZM6.41952 69.1022C6.75455 67.8751 7.11913 66.6366 7.51422 65.3871L4.93033 64.5701C4.52454 65.8535 4.14981 67.1263 3.80523 68.3884L6.41952 69.1022ZM7.51422 65.3871C7.90608 64.1478 8.38351 62.8891 8.93919 61.6149L6.45517 60.5316C5.86569 61.8833 5.35375 63.231 4.93033 64.5701L7.51422 65.3871ZM12.7864 54.3986C14.1893 52.1441 15.7735 49.8774 17.4949 47.6193L15.3398 45.9763C13.5751 48.2911 11.9406 50.6285 10.4855 52.9669L12.7864 54.3986ZM22.7465 41.2125C24.5579 39.1407 26.4484 37.0981 28.3807 35.102L26.4336 33.2171C24.4734 35.242 22.5514 37.3184 20.7063 39.4288L22.7465 41.2125ZM34.2962 29.2417C36.3515 27.2836 38.4095 25.3963 40.4277 23.5995L38.6257 21.5755C36.5871 23.3904 34.5065 25.2983 32.4269 27.2796L34.2962 29.2417ZM46.7449 18.1432C49.0573 16.2038 51.2392 14.4338 53.2115 12.8695L51.5276 10.7463C49.5379 12.3242 47.3367 14.1099 45.0035 16.0669L46.7449 18.1432ZM59.8147 7.78218C60.8702 6.99399 61.7064 6.38257 62.2778 5.96894C62.5634 5.76213 62.7828 5.60479 62.9303 5.49953C63.004 5.4469 63.0597 5.4073 63.0967 5.38105C63.1152 5.36792 63.1291 5.35813 63.1381 5.35173C63.1427 5.34852 63.146 5.34616 63.1482 5.34465C63.1492 5.3439 63.15 5.34336 63.1505 5.34303C63.1507 5.34286 63.1509 5.34275 63.1509 5.3427C63.151 5.34267 63.151 5.34265 63.151 5.34265C63.151 5.34265 63.151 5.34266 63.151 5.34266C63.151 5.34267 63.151 5.34268 62.3706 4.23499C61.5902 3.12729 61.5902 3.12731 61.5901 3.12734C61.5901 3.12735 61.5901 3.12738 61.59 3.1274C61.59 3.12745 61.5899 3.12752 61.5897 3.1276C61.5895 3.12775 61.5892 3.12796 61.5889 3.12822C61.5881 3.12875 61.5871 3.12949 61.5857 3.13044C61.583 3.13235 61.5791 3.1351 61.574 3.13871C61.5638 3.14591 61.5488 3.15651 61.5292 3.17045C61.4899 3.19832 61.4318 3.23958 61.3557 3.2939C61.2036 3.40253 60.9793 3.56339 60.6886 3.77385C60.1072 4.19475 59.2601 4.8141 58.1932 5.61086L59.8147 7.78218Z" fill="black"/>
</svg>
