<svg width="315" height="265" viewBox="0 0 315 265" fill="none" xmlns="http://www.w3.org/2000/svg">
<path d="M148.473 139.51L150.951 144.432L152.252 142.234L153.799 139.721L159.477 139.826C158.281 141.443 157.297 142.861 156.523 144.08C155.762 145.287 155.117 146.447 154.59 147.561L159.986 157.07H151.918L150.74 154.521L149.615 152.395L146.891 156.754L146.205 158.16L140.475 157.246L142.672 153.977L146.416 148.105L141.16 139.51H148.473ZM162.57 156.824C162.594 153.402 162.717 150.936 162.939 149.424C163.174 147.912 163.555 146.729 164.082 145.873C164.668 144.947 165.652 144.139 167.035 143.447C168.43 142.744 171.014 141.871 174.787 140.828V134.324H169.812L169.707 139.896L162.869 139.791C162.834 139.24 162.805 138.76 162.781 138.35C162.77 137.928 162.764 137.582 162.764 137.312C162.764 136.094 162.887 135.197 163.133 134.623C163.379 134.037 163.83 133.387 164.486 132.672C165.518 131.57 166.684 130.768 167.984 130.264C169.297 129.748 170.867 129.49 172.695 129.49C175.625 129.49 177.893 130.264 179.498 131.811C181.104 133.346 181.906 135.525 181.906 138.35C181.906 140.412 181.402 142.07 180.395 143.324C179.398 144.566 177.658 145.656 175.174 146.594C173.979 147.051 172.754 147.467 171.5 147.842C170.246 148.205 169.584 148.404 169.514 148.439C169.42 148.486 169.35 148.58 169.303 148.721C169.256 148.85 169.232 149.137 169.232 149.582V149.828C169.232 150.062 169.227 150.25 169.215 150.391C169.215 150.531 169.215 150.66 169.215 150.777C169.59 150.789 170.018 150.801 170.498 150.812C170.979 150.812 171.734 150.812 172.766 150.812C174.676 150.812 176.352 150.777 177.793 150.707C179.246 150.625 180.5 150.502 181.555 150.338C181.461 151.135 181.385 151.932 181.326 152.729C181.279 153.514 181.256 154.287 181.256 155.049C181.256 155.295 181.262 155.564 181.273 155.857C181.285 156.139 181.303 156.52 181.326 157C178.49 156.848 176.287 156.742 174.717 156.684C173.158 156.625 171.775 156.596 170.568 156.596C169.408 156.596 168.166 156.619 166.842 156.666C165.518 156.701 164.094 156.754 162.57 156.824Z" fill="#EBEBEB"/>
<path d="M6.22227 175.979L4.93033 175.57L6.22227 175.979ZM63.7056 115.466C63.8335 114.729 63.3394 114.028 62.602 113.9L50.5863 111.817C49.849 111.689 49.1476 112.183 49.0198 112.921C48.892 113.658 49.3861 114.359 50.1235 114.487L60.8041 116.339L58.9525 127.019C58.8247 127.757 59.3188 128.458 60.0561 128.586C60.7935 128.714 61.4948 128.219 61.6227 127.482L63.7056 115.466ZM47.5794 262.257C46.4025 262.158 45.1782 261.963 43.9175 261.673L43.3096 264.314C44.6851 264.63 46.0365 264.846 47.3516 264.957L47.5794 262.257ZM36.8141 259.176C34.6317 258.157 32.4181 256.896 30.2223 255.401L28.6974 257.641C31.0065 259.213 33.346 260.547 35.667 261.632L36.8141 259.176ZM24.2357 250.681C22.3976 249.019 20.6091 247.189 18.9023 245.198L16.8449 246.962C18.6264 249.04 20.4949 250.952 22.4182 252.691L24.2357 250.681ZM14.289 239.097C12.9054 237.016 11.6143 234.807 10.4394 232.476L8.01943 233.696C9.24383 236.125 10.5896 238.428 12.0322 240.598L14.289 239.097ZM7.40355 225.444C6.55067 223.096 5.81422 220.649 5.21244 218.107L2.57533 218.731C3.20152 221.377 3.96815 223.924 4.85647 226.369L7.40355 225.444ZM3.87225 210.56C3.57395 208.083 3.40151 205.529 3.36889 202.901L0.659119 202.935C0.692948 205.66 0.871782 208.311 1.18171 210.884L3.87225 210.56ZM3.665 195.227C3.88456 192.748 4.22705 190.21 4.70267 187.616L2.03714 187.128C1.54657 189.803 1.19266 192.424 0.965587 194.988L3.665 195.227ZM6.41952 180.102C6.75455 178.875 7.11913 177.637 7.51422 176.387L4.93033 175.57C4.52454 176.853 4.14981 178.126 3.80523 179.388L6.41952 180.102ZM7.51422 176.387C7.90608 175.148 8.38351 173.889 8.93919 172.615L6.45517 171.532C5.86569 172.883 5.35375 174.231 4.93033 175.57L7.51422 176.387ZM12.7864 165.399C14.1893 163.144 15.7735 160.877 17.4949 158.619L15.3398 156.976C13.5751 159.291 11.9406 161.629 10.4855 163.967L12.7864 165.399ZM22.7465 152.212C24.5579 150.141 26.4484 148.098 28.3807 146.102L26.4336 144.217C24.4734 146.242 22.5514 148.318 20.7063 150.429L22.7465 152.212ZM34.2962 140.242C36.3515 138.284 38.4095 136.396 40.4277 134.6L38.6257 132.575C36.5871 134.39 34.5065 136.298 32.4269 138.28L34.2962 140.242ZM46.7449 129.143C49.0573 127.204 51.2392 125.434 53.2115 123.87L51.5276 121.746C49.5379 123.324 47.3367 125.11 45.0035 127.067L46.7449 129.143ZM59.8147 118.782C60.8702 117.994 61.7064 117.383 62.2778 116.969C62.5634 116.762 62.7828 116.605 62.9303 116.5C63.004 116.447 63.0597 116.407 63.0967 116.381C63.1152 116.368 63.1291 116.358 63.1381 116.352C63.1427 116.349 63.146 116.346 63.1482 116.345C63.1492 116.344 63.15 116.343 63.1505 116.343C63.1507 116.343 63.1509 116.343 63.1509 116.343C63.151 116.343 63.151 116.343 63.151 116.343C63.151 116.343 63.151 116.343 63.151 116.343C63.151 116.343 63.151 116.343 62.3706 115.235C61.5902 114.127 61.5902 114.127 61.5901 114.127C61.5901 114.127 61.5901 114.127 61.59 114.127C61.59 114.127 61.5899 114.128 61.5897 114.128C61.5895 114.128 61.5892 114.128 61.5889 114.128C61.5881 114.129 61.5871 114.129 61.5857 114.13C61.583 114.132 61.5791 114.135 61.574 114.139C61.5638 114.146 61.5488 114.157 61.5292 114.17C61.4899 114.198 61.4318 114.24 61.3557 114.294C61.2036 114.403 60.9793 114.563 60.6886 114.774C60.1072 115.195 59.2601 115.814 58.1932 116.611L59.8147 118.782Z" fill="black"/>
<path d="M280.763 8.5273C253.564 6.81153 245.995 16.0828 241.724 32.8294C239.021 46.1145 244.566 54.4349 269.8 59.5646C301.343 65.9768 305.319 49.0461 305.64 49.128C305.961 49.2099 314.762 10.672 280.763 8.5273Z" fill="#F0F0F0"/>
<path d="M263.474 26.583L264.527 31.3667L266.13 29.7598L268.015 27.9345L272.882 29.2724C271.497 30.4028 270.338 31.4079 269.404 32.2878C268.483 33.1601 267.673 34.0178 266.974 34.8609L269.534 44.2372L262.584 42.465L262.13 40.011L261.628 37.9319L258.323 41.0883L257.424 42.149L252.689 40.103L255.3 37.7695L259.814 33.5349L257.175 24.9768L263.474 26.583ZM271.813 44.5928C272.585 41.6506 273.233 39.5529 273.757 38.2997C274.291 37.0491 274.879 36.1133 275.521 35.4923C276.229 34.8236 277.254 34.3433 278.597 34.0515C279.953 33.7522 282.37 33.5678 285.849 33.4982L287.278 27.8963L282.993 26.8036L281.678 31.58L275.812 29.9873C275.903 29.5051 275.983 29.0849 276.053 28.7264C276.135 28.3605 276.206 28.0614 276.265 27.8293C276.533 26.7796 276.836 26.0344 277.174 25.5939C277.515 25.1432 278.046 24.6821 278.768 24.2106C279.899 23.4883 281.079 23.053 282.31 22.9046C283.554 22.7488 284.963 22.8716 286.538 23.2732C289.061 23.9167 290.845 25.0809 291.888 26.7659C292.933 28.4408 293.146 30.4945 292.526 32.9271C292.073 34.7036 291.274 36.0211 290.131 36.8798C289 37.7309 287.262 38.2874 284.916 38.5492C283.786 38.6804 282.64 38.7697 281.478 38.8173C280.318 38.8548 279.704 38.881 279.635 38.8958C279.544 38.9156 279.463 38.9809 279.392 39.0917C279.323 39.1924 279.24 39.4346 279.142 39.8182L279.088 40.0301C279.037 40.232 278.99 40.3922 278.95 40.5108C278.919 40.6319 278.89 40.7429 278.865 40.8438C279.185 40.9363 279.551 41.0403 279.962 41.156C280.376 41.2615 281.027 41.4275 281.915 41.654C283.561 42.0736 285.012 42.4114 286.269 42.6674C287.538 42.9159 288.645 43.0853 289.59 43.1757C289.334 43.8414 289.093 44.5111 288.868 45.1846C288.655 45.8506 288.465 46.5116 288.298 47.1677C288.244 47.3797 288.189 47.6131 288.135 47.868C288.083 48.1128 288.015 48.4447 287.93 48.8637C285.52 48.1096 283.646 47.5349 282.306 47.1395C280.977 46.7467 279.792 46.4177 278.752 46.1526C277.753 45.8978 276.678 45.6452 275.527 45.3947C274.379 45.1341 273.141 44.8668 271.813 44.5928Z" fill="white"/>
</svg>
