<svg width="78" height="68" viewBox="0 0 78 68" fill="none" xmlns="http://www.w3.org/2000/svg">
<path d="M43.763 8.5273C16.5638 6.81153 8.99493 16.0828 4.72446 32.8294C2.02081 46.1145 7.56636 54.4349 32.8005 59.5646C64.3432 65.9768 68.3185 49.0461 68.6397 49.128C68.9608 49.2099 77.7621 10.672 43.763 8.5273Z" fill="#F0F0F0"/>
<path d="M26.4736 26.583L27.5274 31.3667L29.1304 29.7598L31.0149 27.9345L35.8821 29.2724C34.4973 30.4028 33.338 31.4079 32.4041 32.2878C31.4829 33.1601 30.673 34.0178 29.9742 34.8609L32.5336 44.2372L25.5842 42.465L25.1296 40.011L24.6277 37.9319L21.3235 41.0883L20.4241 42.149L15.6891 40.103L18.2998 37.7695L22.8142 33.5349L20.1752 24.9768L26.4736 26.583ZM34.8133 44.5928C35.5851 41.6506 36.2329 39.5529 36.7567 38.2997C37.2906 37.0491 37.8786 36.1133 38.5207 35.4923C39.2288 34.8236 40.2542 34.3433 41.5971 34.0515C42.9527 33.7522 45.3701 33.5678 48.8494 33.4982L50.2779 27.8963L45.9931 26.8036L44.6784 31.58L38.8119 29.9873C38.9026 29.5051 38.9829 29.0849 39.0528 28.7264C39.1354 28.3605 39.2063 28.0614 39.2655 27.8293C39.5331 26.7796 39.836 26.0344 40.1741 25.5939C40.5148 25.1432 41.0462 24.6821 41.7685 24.2106C42.8987 23.4883 44.0793 23.053 45.3104 22.9046C46.5541 22.7488 47.9633 22.8716 49.5379 23.2732C52.0613 23.9167 53.8446 25.0809 54.8876 26.7659C55.9333 28.4408 56.146 30.4945 55.5256 32.9271C55.0726 34.7036 54.2744 36.0211 53.1309 36.8798C52.0001 37.7309 50.2619 38.2874 47.9161 38.5492C46.7862 38.6804 45.64 38.7697 44.4776 38.8173C43.3178 38.8548 42.7037 38.881 42.6355 38.8958C42.5444 38.9156 42.4633 38.9809 42.392 39.0917C42.3233 39.1924 42.2401 39.4346 42.1423 39.8182L42.0882 40.0301C42.0367 40.232 41.9905 40.3922 41.9495 40.5108C41.9186 40.6319 41.8903 40.7429 41.8646 40.8438C42.185 40.9363 42.5508 41.0403 42.9621 41.156C43.376 41.2615 44.027 41.4275 44.9152 41.654C46.5605 42.0736 48.0116 42.4114 49.2686 42.6674C50.5382 42.9159 51.6453 43.0853 52.5897 43.1757C52.3339 43.8414 52.0933 44.5111 51.8678 45.1846C51.655 45.8506 51.4649 46.5116 51.2976 47.1677C51.2436 47.3797 51.1894 47.6131 51.1352 47.868C51.0835 48.1128 51.015 48.4447 50.9296 48.8637C48.5204 48.1096 46.646 47.5349 45.3063 47.1395C43.9767 46.7467 42.7921 46.4177 41.7524 46.1526C40.7532 45.8978 39.6781 45.6452 38.5272 45.3947C37.3789 45.1341 36.141 44.8668 34.8133 44.5928Z" fill="white"/>
</svg>
