<svg width="375" height="385" viewBox="0 0 375 385" fill="none" xmlns="http://www.w3.org/2000/svg">
<path d="M0 13.8122C0 13.8122 198.815 -4.61029 230 1.09684C383 29.0969 375 13.8122 375 13.8122V385.097H0V13.8122Z" fill="#F0F8FF"/>
<path d="M386 13.4675V383.097H-13V13.3802C-12.9907 13.3788 -12.9813 13.3775 -12.9718 13.3761C-12.3922 13.2926 -11.5374 13.1701 -10.4373 13.0146C-8.23699 12.7036 -5.05536 12.2604 -1.13132 11.7318C6.71708 10.6745 17.5339 9.27562 29.4081 7.90932C53.1816 5.17385 81.1114 2.57905 97.9693 3.09641C200.89 6.25494 273.137 8.85932 319.654 10.674C342.912 11.5814 359.737 12.2913 370.747 12.7744C376.252 13.0159 380.304 13.2007 382.978 13.3251C384.316 13.3873 385.309 13.4345 385.968 13.466C385.979 13.4665 385.989 13.467 386 13.4675Z" stroke="#D7E5F3" stroke-width="2"/>
</svg>
