<svg width="375" height="582" viewBox="0 0 375 582" fill="none" xmlns="http://www.w3.org/2000/svg">
<path d="M1 14.2152C1 14.2152 199.815 -4.20722 231 1.49992C384 29.4999 376 14.2152 376 14.2152V606.098H1V14.2152Z" fill="#F0F8FF"/>
<path d="M387 17.5286V604H-12V17.3986C-11.9651 17.3906 -11.9291 17.3824 -11.8919 17.3739C-11.3128 17.2417 -10.4585 17.0479 -9.35883 16.8018C-7.15951 16.3095 -3.979 15.608 -0.0561972 14.7711C7.78987 13.0974 18.6032 10.883 30.473 8.72032C54.2527 4.38758 82.1423 0.287624 98.9515 1.10448C201.871 6.10593 274.116 10.2299 320.631 13.1033C343.888 14.54 360.712 15.6641 371.722 16.429C377.226 16.8114 381.277 17.1041 383.952 17.3011C385.289 17.3995 386.282 17.4741 386.94 17.5241C386.961 17.5256 386.98 17.5271 387 17.5286Z" stroke="#D7E5F3" stroke-width="2"/>
</svg>
