<svg width="13" height="11" viewBox="0 0 13 11" fill="none" xmlns="http://www.w3.org/2000/svg">
<path d="M11.6886 1.74666C10.9685 0.786588 6.17589 4.29347 4.85579 5.13354C-1.03238 4.62689 1.49555 8.97381 2.2156 10.1739C2.93565 11.374 8.56832 9.54723 10.1284 7.98712C11.6886 6.427 13.638 4.34596 11.6886 1.74666Z" fill="#FFDB1D" stroke="black" stroke-width="0.720053"/>
<path d="M10.3685 1.02661C7.12822 0.786597 5.20808 2.2267 3.88799 3.06676C1.3678 4.49187 0.527741 6.90704 1.24779 8.10713C1.96785 9.30722 6.64819 8.46715 8.2083 6.90704C9.76842 5.34693 13.6087 1.26663 10.3685 1.02661Z" fill="#FFDB1D" stroke="black" stroke-width="0.720053"/>
<path d="M4.24799 8.70715L5.08805 10.2673" stroke="black" stroke-width="0.720053"/>
<path d="M6.5282 7.86713L7.36826 9.42724" stroke="black" stroke-width="0.720053"/>
<path d="M8.68835 6.52057L9.6969 7.97745" stroke="black" stroke-width="0.720053"/>
<path d="M10.3685 4.84045L11.377 6.29733" stroke="black" stroke-width="0.720053"/>
</svg>
