<svg width="85" height="76" viewBox="0 0 85 76" fill="none" xmlns="http://www.w3.org/2000/svg">
<path d="M39.7282 2.2497C12.9715 -0.202786 8 15.8611 8 30.6447C8.66089 42.2279 16.0683 47.9523 41.7108 46.8706C73.7639 45.5184 75.0803 32.7613 75.0803 32.7613C75.0803 32.7613 84.9936 6.39868 39.7282 2.2497Z" fill="white" stroke="#2BABEE" stroke-width="3" stroke-linecap="round"/>
<path d="M7.55277 67.866C7.62744 68.1087 7.69744 68.454 7.76277 68.902C7.83744 69.3407 7.87477 69.714 7.87477 70.022C6.95077 70.022 6.06411 70.0547 5.21477 70.12C4.37477 70.1853 3.32477 70.3067 2.06477 70.484C1.84077 69.0933 1.64011 67.334 1.46277 65.206C1.29477 63.0687 1.21077 61.2907 1.21077 59.872C1.64011 59.76 2.06011 59.676 2.47077 59.62C2.89077 59.564 3.30611 59.536 3.71677 59.536C3.83811 59.536 3.95477 59.5407 4.06677 59.55C4.18811 59.55 4.31411 59.5593 4.44477 59.578C4.37011 60.0447 4.30944 60.67 4.26277 61.454C4.21611 62.2287 4.19277 63.0547 4.19277 63.932C4.19277 65.2013 4.20677 66.144 4.23477 66.76C4.27211 67.376 4.32811 67.9033 4.40277 68.342C4.92544 68.1927 5.46211 68.076 6.01277 67.992C6.57277 67.908 7.08611 67.866 7.55277 67.866ZM11.1956 64.156C11.3076 64.184 11.415 64.2073 11.5176 64.226C11.6296 64.2353 11.723 64.24 11.7976 64.24C11.8723 64.24 11.9563 64.24 12.0496 64.24C12.1523 64.2307 12.2223 64.2213 12.2596 64.212C12.3156 63.988 12.3576 63.778 12.3856 63.582C12.423 63.386 12.4416 63.2087 12.4416 63.05C12.4416 62.854 12.4136 62.7093 12.3576 62.616C12.311 62.5227 12.2363 62.476 12.1336 62.476C11.947 62.476 11.7696 62.63 11.6016 62.938C11.4336 63.2367 11.2983 63.6427 11.1956 64.156ZM12.8896 66.312C13.2443 66.3773 13.6036 66.508 13.9676 66.704C14.341 66.8907 14.6443 67.1053 14.8776 67.348C14.803 67.5907 14.6303 67.852 14.3596 68.132C14.089 68.412 13.767 68.6453 13.3936 68.832C13.095 68.9813 12.7683 69.0933 12.4136 69.168C12.0683 69.252 11.7043 69.294 11.3216 69.294C10.351 69.294 9.59028 69.014 9.03962 68.454C8.49828 67.8847 8.22762 67.1147 8.22762 66.144C8.22762 65.5373 8.32095 64.9447 8.50762 64.366C8.70362 63.778 8.97895 63.246 9.33362 62.77C9.73495 62.238 10.197 61.8227 10.7196 61.524C11.2423 61.2253 11.779 61.076 12.3296 61.076C13.1136 61.076 13.739 61.2767 14.2056 61.678C14.6723 62.07 14.9056 62.5973 14.9056 63.26C14.9056 63.5587 14.873 63.89 14.8076 64.254C14.7516 64.6087 14.677 64.9167 14.5836 65.178C14.2943 65.318 13.935 65.4253 13.5056 65.5C13.0856 65.5653 12.5816 65.598 11.9936 65.598C11.8256 65.598 11.6576 65.5887 11.4896 65.57C11.331 65.5513 11.1723 65.528 11.0136 65.5C11.0043 65.556 10.9996 65.6213 10.9996 65.696C10.9996 65.7613 10.9996 65.864 10.9996 66.004C10.9996 66.564 11.0696 66.9933 11.2096 67.292C11.359 67.5907 11.569 67.74 11.8396 67.74C12.017 67.74 12.2083 67.5953 12.4136 67.306C12.619 67.0167 12.7776 66.6853 12.8896 66.312ZM22.6605 63.988C22.6605 64.576 22.5812 65.3787 22.4225 66.396C22.2639 67.404 22.0585 68.4447 21.8065 69.518C21.4799 69.518 21.1299 69.4947 20.7565 69.448C20.3832 69.4107 20.0192 69.3547 19.6645 69.28C19.6832 69.1213 19.6972 69 19.7065 68.916C19.7159 68.832 19.7252 68.7573 19.7345 68.692C19.5385 68.776 19.3239 68.8413 19.0905 68.888C18.8572 68.9347 18.6052 68.958 18.3345 68.958C17.5599 68.958 16.9392 68.7667 16.4725 68.384C16.0059 67.992 15.7725 67.4693 15.7725 66.816C15.7725 66.1533 16.0385 65.6587 16.5705 65.332C17.1119 64.996 17.9239 64.828 19.0065 64.828C19.3612 64.828 19.5992 64.828 19.7205 64.828C19.8419 64.828 19.9399 64.8327 20.0145 64.842C20.0052 63.9647 19.9492 63.3673 19.8465 63.05C19.7439 62.7327 19.5759 62.574 19.3425 62.574C19.1185 62.574 18.9225 62.728 18.7545 63.036C18.5959 63.3347 18.5119 63.7173 18.5025 64.184C17.9052 64.184 17.4059 64.072 17.0045 63.848C16.6125 63.624 16.3419 63.302 16.1925 62.882C16.3699 62.3967 16.7712 61.9813 17.3965 61.636C18.0219 61.2907 18.7452 61.118 19.5665 61.118C20.5839 61.118 21.3539 61.3607 21.8765 61.846C22.3992 62.3313 22.6605 63.0453 22.6605 63.988ZM18.5585 67.012C18.5585 67.2267 18.6145 67.3947 18.7265 67.516C18.8385 67.628 19.0019 67.684 19.2165 67.684C19.3472 67.684 19.4639 67.67 19.5665 67.642C19.6692 67.614 19.7719 67.572 19.8745 67.516C19.9119 67.1893 19.9352 66.9093 19.9445 66.676C19.9632 66.4333 19.9772 66.214 19.9865 66.018C19.5012 66.046 19.1419 66.1393 18.9085 66.298C18.6752 66.4567 18.5585 66.6947 18.5585 67.012ZM30.5108 69.308C30.2401 69.3827 29.8948 69.448 29.4748 69.504C29.0641 69.56 28.6908 69.588 28.3548 69.588C28.3175 69.4013 28.2755 69.182 28.2288 68.93C28.1821 68.678 28.1355 68.3747 28.0888 68.02C27.8835 68.496 27.6221 68.846 27.3048 69.07C26.9968 69.3033 26.6188 69.42 26.1708 69.42C25.3495 69.42 24.7148 69.1167 24.2668 68.51C23.8188 67.9033 23.5948 67.0587 23.5948 65.976C23.5948 64.604 23.9355 63.512 24.6168 62.7C25.3075 61.8787 26.2361 61.468 27.4028 61.468C27.4495 61.468 27.4868 61.468 27.5148 61.468C27.5521 61.468 27.5848 61.4727 27.6128 61.482C27.6035 61.0713 27.5941 60.6747 27.5848 60.292C27.5755 59.9 27.5708 59.5313 27.5708 59.186C27.7855 59.074 28.0888 58.9853 28.4808 58.92C28.8728 58.8547 29.2741 58.822 29.6848 58.822C29.8715 58.822 30.0535 58.8313 30.2308 58.85C30.4081 58.8687 30.5855 58.8967 30.7628 58.934C30.6695 59.5873 30.5948 60.642 30.5388 62.098C30.4921 63.554 30.4688 65.3927 30.4688 67.614C30.4688 67.8753 30.4688 68.1367 30.4688 68.398C30.4781 68.65 30.4921 68.9533 30.5108 69.308ZM26.3248 65.64C26.3248 66.2373 26.3855 66.6947 26.5068 67.012C26.6281 67.32 26.8055 67.474 27.0388 67.474C27.2068 67.474 27.3608 67.334 27.5008 67.054C27.6501 66.774 27.7668 66.3773 27.8508 65.864C27.8041 65.22 27.7668 64.6787 27.7388 64.24C27.7108 63.792 27.6875 63.3767 27.6688 62.994H27.5708C27.1881 62.994 26.8848 63.2273 26.6608 63.694C26.4368 64.1513 26.3248 64.8 26.3248 65.64ZM34.6702 64.156C34.7822 64.184 34.8896 64.2073 34.9922 64.226C35.1042 64.2353 35.1976 64.24 35.2722 64.24C35.3469 64.24 35.4309 64.24 35.5242 64.24C35.6269 64.2307 35.6969 64.2213 35.7342 64.212C35.7902 63.988 35.8322 63.778 35.8602 63.582C35.8976 63.386 35.9162 63.2087 35.9162 63.05C35.9162 62.854 35.8882 62.7093 35.8322 62.616C35.7856 62.5227 35.7109 62.476 35.6082 62.476C35.4216 62.476 35.2442 62.63 35.0762 62.938C34.9082 63.2367 34.7729 63.6427 34.6702 64.156ZM36.3642 66.312C36.7189 66.3773 37.0782 66.508 37.4422 66.704C37.8156 66.8907 38.1189 67.1053 38.3522 67.348C38.2776 67.5907 38.1049 67.852 37.8342 68.132C37.5636 68.412 37.2416 68.6453 36.8682 68.832C36.5696 68.9813 36.2429 69.0933 35.8882 69.168C35.5429 69.252 35.1789 69.294 34.7962 69.294C33.8256 69.294 33.0649 69.014 32.5142 68.454C31.9729 67.8847 31.7022 67.1147 31.7022 66.144C31.7022 65.5373 31.7956 64.9447 31.9822 64.366C32.1782 63.778 32.4536 63.246 32.8082 62.77C33.2096 62.238 33.6716 61.8227 34.1942 61.524C34.7169 61.2253 35.2536 61.076 35.8042 61.076C36.5882 61.076 37.2136 61.2767 37.6802 61.678C38.1469 62.07 38.3802 62.5973 38.3802 63.26C38.3802 63.5587 38.3476 63.89 38.2822 64.254C38.2262 64.6087 38.1516 64.9167 38.0582 65.178C37.7689 65.318 37.4096 65.4253 36.9802 65.5C36.5602 65.5653 36.0562 65.598 35.4682 65.598C35.3002 65.598 35.1322 65.5887 34.9642 65.57C34.8056 65.5513 34.6469 65.528 34.4882 65.5C34.4789 65.556 34.4742 65.6213 34.4742 65.696C34.4742 65.7613 34.4742 65.864 34.4742 66.004C34.4742 66.564 34.5442 66.9933 34.6842 67.292C34.8336 67.5907 35.0436 67.74 35.3142 67.74C35.4916 67.74 35.6829 67.5953 35.8882 67.306C36.0936 67.0167 36.2522 66.6853 36.3642 66.312ZM42.4671 66.158C42.4858 66.6153 42.5185 67.0867 42.5651 67.572C42.6211 68.048 42.6865 68.5287 42.7611 69.014C42.5278 69.098 42.2665 69.154 41.9771 69.182C41.6878 69.21 41.3705 69.21 41.0251 69.182C40.8291 69.1633 40.6705 69.14 40.5491 69.112C40.4278 69.084 40.3111 69.0513 40.1991 69.014C39.9471 67.922 39.7651 66.676 39.6531 65.276C39.5411 63.8667 39.5271 62.63 39.6111 61.566C39.8165 61.5007 40.0405 61.454 40.2831 61.426C40.5258 61.3887 40.7825 61.37 41.0531 61.37C41.3705 61.37 41.6645 61.3933 41.9351 61.44C42.2151 61.4867 42.4625 61.552 42.6771 61.636C42.6398 61.776 42.6071 61.944 42.5791 62.14C42.5511 62.3267 42.5278 62.5367 42.5091 62.77C42.7425 62.238 43.0271 61.8227 43.3631 61.524C43.6991 61.216 44.0445 61.062 44.3991 61.062C44.9218 61.062 45.3371 61.2813 45.6451 61.72C45.9531 62.1493 46.1071 62.7467 46.1071 63.512C46.1071 63.6427 46.1071 63.7453 46.1071 63.82C46.1071 63.8853 46.1025 63.946 46.0931 64.002C45.8038 64.1047 45.4398 64.1747 45.0011 64.212C44.5718 64.2493 44.1051 64.254 43.6011 64.226C43.6105 64.086 43.6151 63.9927 43.6151 63.946C43.6245 63.89 43.6291 63.8387 43.6291 63.792C43.6291 63.5587 43.6011 63.3813 43.5451 63.26C43.4891 63.1293 43.4051 63.064 43.2931 63.064C43.1158 63.064 42.9525 63.3347 42.8031 63.876C42.6538 64.4173 42.5418 65.178 42.4671 66.158ZM53.6896 65.234C53.6896 66.5407 53.3162 67.6373 52.5696 68.524C51.8229 69.4013 50.9129 69.84 49.8396 69.84C49.3822 69.84 48.9529 69.7887 48.5516 69.686C48.1596 69.5927 47.6789 69.392 47.1096 69.084C47.0536 68.1973 47.0069 67.2313 46.9696 66.186C46.9322 65.1313 46.9136 64.128 46.9136 63.176C46.9136 62.4107 46.9229 61.7387 46.9416 61.16C46.9602 60.5813 46.9929 60.068 47.0396 59.62C47.2356 59.508 47.5249 59.4193 47.9076 59.354C48.2996 59.2887 48.7289 59.256 49.1956 59.256C49.4476 59.256 49.6482 59.2653 49.7976 59.284C49.9562 59.3027 50.1149 59.3307 50.2736 59.368C50.1802 59.844 50.0962 60.348 50.0216 60.88C49.9469 61.412 49.8862 61.9673 49.8396 62.546C50.0262 62.35 50.2409 62.2053 50.4836 62.112C50.7262 62.0093 50.9969 61.958 51.2956 61.958C52.0796 61.958 52.6722 62.238 53.0736 62.798C53.4842 63.358 53.6896 64.17 53.6896 65.234ZM49.6156 67.88C49.6809 67.9267 49.7462 67.964 49.8116 67.992C49.8769 68.0107 49.9376 68.02 49.9936 68.02C50.2922 68.02 50.5162 67.7447 50.6656 67.194C50.8242 66.634 50.9036 65.8313 50.9036 64.786C50.9036 64.4127 50.8569 64.1373 50.7636 63.96C50.6796 63.7733 50.5489 63.68 50.3716 63.68C50.2316 63.68 50.1056 63.7407 49.9936 63.862C49.8909 63.9833 49.7929 64.1747 49.6996 64.436C49.6716 64.968 49.6482 65.5233 49.6296 66.102C49.6202 66.6713 49.6156 67.264 49.6156 67.88ZM54.601 65.738C54.601 64.422 54.979 63.3487 55.735 62.518C56.5003 61.678 57.4896 61.258 58.703 61.258C59.6176 61.258 60.327 61.5147 60.831 62.028C61.335 62.5413 61.587 63.2693 61.587 64.212C61.587 64.8 61.4936 65.3973 61.307 66.004C61.1296 66.6107 60.8776 67.138 60.551 67.586C60.1776 68.0993 59.7296 68.4867 59.207 68.748C58.6936 69.0093 58.1103 69.14 57.457 69.14C56.5516 69.14 55.847 68.8367 55.343 68.23C54.8483 67.614 54.601 66.7833 54.601 65.738ZM58.801 64.982C58.801 64.254 58.745 63.722 58.633 63.386C58.521 63.0407 58.3436 62.868 58.101 62.868C57.877 62.868 57.6903 63.0967 57.541 63.554C57.401 64.0113 57.331 64.6087 57.331 65.346C57.331 65.9527 57.3963 66.4707 57.527 66.9C57.6576 67.32 57.835 67.53 58.059 67.53C58.2923 67.53 58.4743 67.2967 58.605 66.83C58.7356 66.354 58.801 65.738 58.801 64.982ZM68.9535 63.988C68.9535 64.576 68.8742 65.3787 68.7155 66.396C68.5568 67.404 68.3515 68.4447 68.0995 69.518C67.7728 69.518 67.4228 69.4947 67.0495 69.448C66.6762 69.4107 66.3122 69.3547 65.9575 69.28C65.9762 69.1213 65.9902 69 65.9995 68.916C66.0088 68.832 66.0182 68.7573 66.0275 68.692C65.8315 68.776 65.6168 68.8413 65.3835 68.888C65.1502 68.9347 64.8982 68.958 64.6275 68.958C63.8528 68.958 63.2322 68.7667 62.7655 68.384C62.2988 67.992 62.0655 67.4693 62.0655 66.816C62.0655 66.1533 62.3315 65.6587 62.8635 65.332C63.4048 64.996 64.2168 64.828 65.2995 64.828C65.6542 64.828 65.8922 64.828 66.0135 64.828C66.1348 64.828 66.2328 64.8327 66.3075 64.842C66.2982 63.9647 66.2422 63.3673 66.1395 63.05C66.0368 62.7327 65.8688 62.574 65.6355 62.574C65.4115 62.574 65.2155 62.728 65.0475 63.036C64.8888 63.3347 64.8048 63.7173 64.7955 64.184C64.1982 64.184 63.6988 64.072 63.2975 63.848C62.9055 63.624 62.6348 63.302 62.4855 62.882C62.6628 62.3967 63.0642 61.9813 63.6895 61.636C64.3148 61.2907 65.0382 61.118 65.8595 61.118C66.8768 61.118 67.6468 61.3607 68.1695 61.846C68.6922 62.3313 68.9535 63.0453 68.9535 63.988ZM64.8515 67.012C64.8515 67.2267 64.9075 67.3947 65.0195 67.516C65.1315 67.628 65.2948 67.684 65.5095 67.684C65.6402 67.684 65.7568 67.67 65.8595 67.642C65.9622 67.614 66.0648 67.572 66.1675 67.516C66.2048 67.1893 66.2282 66.9093 66.2375 66.676C66.2562 66.4333 66.2702 66.214 66.2795 66.018C65.7942 66.046 65.4348 66.1393 65.2015 66.298C64.9682 66.4567 64.8515 66.6947 64.8515 67.012ZM73.0238 66.158C73.0424 66.6153 73.0751 67.0867 73.1218 67.572C73.1778 68.048 73.2431 68.5287 73.3178 69.014C73.0844 69.098 72.8231 69.154 72.5338 69.182C72.2444 69.21 71.9271 69.21 71.5818 69.182C71.3858 69.1633 71.2271 69.14 71.1058 69.112C70.9844 69.084 70.8678 69.0513 70.7558 69.014C70.5038 67.922 70.3218 66.676 70.2098 65.276C70.0978 63.8667 70.0838 62.63 70.1678 61.566C70.3731 61.5007 70.5971 61.454 70.8398 61.426C71.0824 61.3887 71.3391 61.37 71.6098 61.37C71.9271 61.37 72.2211 61.3933 72.4918 61.44C72.7718 61.4867 73.0191 61.552 73.2338 61.636C73.1964 61.776 73.1638 61.944 73.1358 62.14C73.1078 62.3267 73.0844 62.5367 73.0658 62.77C73.2991 62.238 73.5838 61.8227 73.9198 61.524C74.2558 61.216 74.6011 61.062 74.9558 61.062C75.4784 61.062 75.8938 61.2813 76.2018 61.72C76.5098 62.1493 76.6638 62.7467 76.6638 63.512C76.6638 63.6427 76.6638 63.7453 76.6638 63.82C76.6638 63.8853 76.6591 63.946 76.6498 64.002C76.3604 64.1047 75.9964 64.1747 75.5578 64.212C75.1284 64.2493 74.6618 64.254 74.1578 64.226C74.1671 64.086 74.1718 63.9927 74.1718 63.946C74.1811 63.89 74.1858 63.8387 74.1858 63.792C74.1858 63.5587 74.1578 63.3813 74.1018 63.26C74.0458 63.1293 73.9618 63.064 73.8498 63.064C73.6724 63.064 73.5091 63.3347 73.3598 63.876C73.2104 64.4173 73.0984 65.178 73.0238 66.158ZM83.6124 69.308C83.3417 69.3827 82.9964 69.448 82.5764 69.504C82.1657 69.56 81.7924 69.588 81.4564 69.588C81.419 69.4013 81.377 69.182 81.3304 68.93C81.2837 68.678 81.237 68.3747 81.1904 68.02C80.985 68.496 80.7237 68.846 80.4064 69.07C80.0984 69.3033 79.7204 69.42 79.2724 69.42C78.451 69.42 77.8164 69.1167 77.3684 68.51C76.9204 67.9033 76.6964 67.0587 76.6964 65.976C76.6964 64.604 77.037 63.512 77.7184 62.7C78.409 61.8787 79.3377 61.468 80.5044 61.468C80.551 61.468 80.5884 61.468 80.6164 61.468C80.6537 61.468 80.6864 61.4727 80.7144 61.482C80.705 61.0713 80.6957 60.6747 80.6864 60.292C80.677 59.9 80.6724 59.5313 80.6724 59.186C80.887 59.074 81.1904 58.9853 81.5824 58.92C81.9744 58.8547 82.3757 58.822 82.7864 58.822C82.973 58.822 83.155 58.8313 83.3324 58.85C83.5097 58.8687 83.687 58.8967 83.8644 58.934C83.771 59.5873 83.6964 60.642 83.6404 62.098C83.5937 63.554 83.5704 65.3927 83.5704 67.614C83.5704 67.8753 83.5704 68.1367 83.5704 68.398C83.5797 68.65 83.5937 68.9533 83.6124 69.308ZM79.4264 65.64C79.4264 66.2373 79.487 66.6947 79.6084 67.012C79.7297 67.32 79.907 67.474 80.1404 67.474C80.3084 67.474 80.4624 67.334 80.6024 67.054C80.7517 66.774 80.8684 66.3773 80.9524 65.864C80.9057 65.22 80.8684 64.6787 80.8404 64.24C80.8124 63.792 80.789 63.3767 80.7704 62.994H80.6724C80.2897 62.994 79.9864 63.2273 79.7624 63.694C79.5384 64.1513 79.4264 64.8 79.4264 65.64Z" fill="#2BABEE"/>
<path d="M34 20C34.6667 21.7658 36 25.7514 36 27.5676C36 29.3838 36 32.6126 36 34" stroke="#2BABEE" stroke-width="3" stroke-linecap="round"/>
<path d="M39 15C39.6667 17.7273 41 23.5909 41 25.2273C41 26.8636 41 31.0909 41 33" stroke="#2BABEE" stroke-width="3" stroke-linecap="round"/>
<path d="M46 24C46 24.5556 46 26.25 46 28.5833C46 30.9167 46 33.1667 46 34" stroke="#2BABEE" stroke-width="3" stroke-linecap="round"/>
</svg>
