<svg width="19" height="19" viewBox="0 0 19 19" fill="none" xmlns="http://www.w3.org/2000/svg">
<path d="M6.85844 6.24809C8.88057 6.24809 8.37504 0.424927 9.89164 0.424927C11.6609 0.424927 11.9138 4.72901 11.9138 6.24809C11.9138 7.76718 18.7385 7.76718 18.9913 9.03309C19.244 10.299 14.5221 10.4122 12.5 11.4249C10.4779 12.4377 15.5166 18.4249 14 18.4249C12.4834 18.4249 11.0222 14.6781 9 14.4249C6.97781 14.1717 4.01106 18.4313 3 17.9249C1.98894 17.4186 6 12.944 6 11.4249C6 9.90584 0.539291 9.28627 0.0337584 7.76718C-0.471774 6.24809 4.83632 6.24809 6.85844 6.24809Z" fill="#FFC52E"/>
</svg>
