<svg width="19" height="19" viewBox="0 0 19 19" fill="none" xmlns="http://www.w3.org/2000/svg">
<path d="M6.85844 6.59966C8.88057 6.59966 8.37504 0.776489 9.89164 0.776489C11.6609 0.776489 11.9138 5.08057 11.9138 6.59966C11.9138 8.11874 18.7385 8.11874 18.9913 9.38465C19.244 10.6506 14.5221 10.7638 12.5 11.7765C10.4779 12.7892 15.5166 18.7765 14 18.7765C12.4834 18.7765 11.0222 15.0297 9 14.7765C6.97781 14.5233 4.01106 18.7829 3 18.2765C1.98894 17.7701 6 13.2956 6 11.7765C6 10.2574 0.539291 9.63783 0.0337584 8.11874C-0.471774 6.59966 4.83632 6.59966 6.85844 6.59966Z" fill="url(#paint0_linear_1239_116)"/>
<defs>
<linearGradient id="paint0_linear_1239_116" x1="9.50052" y1="0.776489" x2="9.50052" y2="18.7765" gradientUnits="userSpaceOnUse">
<stop stop-color="#EFEFEF"/>
<stop offset="1" stop-color="#D1D1D1"/>
</linearGradient>
</defs>
</svg>
