<svg width="19" height="19" viewBox="0 0 19 19" fill="none" xmlns="http://www.w3.org/2000/svg">
<path d="M6.85844 6.09966C8.88057 6.09966 8.37504 0.276489 9.89164 0.276489C11.6609 0.276489 11.9138 4.58057 11.9138 6.09966C11.9138 7.61874 18.7385 7.61874 18.9913 8.88465C19.244 10.1506 14.5221 10.2638 12.5 11.2765C10.4779 12.2892 15.5166 18.2765 14 18.2765C12.4834 18.2765 11.0222 14.5297 9 14.2765C6.97781 14.0233 4.01106 18.2829 3 17.7765C1.98894 17.2701 6 12.7956 6 11.2765C6 9.7574 0.539291 9.13783 0.0337584 7.61874C-0.471774 6.09966 4.83632 6.09966 6.85844 6.09966Z" fill="#C1755D"/>
</svg>
