<svg width="118" height="35" viewBox="0 0 118 35" fill="none" xmlns="http://www.w3.org/2000/svg">
<path d="M55.0689 0.0189414C41.1043 -0.225262 12.5377 1.95222 0 3.07148C0.138538 10.8046 0.789667 26.6983 2.28588 28.4077C4.15614 30.5445 44.8863 31.7655 49.2503 33.5971C53.6142 35.4286 113.091 34.6368 116 32.5C118.909 30.3632 115.333 6.42942 114.502 3.07148C113.671 -0.28645 72.5247 0.324196 55.0689 0.0189414Z" fill="#2BABEE"/>
<path d="M20.2716 21.424C20.0582 21.488 19.8129 21.536 19.5356 21.568C19.2689 21.6 18.9862 21.616 18.6876 21.616C18.7302 19.984 18.6982 18.208 18.5916 16.288C18.4956 14.368 18.3462 12.6347 18.1436 11.088C17.6422 11.1413 17.1196 11.2 16.5756 11.264C16.0422 11.328 15.4662 11.4027 14.8476 11.488C14.7836 11.2853 14.7356 11.072 14.7036 10.848C14.6716 10.6133 14.6556 10.3787 14.6556 10.144C16.2876 9.856 17.7329 9.65333 18.9916 9.536C20.2502 9.408 21.6582 9.33867 23.2156 9.328C23.2476 9.43467 23.2742 9.552 23.2956 9.68C23.3169 9.79733 23.3329 9.936 23.3436 10.096C23.3436 10.1813 23.3382 10.272 23.3276 10.368C23.3276 10.464 23.3116 10.6133 23.2796 10.816C22.6289 10.8267 22.0422 10.8427 21.5196 10.864C21.0076 10.8747 20.5169 10.896 20.0476 10.928C20.1649 12.0907 20.2502 13.2267 20.3036 14.336C20.3676 15.4453 20.3996 16.6187 20.3996 17.856C20.3996 18.4107 20.3889 18.9867 20.3676 19.584C20.3462 20.1813 20.3142 20.7947 20.2716 21.424ZM24.4696 16.864C24.7362 16.96 25.0242 17.0347 25.3336 17.088C25.6429 17.1307 25.9522 17.152 26.2616 17.152C26.3576 17.152 26.4749 17.1467 26.6136 17.136C26.7522 17.1147 26.8536 17.0987 26.9176 17.088C26.9922 16.8 27.0456 16.5333 27.0776 16.288C27.1202 16.032 27.1416 15.7973 27.1416 15.584C27.1416 15.168 27.0722 14.8747 26.9336 14.704C26.8056 14.5227 26.5976 14.432 26.3096 14.432C25.9256 14.432 25.5682 14.656 25.2376 15.104C24.9069 15.552 24.6509 16.1387 24.4696 16.864ZM27.6536 19.2C27.8776 19.2427 28.1069 19.328 28.3416 19.456C28.5762 19.5733 28.7736 19.7173 28.9336 19.888C28.7416 20.4853 28.3149 21.024 27.6536 21.504C27.0029 21.9733 26.2989 22.208 25.5416 22.208C24.6136 22.208 23.8882 21.8773 23.3656 21.216C22.8429 20.5547 22.5816 19.6587 22.5816 18.528C22.5816 17.2053 22.9602 16.0213 23.7176 14.976C24.4856 13.92 25.3922 13.392 26.4376 13.392C27.1309 13.392 27.6802 13.6 28.0856 14.016C28.4909 14.432 28.6936 14.9867 28.6936 15.68C28.6936 16.0427 28.6562 16.416 28.5816 16.8C28.5176 17.184 28.4269 17.5253 28.3096 17.824C28.0642 17.92 27.7656 17.9947 27.4136 18.048C27.0722 18.0907 26.6562 18.112 26.1656 18.112C25.8669 18.112 25.5576 18.0907 25.2376 18.048C24.9176 17.9947 24.6029 17.92 24.2936 17.824C24.2829 18.0373 24.2722 18.1867 24.2616 18.272C24.2616 18.3573 24.2616 18.4373 24.2616 18.512C24.2616 19.3013 24.3949 19.936 24.6616 20.416C24.9282 20.896 25.2856 21.136 25.7336 21.136C26.0962 21.136 26.4696 20.944 26.8536 20.56C27.2376 20.1653 27.5042 19.712 27.6536 19.2ZM32.1806 22.8C32.0312 22.8427 31.8019 22.88 31.4926 22.912C31.1832 22.9547 30.9166 22.976 30.6926 22.976C30.5219 20.6507 30.4152 18.464 30.3726 16.416C30.3299 14.368 30.3512 12.368 30.4366 10.416C30.5859 10.3307 30.7566 10.2613 30.9486 10.208C31.1406 10.1547 31.3272 10.128 31.5086 10.128C31.6579 10.128 31.8019 10.1387 31.9406 10.16C32.0792 10.1707 32.2179 10.1973 32.3566 10.24C32.1966 11.808 32.1006 13.7653 32.0686 16.112C32.0366 18.4587 32.0739 20.688 32.1806 22.8ZM35.3758 16.864C35.6425 16.96 35.9305 17.0347 36.2398 17.088C36.5491 17.1307 36.8585 17.152 37.1678 17.152C37.2638 17.152 37.3811 17.1467 37.5198 17.136C37.6585 17.1147 37.7598 17.0987 37.8238 17.088C37.8985 16.8 37.9518 16.5333 37.9838 16.288C38.0265 16.032 38.0478 15.7973 38.0478 15.584C38.0478 15.168 37.9785 14.8747 37.8398 14.704C37.7118 14.5227 37.5038 14.432 37.2158 14.432C36.8318 14.432 36.4745 14.656 36.1438 15.104C35.8131 15.552 35.5571 16.1387 35.3758 16.864ZM38.5598 19.2C38.7838 19.2427 39.0131 19.328 39.2478 19.456C39.4825 19.5733 39.6798 19.7173 39.8398 19.888C39.6478 20.4853 39.2211 21.024 38.5598 21.504C37.9091 21.9733 37.2051 22.208 36.4478 22.208C35.5198 22.208 34.7945 21.8773 34.2718 21.216C33.7491 20.5547 33.4878 19.6587 33.4878 18.528C33.4878 17.2053 33.8665 16.0213 34.6238 14.976C35.3918 13.92 36.2985 13.392 37.3438 13.392C38.0371 13.392 38.5865 13.6 38.9918 14.016C39.3971 14.432 39.5998 14.9867 39.5998 15.68C39.5998 16.0427 39.5625 16.416 39.4878 16.8C39.4238 17.184 39.3331 17.5253 39.2158 17.824C38.9705 17.92 38.6718 17.9947 38.3198 18.048C37.9785 18.0907 37.5625 18.112 37.0718 18.112C36.7731 18.112 36.4638 18.0907 36.1438 18.048C35.8238 17.9947 35.5091 17.92 35.1998 17.824C35.1891 18.0373 35.1785 18.1867 35.1678 18.272C35.1678 18.3573 35.1678 18.4373 35.1678 18.512C35.1678 19.3013 35.3011 19.936 35.5678 20.416C35.8345 20.896 36.1918 21.136 36.6398 21.136C37.0025 21.136 37.3758 20.944 37.7598 20.56C38.1438 20.1653 38.4105 19.712 38.5598 19.2ZM42.7348 17.776C42.7348 18.704 42.8681 19.44 43.1348 19.984C43.4121 20.5173 43.7695 20.784 44.2068 20.784C44.4841 20.784 44.7295 20.6453 44.9428 20.368C45.1668 20.0907 45.3535 19.68 45.5028 19.136C45.4921 18.336 45.4388 17.5733 45.3428 16.848C45.2575 16.112 45.1348 15.4453 44.9748 14.848C44.9001 14.8267 44.8148 14.8107 44.7188 14.8C44.6228 14.7893 44.5161 14.784 44.3988 14.784C43.8441 14.784 43.4281 15.0347 43.1508 15.536C42.8735 16.0267 42.7348 16.7733 42.7348 17.776ZM47.1988 19.296C47.1988 21.4507 46.8895 23.0987 46.2708 24.24C45.6628 25.3813 44.8041 25.952 43.6948 25.952C42.9375 25.952 42.3241 25.7227 41.8548 25.264C41.3961 24.8053 41.1135 24.1813 41.0068 23.392C41.1988 23.2533 41.4228 23.1307 41.6788 23.024C41.9348 22.9173 42.2015 22.832 42.4788 22.768C42.5961 23.504 42.7561 24.032 42.9588 24.352C43.1721 24.6827 43.4601 24.848 43.8228 24.848C44.2815 24.848 44.6495 24.512 44.9268 23.84C45.2148 23.168 45.3961 22.1813 45.4708 20.88C45.2575 21.232 45.0175 21.4987 44.7508 21.68C44.4841 21.8507 44.1748 21.936 43.8228 21.936C42.9588 21.936 42.2708 21.5787 41.7588 20.864C41.2575 20.1493 41.0068 19.184 41.0068 17.968C41.0068 16.6027 41.3161 15.5413 41.9348 14.784C42.5641 14.0267 43.4388 13.648 44.5588 13.648C44.8895 13.648 45.2415 13.6853 45.6148 13.76C45.9881 13.8347 46.3295 13.936 46.6388 14.064C46.7988 14.7253 46.9321 15.552 47.0388 16.544C47.1455 17.536 47.1988 18.4533 47.1988 19.296ZM50.5339 18.064C50.5659 18.6507 50.6193 19.2747 50.6939 19.936C50.7686 20.5867 50.8646 21.2853 50.9819 22.032C50.8326 22.0853 50.6726 22.1227 50.5019 22.144C50.3419 22.1653 50.1766 22.1707 50.0059 22.16C49.8993 22.16 49.8033 22.1547 49.7179 22.144C49.6326 22.1333 49.5419 22.112 49.4459 22.08C49.1793 20.736 48.9926 19.3067 48.8859 17.792C48.7899 16.2667 48.7846 14.8 48.8699 13.392C48.9979 13.3493 49.1419 13.3173 49.3019 13.296C49.4619 13.2747 49.6379 13.264 49.8299 13.264C49.9686 13.264 50.1126 13.2747 50.2619 13.296C50.4113 13.3173 50.5713 13.3547 50.7419 13.408C50.6993 13.696 50.6566 13.9947 50.6139 14.304C50.5819 14.6027 50.5553 14.928 50.5339 15.28C50.7793 14.5227 51.1046 13.92 51.5099 13.472C51.9153 13.024 52.3313 12.8 52.7579 12.8C53.2273 12.8 53.5793 12.9813 53.8139 13.344C54.0593 13.696 54.1819 14.224 54.1819 14.928C54.1819 15.0453 54.1766 15.1733 54.1659 15.312C54.1553 15.4507 54.1446 15.5893 54.1339 15.728C53.9739 15.792 53.7713 15.8347 53.5259 15.856C53.2913 15.8773 53.0086 15.8827 52.6779 15.872C52.6993 15.7227 52.7153 15.584 52.7259 15.456C52.7366 15.328 52.7419 15.2 52.7419 15.072C52.7419 14.752 52.6993 14.512 52.6139 14.352C52.5393 14.1813 52.4219 14.096 52.2619 14.096C51.9206 14.096 51.5899 14.4587 51.2699 15.184C50.9606 15.8987 50.7153 16.8587 50.5339 18.064ZM60.8852 16.48C60.8852 17.1947 60.7892 18.144 60.5972 19.328C60.4052 20.5013 60.1759 21.5787 59.9092 22.56C59.6959 22.56 59.4719 22.5387 59.2372 22.496C59.0025 22.464 58.7732 22.416 58.5492 22.352C58.5812 22.1707 58.6132 22.0053 58.6452 21.856C58.6772 21.7067 58.7092 21.5733 58.7412 21.456C58.5065 21.6053 58.2505 21.7173 57.9732 21.792C57.6959 21.8667 57.4025 21.904 57.0932 21.904C56.3252 21.904 55.7065 21.7067 55.2372 21.312C54.7679 20.9067 54.5332 20.368 54.5332 19.696C54.5332 18.9813 54.8319 18.4427 55.4292 18.08C56.0265 17.7173 56.9065 17.536 58.0692 17.536C58.2612 17.536 58.4372 17.5413 58.5972 17.552C58.7679 17.552 58.9759 17.5573 59.2212 17.568C59.2212 17.4507 59.2212 17.3387 59.2212 17.232C59.2212 17.1147 59.2212 17.0027 59.2212 16.896C59.2212 16 59.1252 15.3547 58.9332 14.96C58.7412 14.5653 58.4319 14.368 58.0052 14.368C57.5679 14.368 57.1999 14.5707 56.9012 14.976C56.6132 15.3813 56.4585 15.904 56.4372 16.544C56.0532 16.512 55.7385 16.4267 55.4932 16.288C55.2479 16.1493 55.0665 15.9627 54.9492 15.728C55.0879 15.056 55.4612 14.4853 56.0692 14.016C56.6879 13.5467 57.3919 13.312 58.1812 13.312C59.0772 13.312 59.7492 13.5787 60.1972 14.112C60.6559 14.6453 60.8852 15.4347 60.8852 16.48ZM56.2452 19.776C56.2452 20.128 56.3572 20.4107 56.5812 20.624C56.8052 20.8373 57.1092 20.944 57.4932 20.944C57.7599 20.944 58.0105 20.9067 58.2452 20.832C58.4905 20.7467 58.7145 20.6293 58.9172 20.48C58.9919 20.0853 59.0505 19.7227 59.0932 19.392C59.1359 19.0613 59.1625 18.7253 59.1732 18.384C58.1919 18.352 57.4559 18.4533 56.9652 18.688C56.4852 18.912 56.2452 19.2747 56.2452 19.776ZM72.7346 15.952C72.7346 16.9227 72.6386 18.032 72.4466 19.28C72.2652 20.5173 72.0519 21.568 71.8066 22.432C71.4866 22.4213 71.1879 22.3947 70.9106 22.352C70.6332 22.3093 70.3826 22.256 70.1586 22.192C70.4572 20.9973 70.6812 19.8773 70.8306 18.832C70.9799 17.776 71.0546 16.8107 71.0546 15.936C71.0546 15.3493 70.9852 14.928 70.8466 14.672C70.7079 14.4053 70.4839 14.272 70.1746 14.272C69.8759 14.272 69.5772 14.4373 69.2786 14.768C68.9799 15.0987 68.7132 15.5627 68.4786 16.16C68.4892 16.224 68.4946 16.2987 68.4946 16.384C68.4946 16.4693 68.4946 16.6027 68.4946 16.784C68.4946 17.552 68.4306 18.4267 68.3026 19.408C68.1746 20.3893 68.0306 21.1947 67.8706 21.824C67.6679 21.824 67.4332 21.808 67.1666 21.776C66.9106 21.7333 66.6226 21.6747 66.3026 21.6C66.5052 20.5013 66.6492 19.5787 66.7346 18.832C66.8199 18.0853 66.8626 17.4187 66.8626 16.832C66.8626 16.2453 66.7932 15.824 66.6546 15.568C66.5159 15.3013 66.2919 15.168 65.9826 15.168C65.6519 15.168 65.3266 15.328 65.0066 15.648C64.6866 15.9573 64.4199 16.3893 64.2066 16.944C64.1959 17.744 64.1852 18.32 64.1746 18.672C64.1746 19.0133 64.1746 19.3173 64.1746 19.584C64.1746 20.0747 64.1799 20.5653 64.1906 21.056C64.2119 21.536 64.2332 21.8987 64.2546 22.144C64.0839 22.1973 63.8599 22.2453 63.5826 22.288C63.3159 22.3307 63.0652 22.352 62.8306 22.352C62.7239 21.008 62.6279 19.488 62.5426 17.792C62.4679 16.0853 62.4306 14.6773 62.4306 13.568C62.5799 13.4933 62.7612 13.4347 62.9746 13.392C63.1986 13.3493 63.4226 13.328 63.6466 13.328C63.7959 13.328 63.9292 13.3333 64.0466 13.344C64.1639 13.3547 64.2866 13.376 64.4146 13.408C64.3826 13.6533 64.3559 13.9413 64.3346 14.272C64.3132 14.592 64.2919 14.9493 64.2706 15.344C64.5906 14.832 64.9532 14.448 65.3586 14.192C65.7639 13.9253 66.1959 13.792 66.6546 13.792C67.0386 13.792 67.3586 13.8827 67.6146 14.064C67.8706 14.2347 68.0679 14.496 68.2066 14.848C68.5692 14.1973 68.9692 13.712 69.4066 13.392C69.8546 13.0613 70.3399 12.896 70.8626 12.896C71.5026 12.896 71.9719 13.1467 72.2706 13.648C72.5799 14.1387 72.7346 14.9067 72.7346 15.952Z" fill="white"/>
<g clip-path="url(#clip0_1847_10)">
<path d="M95.5387 8.59691L79.5916 14.7783C78.9498 15.0662 78.7328 15.6426 79.4365 15.9555L83.5276 17.2623L93.4195 11.1174C93.9596 10.7316 94.5125 10.8345 94.0367 11.2588L85.5409 18.9909L85.2741 22.2631C85.5212 22.7684 85.9738 22.7707 86.2626 22.5196L88.613 20.284L92.6386 23.3141C93.5736 23.8704 94.0823 23.5114 94.2835 22.4916L96.9239 9.9243C97.198 8.66905 96.7305 8.11597 95.5387 8.59691Z" fill="white"/>
</g>
<defs>
<clipPath id="clip0_1847_10">
<rect width="18" height="18" fill="white" transform="translate(79 7)"/>
</clipPath>
</defs>
</svg>
