<svg width="116" height="34" viewBox="0 0 116 34" fill="none" xmlns="http://www.w3.org/2000/svg">
<path d="M60.9311 33.9811C74.8957 34.2253 103.462 32.0478 116 30.9285C115.861 23.1954 115.386 7.12981 113.714 5.59227C106 -1.5 71.4789 0.585976 66.7497 0.402946C30.5 -1 4.40756 3.45549 1.49826 5.59227C-1.41104 7.72905 0.66703 27.5706 1.49826 30.9285C2.32949 34.2865 43.4753 33.6758 60.9311 33.9811Z" fill="#55ACEE"/>
<path d="M25.3419 21.424C25.1285 21.488 24.8832 21.536 24.6059 21.568C24.3392 21.6 24.0565 21.616 23.7579 21.616C23.8005 19.984 23.7685 18.208 23.6619 16.288C23.5659 14.368 23.4165 12.6347 23.2139 11.088C22.7125 11.1413 22.1899 11.2 21.6459 11.264C21.1125 11.328 20.5365 11.4027 19.9179 11.488C19.8539 11.2853 19.8059 11.072 19.7739 10.848C19.7419 10.6133 19.7259 10.3787 19.7259 10.144C21.3579 9.856 22.8032 9.65333 24.0619 9.536C25.3205 9.408 26.7285 9.33867 28.2859 9.328C28.3179 9.43467 28.3445 9.552 28.3659 9.68C28.3872 9.79733 28.4032 9.936 28.4139 10.096C28.4139 10.1813 28.4085 10.272 28.3979 10.368C28.3979 10.464 28.3819 10.6133 28.3499 10.816C27.6992 10.8267 27.1125 10.8427 26.5899 10.864C26.0779 10.8747 25.5872 10.896 25.1179 10.928C25.2352 12.0907 25.3205 13.2267 25.3739 14.336C25.4379 15.4453 25.4699 16.6187 25.4699 17.856C25.4699 18.4107 25.4592 18.9867 25.4379 19.584C25.4165 20.1813 25.3845 20.7947 25.3419 21.424ZM35.8415 22.336C35.6815 22.3893 35.4735 22.4373 35.2175 22.48C34.9615 22.5227 34.7322 22.5493 34.5295 22.56C34.3695 21.472 34.1935 20.4693 34.0015 19.552C33.8095 18.6347 33.5855 17.7173 33.3295 16.8C33.0628 17.728 32.7908 18.5653 32.5135 19.312C32.2468 20.0587 31.9215 20.8533 31.5375 21.696C31.3455 21.7493 31.1108 21.7973 30.8335 21.84C30.5562 21.8827 30.3108 21.9093 30.0975 21.92C29.5748 20.5013 29.1535 19.1307 28.8335 17.808C28.5135 16.4747 28.2628 15.0613 28.0815 13.568C28.3482 13.472 28.6255 13.3973 28.9135 13.344C29.2015 13.2907 29.5162 13.2533 29.8575 13.232C29.9855 14.672 30.1402 15.936 30.3215 17.024C30.5135 18.1013 30.7588 19.152 31.0575 20.176C31.4415 19.248 31.7562 18.3307 32.0015 17.424C32.2575 16.5173 32.4762 15.5307 32.6575 14.464C32.9455 14.4 33.2175 14.352 33.4735 14.32C33.7295 14.2773 33.9642 14.256 34.1775 14.256C34.4762 15.088 34.7428 16.0213 34.9775 17.056C35.2228 18.08 35.4308 19.1787 35.6015 20.352C36.0388 19.2427 36.3962 18.1547 36.6735 17.088C36.9615 16.0107 37.1695 14.9707 37.2975 13.968C37.5855 14 37.8522 14.0533 38.0975 14.128C38.3428 14.2027 38.5722 14.3093 38.7855 14.448C38.3588 16.144 37.9268 17.5733 37.4895 18.736C37.0522 19.888 36.5028 21.088 35.8415 22.336ZM41.6084 10.096C41.7897 10.096 41.955 10.112 42.1044 10.144C42.2537 10.176 42.3924 10.2293 42.5204 10.304C42.4137 10.56 42.3017 10.864 42.1844 11.216C42.0777 11.5573 41.9977 11.872 41.9444 12.16C41.7844 12.192 41.587 12.2133 41.3524 12.224C41.1177 12.2347 40.8404 12.2347 40.5204 12.224C40.4884 12.096 40.467 11.9733 40.4564 11.856C40.4457 11.7387 40.4404 11.6213 40.4404 11.504C40.4404 11.2907 40.4564 11.072 40.4884 10.848C40.531 10.6133 40.5844 10.4213 40.6484 10.272C40.787 10.1973 40.931 10.1493 41.0804 10.128C41.2297 10.096 41.4057 10.0853 41.6084 10.096ZM40.1364 14C40.2964 13.9147 40.4777 13.8507 40.6804 13.808C40.883 13.7547 41.091 13.728 41.3044 13.728C41.411 13.728 41.5177 13.7333 41.6244 13.744C41.731 13.7547 41.8324 13.7707 41.9284 13.792C41.7044 14.816 41.539 16.0853 41.4324 17.6C41.3257 19.104 41.299 20.5653 41.3524 21.984C41.235 22.0373 41.091 22.08 40.9204 22.112C40.7497 22.144 40.579 22.16 40.4084 22.16C40.323 22.16 40.243 22.1547 40.1684 22.144C40.1044 22.144 40.0457 22.1333 39.9924 22.112C39.8217 20.7467 39.747 19.344 39.7684 17.904C39.8004 16.464 39.923 15.1627 40.1364 14ZM47.0429 18.592C47.2562 18.6133 47.4642 18.6667 47.6669 18.752C47.8802 18.8267 48.0722 18.9173 48.2429 19.024C48.2215 19.8987 48.0295 20.592 47.6669 21.104C47.3042 21.6053 46.7975 21.856 46.1469 21.856C45.3895 21.856 44.8082 21.472 44.4029 20.704C43.9975 19.9253 43.7949 18.8053 43.7949 17.344C43.7949 16.8533 43.8055 16.3787 43.8269 15.92C43.8589 15.4507 43.9015 14.9973 43.9549 14.56C43.6989 14.5173 43.4749 14.48 43.2829 14.448C43.1015 14.416 42.9362 14.384 42.7869 14.352C42.7869 14.1707 42.8082 13.9893 42.8509 13.808C42.8935 13.616 42.9469 13.456 43.0109 13.328C43.1709 13.3707 43.3415 13.408 43.5229 13.44C43.7042 13.472 43.8962 13.4987 44.0989 13.52C44.1522 13.168 44.2162 12.816 44.2909 12.464C44.3655 12.112 44.4455 11.7653 44.5309 11.424C44.9042 11.4453 45.2402 11.4773 45.5389 11.52C45.8375 11.5627 46.0935 11.6213 46.3069 11.696C46.2215 11.952 46.1362 12.2453 46.0509 12.576C45.9762 12.9067 45.9015 13.264 45.8269 13.648C46.2429 13.6587 46.6535 13.6587 47.0589 13.648C47.4749 13.6267 47.8749 13.5947 48.2589 13.552C48.2589 13.7013 48.2429 13.8667 48.2109 14.048C48.1789 14.2187 48.1309 14.3893 48.0669 14.56C47.6829 14.6027 47.2829 14.6347 46.8669 14.656C46.4615 14.6773 46.0615 14.6827 45.6669 14.672C45.5922 15.1627 45.5335 15.6533 45.4909 16.144C45.4589 16.6347 45.4429 17.1093 45.4429 17.568C45.4429 18.624 45.5122 19.424 45.6509 19.968C45.7895 20.5013 45.9975 20.768 46.2749 20.768C46.5202 20.768 46.7069 20.592 46.8349 20.24C46.9629 19.8773 47.0322 19.328 47.0429 18.592ZM53.0898 18.592C53.3031 18.6133 53.5111 18.6667 53.7138 18.752C53.9271 18.8267 54.1191 18.9173 54.2898 19.024C54.2684 19.8987 54.0764 20.592 53.7138 21.104C53.3511 21.6053 52.8444 21.856 52.1938 21.856C51.4364 21.856 50.8551 21.472 50.4498 20.704C50.0444 19.9253 49.8418 18.8053 49.8418 17.344C49.8418 16.8533 49.8524 16.3787 49.8738 15.92C49.9058 15.4507 49.9484 14.9973 50.0018 14.56C49.7458 14.5173 49.5218 14.48 49.3298 14.448C49.1484 14.416 48.9831 14.384 48.8338 14.352C48.8338 14.1707 48.8551 13.9893 48.8978 13.808C48.9404 13.616 48.9938 13.456 49.0578 13.328C49.2178 13.3707 49.3884 13.408 49.5698 13.44C49.7511 13.472 49.9431 13.4987 50.1458 13.52C50.1991 13.168 50.2631 12.816 50.3378 12.464C50.4124 12.112 50.4924 11.7653 50.5778 11.424C50.9511 11.4453 51.2871 11.4773 51.5858 11.52C51.8844 11.5627 52.1404 11.6213 52.3538 11.696C52.2684 11.952 52.1831 12.2453 52.0978 12.576C52.0231 12.9067 51.9484 13.264 51.8738 13.648C52.2898 13.6587 52.7004 13.6587 53.1058 13.648C53.5218 13.6267 53.9218 13.5947 54.3058 13.552C54.3058 13.7013 54.2898 13.8667 54.2578 14.048C54.2258 14.2187 54.1778 14.3893 54.1138 14.56C53.7298 14.6027 53.3298 14.6347 52.9138 14.656C52.5084 14.6773 52.1084 14.6827 51.7138 14.672C51.6391 15.1627 51.5804 15.6533 51.5378 16.144C51.5058 16.6347 51.4898 17.1093 51.4898 17.568C51.4898 18.624 51.5591 19.424 51.6978 19.968C51.8364 20.5013 52.0444 20.768 52.3218 20.768C52.5671 20.768 52.7538 20.592 52.8818 20.24C53.0098 19.8773 53.0791 19.328 53.0898 18.592ZM57.2274 16.864C57.494 16.96 57.782 17.0347 58.0914 17.088C58.4007 17.1307 58.71 17.152 59.0194 17.152C59.1154 17.152 59.2327 17.1467 59.3714 17.136C59.51 17.1147 59.6114 17.0987 59.6754 17.088C59.75 16.8 59.8034 16.5333 59.8354 16.288C59.878 16.032 59.8994 15.7973 59.8994 15.584C59.8994 15.168 59.83 14.8747 59.6914 14.704C59.5634 14.5227 59.3554 14.432 59.0674 14.432C58.6834 14.432 58.326 14.656 57.9954 15.104C57.6647 15.552 57.4087 16.1387 57.2274 16.864ZM60.4114 19.2C60.6354 19.2427 60.8647 19.328 61.0994 19.456C61.334 19.5733 61.5314 19.7173 61.6914 19.888C61.4994 20.4853 61.0727 21.024 60.4114 21.504C59.7607 21.9733 59.0567 22.208 58.2994 22.208C57.3714 22.208 56.646 21.8773 56.1234 21.216C55.6007 20.5547 55.3394 19.6587 55.3394 18.528C55.3394 17.2053 55.718 16.0213 56.4754 14.976C57.2434 13.92 58.15 13.392 59.1954 13.392C59.8887 13.392 60.438 13.6 60.8434 14.016C61.2487 14.432 61.4514 14.9867 61.4514 15.68C61.4514 16.0427 61.414 16.416 61.3394 16.8C61.2754 17.184 61.1847 17.5253 61.0674 17.824C60.822 17.92 60.5234 17.9947 60.1714 18.048C59.83 18.0907 59.414 18.112 58.9234 18.112C58.6247 18.112 58.3154 18.0907 57.9954 18.048C57.6754 17.9947 57.3607 17.92 57.0514 17.824C57.0407 18.0373 57.03 18.1867 57.0194 18.272C57.0194 18.3573 57.0194 18.4373 57.0194 18.512C57.0194 19.3013 57.1527 19.936 57.4194 20.416C57.686 20.896 58.0434 21.136 58.4914 21.136C58.854 21.136 59.2274 20.944 59.6114 20.56C59.9954 20.1653 60.262 19.712 60.4114 19.2ZM64.6824 18.064C64.7144 18.6507 64.7677 19.2747 64.8424 19.936C64.917 20.5867 65.013 21.2853 65.1304 22.032C64.981 22.0853 64.821 22.1227 64.6504 22.144C64.4904 22.1653 64.325 22.1707 64.1544 22.16C64.0477 22.16 63.9517 22.1547 63.8664 22.144C63.781 22.1333 63.6904 22.112 63.5944 22.08C63.3277 20.736 63.141 19.3067 63.0344 17.792C62.9384 16.2667 62.933 14.8 63.0184 13.392C63.1464 13.3493 63.2904 13.3173 63.4504 13.296C63.6104 13.2747 63.7864 13.264 63.9784 13.264C64.117 13.264 64.261 13.2747 64.4104 13.296C64.5597 13.3173 64.7197 13.3547 64.8904 13.408C64.8477 13.696 64.805 13.9947 64.7624 14.304C64.7304 14.6027 64.7037 14.928 64.6824 15.28C64.9277 14.5227 65.253 13.92 65.6584 13.472C66.0637 13.024 66.4797 12.8 66.9064 12.8C67.3757 12.8 67.7277 12.9813 67.9624 13.344C68.2077 13.696 68.3304 14.224 68.3304 14.928C68.3304 15.0453 68.325 15.1733 68.3144 15.312C68.3037 15.4507 68.293 15.5893 68.2824 15.728C68.1224 15.792 67.9197 15.8347 67.6744 15.856C67.4397 15.8773 67.157 15.8827 66.8264 15.872C66.8477 15.7227 66.8637 15.584 66.8744 15.456C66.885 15.328 66.8904 15.2 66.8904 15.072C66.8904 14.752 66.8477 14.512 66.7624 14.352C66.6877 14.1813 66.5704 14.096 66.4104 14.096C66.069 14.096 65.7384 14.4587 65.4184 15.184C65.109 15.8987 64.8637 16.8587 64.6824 18.064Z" fill="white"/>
<path d="M101.46 10C100.69 10.35 99.86 10.58 99 10.69C99.88 10.16 100.56 9.32 100.88 8.31C100.05 8.81 99.13 9.16 98.16 9.36C97.37 8.5 96.26 8 95 8C92.65 8 90.73 9.92 90.73 12.29C90.73 12.63 90.77 12.96 90.84 13.27C87.28 13.09 84.11 11.38 82 8.79C81.63 9.42 81.42 10.16 81.42 10.94C81.42 12.43 82.17 13.75 83.33 14.5C82.62 14.5 81.96 14.3 81.38 14V14.03C81.38 16.11 82.86 17.85 84.82 18.24C84.1909 18.4129 83.5301 18.4369 82.89 18.31C83.1616 19.1625 83.6936 19.9084 84.4111 20.4429C85.1285 20.9775 85.9955 21.2737 86.89 21.29C85.3737 22.4905 83.494 23.1394 81.56 23.13C81.22 23.13 80.88 23.11 80.54 23.07C82.44 24.29 84.7 25 87.12 25C95 25 99.33 18.46 99.33 12.79C99.33 12.6 99.33 12.42 99.32 12.23C100.16 11.63 100.88 10.87 101.46 10Z" fill="white"/>
</svg>
