<svg width="79" height="41" viewBox="0 0 79 41" fill="none" xmlns="http://www.w3.org/2000/svg">
<path d="M36.9943 2.20531C7.48323 0.188821 2 13.3969 2 25.5523C2.72892 35.0763 10.8988 39.783 39.181 38.8936C74.5337 37.7818 75.9856 27.2926 75.9856 27.2926C75.9856 27.2926 86.9194 5.61669 36.9943 2.20531Z" fill="white" stroke="black" stroke-width="3" stroke-linecap="round"/>
<path d="M24.2461 22.9805L24.2666 16.9512C25.693 16.8737 26.8187 16.8213 27.6436 16.7939C28.473 16.7666 29.1999 16.7529 29.8242 16.7529C30.1979 16.7529 30.5876 16.7598 30.9932 16.7734C31.3988 16.7826 31.834 16.8008 32.2988 16.8281L32.2305 18.9609C31.5879 18.9336 30.9909 18.9131 30.4395 18.8994C29.888 18.8857 29.3822 18.8789 28.9219 18.8789C28.5345 18.8789 28.1608 18.8835 27.8008 18.8926C27.4408 18.9017 27.0921 18.9154 26.7549 18.9336L26.7822 21.3672C27.5205 21.3581 28.1562 21.3512 28.6895 21.3467C29.2227 21.3376 29.6602 21.333 30.002 21.333C30.2526 21.333 30.5169 21.3376 30.7949 21.3467C31.0729 21.3512 31.3646 21.3604 31.6699 21.374V23.5547L27.582 23.582C27.5775 23.6413 27.5752 23.7256 27.5752 23.835C27.5433 24.7555 27.5273 25.4141 27.5273 25.8105C27.5273 26.0339 27.5296 26.2708 27.5342 26.5215C27.5433 26.7721 27.5592 27.1276 27.582 27.5879C26.7253 27.515 26.028 27.4603 25.4902 27.4238C24.9525 27.3919 24.4922 27.3714 24.1094 27.3623L24.2461 22.9805ZM35.3408 22.7891H37.3711L36.7559 20.6836L36.3799 18.8105L35.3408 22.7891ZM31.6904 27.2256L33.2559 22.4336L35.0332 16.7666L38.4512 16.8623L41.4453 27.2256H37.9316L37.3027 24.9834L34.9512 24.9287L34.377 27.2256H31.6904ZM45.5264 24.7852C45.7406 24.8079 45.9593 24.8239 46.1826 24.833C46.4059 24.8421 46.6406 24.8467 46.8867 24.8467C47.2194 24.8467 47.5566 24.833 47.8984 24.8057C48.2448 24.7783 48.6025 24.7396 48.9717 24.6895L49.0947 19.3574C48.516 19.2708 47.9395 19.2002 47.3652 19.1455C46.791 19.0908 46.2214 19.0544 45.6562 19.0361L45.5264 24.7852ZM47.0371 27.4307H46.7295C46.1598 27.4307 45.5879 27.3213 45.0137 27.1025C44.4395 26.8838 43.929 26.5785 43.4824 26.1865C42.972 25.7399 42.5892 25.1885 42.334 24.5322C42.0833 23.876 41.958 23.1081 41.958 22.2285C41.958 21.4082 42.0742 20.5879 42.3066 19.7676C42.5391 18.9427 42.7965 18.348 43.0791 17.9834C43.4255 17.5459 43.945 17.1859 44.6377 16.9033C45.3304 16.6162 46.0664 16.4727 46.8457 16.4727C48.5729 16.4727 49.8968 16.9124 50.8174 17.792C51.7425 18.667 52.2051 19.9202 52.2051 21.5518C52.2051 22.8688 51.9704 23.9648 51.501 24.8398C51.0316 25.7148 50.3799 26.2754 49.5459 26.5215L49.5186 27.0547L49.5459 27.4512L51.6172 27.5605C51.6217 27.9342 51.6309 28.3672 51.6445 28.8594C51.6628 29.3516 51.6719 29.6273 51.6719 29.6865C51.3346 29.7139 51.0452 29.7321 50.8037 29.7412C50.5667 29.7503 50.3525 29.7549 50.1611 29.7549C48.9307 29.7549 48.1012 29.5999 47.6729 29.29C47.249 28.9801 47.0371 28.4173 47.0371 27.6016V27.4307Z" fill="black"/>
</svg>
