<svg width="77" height="76" viewBox="0 0 77 76" fill="none" xmlns="http://www.w3.org/2000/svg">
<path d="M37.1982 2.58176C7.57818 6.87652 2 16.0921 2 30.7661C2.73317 42.2633 10.9507 47.9452 39.3977 46.8715C74.9564 45.5294 74.5898 30.7661 74.9564 30.7661C75.323 30.7661 74.2233 -2.78667 37.1982 2.58176Z" fill="white" stroke="#2BABEE" stroke-width="3" stroke-linecap="round"/>
<path d="M18.945 66.074C18.945 66.41 18.9497 66.774 18.959 67.166C18.9683 67.5487 19.0057 68.4773 19.071 69.952C18.651 69.952 18.2263 69.9333 17.797 69.896C17.3677 69.868 16.9897 69.826 16.663 69.77C16.4857 68.286 16.355 66.858 16.271 65.486C16.187 64.1047 16.145 62.7653 16.145 61.468C16.145 61.1787 16.1497 60.8707 16.159 60.544C16.1777 60.2173 16.2057 59.844 16.243 59.424C16.7283 59.1813 17.3163 58.9853 18.007 58.836C18.707 58.6867 19.393 58.612 20.065 58.612C21.2037 58.612 22.081 58.8547 22.697 59.34C23.3223 59.816 23.635 60.4833 23.635 61.342C23.635 62.3873 23.215 63.3347 22.375 64.184C21.5443 65.0333 20.401 65.6633 18.945 66.074ZM20.751 61.846C20.751 61.3047 20.6437 60.894 20.429 60.614C20.2237 60.334 19.911 60.194 19.491 60.194C19.407 60.194 19.3417 60.194 19.295 60.194C19.2577 60.194 19.2203 60.1987 19.183 60.208C19.127 60.8333 19.0803 61.482 19.043 62.154C19.0057 62.826 18.9777 63.5307 18.959 64.268C19.5563 64.1093 20.0043 63.8293 20.303 63.428C20.6017 63.0267 20.751 62.4993 20.751 61.846ZM27.4466 66.158C27.4653 66.6153 27.498 67.0867 27.5446 67.572C27.6006 68.048 27.666 68.5287 27.7406 69.014C27.5073 69.098 27.246 69.154 26.9566 69.182C26.6673 69.21 26.35 69.21 26.0046 69.182C25.8086 69.1633 25.65 69.14 25.5286 69.112C25.4073 69.084 25.2906 69.0513 25.1786 69.014C24.9266 67.922 24.7446 66.676 24.6326 65.276C24.5206 63.8667 24.5066 62.63 24.5906 61.566C24.796 61.5007 25.02 61.454 25.2626 61.426C25.5053 61.3887 25.762 61.37 26.0326 61.37C26.35 61.37 26.644 61.3933 26.9146 61.44C27.1946 61.4867 27.442 61.552 27.6566 61.636C27.6193 61.776 27.5866 61.944 27.5586 62.14C27.5306 62.3267 27.5073 62.5367 27.4886 62.77C27.722 62.238 28.0066 61.8227 28.3426 61.524C28.6786 61.216 29.024 61.062 29.3786 61.062C29.9013 61.062 30.3166 61.2813 30.6246 61.72C30.9326 62.1493 31.0866 62.7467 31.0866 63.512C31.0866 63.6427 31.0866 63.7453 31.0866 63.82C31.0866 63.8853 31.082 63.946 31.0726 64.002C30.7833 64.1047 30.4193 64.1747 29.9806 64.212C29.5513 64.2493 29.0846 64.254 28.5806 64.226C28.59 64.086 28.5946 63.9927 28.5946 63.946C28.604 63.89 28.6086 63.8387 28.6086 63.792C28.6086 63.5587 28.5806 63.3813 28.5246 63.26C28.4686 63.1293 28.3846 63.064 28.2726 63.064C28.0953 63.064 27.932 63.3347 27.7826 63.876C27.6333 64.4173 27.5213 65.178 27.4466 66.158ZM31.3363 65.738C31.3363 64.422 31.7143 63.3487 32.4703 62.518C33.2357 61.678 34.225 61.258 35.4383 61.258C36.353 61.258 37.0623 61.5147 37.5663 62.028C38.0703 62.5413 38.3223 63.2693 38.3223 64.212C38.3223 64.8 38.229 65.3973 38.0423 66.004C37.865 66.6107 37.613 67.138 37.2863 67.586C36.913 68.0993 36.465 68.4867 35.9423 68.748C35.429 69.0093 34.8457 69.14 34.1923 69.14C33.287 69.14 32.5823 68.8367 32.0783 68.23C31.5837 67.614 31.3363 66.7833 31.3363 65.738ZM35.5363 64.982C35.5363 64.254 35.4803 63.722 35.3683 63.386C35.2563 63.0407 35.079 62.868 34.8363 62.868C34.6123 62.868 34.4257 63.0967 34.2763 63.554C34.1363 64.0113 34.0663 64.6087 34.0663 65.346C34.0663 65.9527 34.1317 66.4707 34.2623 66.9C34.393 67.32 34.5703 67.53 34.7943 67.53C35.0277 67.53 35.2097 67.2967 35.3403 66.83C35.471 66.354 35.5363 65.738 35.5363 64.982ZM42.4903 63.946C42.5649 64.758 42.6909 65.6633 42.8683 66.662C43.0456 67.6513 43.2043 68.3793 43.3443 68.846C42.9803 68.9767 42.5229 69.084 41.9723 69.168C41.4309 69.252 40.9129 69.294 40.4183 69.294C40.2969 68.7433 40.1756 67.894 40.0543 66.746C39.9423 65.598 39.8816 64.5713 39.8723 63.666C39.6576 63.6287 39.4616 63.5867 39.2843 63.54C39.1163 63.4933 38.9809 63.4467 38.8783 63.4C38.8783 63.2133 38.9109 62.9753 38.9763 62.686C39.0416 62.3873 39.1069 62.2053 39.1723 62.14C39.2749 62.1587 39.3916 62.1727 39.5223 62.182C39.6623 62.1913 39.8069 62.2007 39.9563 62.21C40.1056 61.1087 40.4416 60.2687 40.9643 59.69C41.4869 59.1113 42.1683 58.822 43.0083 58.822C43.6989 58.822 44.2403 59.0087 44.6323 59.382C45.0336 59.746 45.2343 60.2267 45.2343 60.824C45.2343 60.9453 45.2203 61.0667 45.1923 61.188C45.1736 61.3093 45.1456 61.4213 45.1083 61.524C44.8096 61.524 44.4923 61.5007 44.1563 61.454C43.8296 61.4073 43.4843 61.3327 43.1203 61.23C43.1483 61.1647 43.1669 61.0993 43.1763 61.034C43.1856 60.9593 43.1903 60.88 43.1903 60.796C43.1903 60.6467 43.1716 60.5393 43.1343 60.474C43.1063 60.4087 43.0503 60.376 42.9663 60.376C42.7983 60.376 42.6723 60.5347 42.5883 60.852C42.5043 61.16 42.4529 61.65 42.4343 62.322C42.5463 62.3313 42.6676 62.336 42.7983 62.336C42.9289 62.336 43.1156 62.336 43.3583 62.336C43.7876 62.336 44.1283 62.3313 44.3803 62.322C44.6416 62.3033 44.8516 62.28 45.0103 62.252C45.0103 62.4853 44.9916 62.756 44.9543 63.064C44.9263 63.372 44.8889 63.6333 44.8423 63.848C44.7116 63.8947 44.5483 63.9273 44.3523 63.946C44.1563 63.9647 43.8949 63.974 43.5683 63.974C43.4376 63.974 43.2929 63.974 43.1343 63.974C42.9849 63.9647 42.7703 63.9553 42.4903 63.946ZM47.6506 58.416C47.9306 58.416 48.1919 58.4393 48.4346 58.486C48.6773 58.5327 48.8826 58.598 49.0506 58.682C48.9666 58.878 48.8733 59.1673 48.7706 59.55C48.6679 59.9233 48.5933 60.2547 48.5466 60.544C48.2293 60.6 47.8746 60.642 47.4826 60.67C47.0906 60.6887 46.6473 60.6933 46.1526 60.684C46.0873 60.4787 46.0359 60.2733 45.9986 60.068C45.9706 59.8627 45.9566 59.662 45.9566 59.466C45.9566 59.3167 45.9613 59.186 45.9706 59.074C45.9893 58.962 46.0126 58.8593 46.0406 58.766C46.2553 58.6447 46.4933 58.556 46.7546 58.5C47.0253 58.444 47.3239 58.416 47.6506 58.416ZM45.7046 61.944C45.9566 61.7947 46.2506 61.6827 46.5866 61.608C46.9226 61.5333 47.2866 61.496 47.6786 61.496C47.8653 61.496 48.0473 61.5053 48.2246 61.524C48.4113 61.5427 48.5886 61.566 48.7566 61.594C48.5513 62.2007 48.3693 63.1667 48.2106 64.492C48.0613 65.8173 47.9586 67.2687 47.9026 68.846C47.7066 68.9487 47.4546 69.028 47.1466 69.084C46.8479 69.1493 46.5353 69.182 46.2086 69.182C46.0686 69.182 45.9473 69.1773 45.8446 69.168C45.7419 69.1587 45.6533 69.1447 45.5786 69.126C45.4386 67.7913 45.3779 66.5127 45.3966 65.29C45.4153 64.058 45.5179 62.9427 45.7046 61.944ZM52.5078 69.588C52.2652 69.6627 51.9012 69.728 51.4158 69.784C50.9398 69.84 50.5058 69.868 50.1138 69.868C49.9738 68.272 49.8572 66.4613 49.7638 64.436C49.6705 62.4013 49.6238 60.6187 49.6238 59.088C49.8385 58.9387 50.1045 58.822 50.4218 58.738C50.7485 58.654 51.0845 58.612 51.4298 58.612C51.6912 58.612 51.9292 58.626 52.1438 58.654C52.3585 58.682 52.5732 58.724 52.7878 58.78C52.7038 59.7227 52.6338 61.216 52.5778 63.26C52.5312 65.304 52.5078 67.4133 52.5078 69.588ZM56.4681 64.156C56.5801 64.184 56.6874 64.2073 56.7901 64.226C56.9021 64.2353 56.9954 64.24 57.0701 64.24C57.1447 64.24 57.2287 64.24 57.3221 64.24C57.4247 64.2307 57.4947 64.2213 57.5321 64.212C57.5881 63.988 57.6301 63.778 57.6581 63.582C57.6954 63.386 57.7141 63.2087 57.7141 63.05C57.7141 62.854 57.6861 62.7093 57.6301 62.616C57.5834 62.5227 57.5087 62.476 57.4061 62.476C57.2194 62.476 57.0421 62.63 56.8741 62.938C56.7061 63.2367 56.5707 63.6427 56.4681 64.156ZM58.1621 66.312C58.5167 66.3773 58.8761 66.508 59.2401 66.704C59.6134 66.8907 59.9167 67.1053 60.1501 67.348C60.0754 67.5907 59.9027 67.852 59.6321 68.132C59.3614 68.412 59.0394 68.6453 58.6661 68.832C58.3674 68.9813 58.0407 69.0933 57.6861 69.168C57.3407 69.252 56.9767 69.294 56.5941 69.294C55.6234 69.294 54.8627 69.014 54.3121 68.454C53.7707 67.8847 53.5001 67.1147 53.5001 66.144C53.5001 65.5373 53.5934 64.9447 53.7801 64.366C53.9761 63.778 54.2514 63.246 54.6061 62.77C55.0074 62.238 55.4694 61.8227 55.9921 61.524C56.5147 61.2253 57.0514 61.076 57.6021 61.076C58.3861 61.076 59.0114 61.2767 59.4781 61.678C59.9447 62.07 60.1781 62.5973 60.1781 63.26C60.1781 63.5587 60.1454 63.89 60.0801 64.254C60.0241 64.6087 59.9494 64.9167 59.8561 65.178C59.5667 65.318 59.2074 65.4253 58.7781 65.5C58.3581 65.5653 57.8541 65.598 57.2661 65.598C57.0981 65.598 56.9301 65.5887 56.7621 65.57C56.6034 65.5513 56.4447 65.528 56.2861 65.5C56.2767 65.556 56.2721 65.6213 56.2721 65.696C56.2721 65.7613 56.2721 65.864 56.2721 66.004C56.2721 66.564 56.3421 66.9933 56.4821 67.292C56.6314 67.5907 56.8414 67.74 57.1121 67.74C57.2894 67.74 57.4807 67.5953 57.6861 67.306C57.8914 67.0167 58.0501 66.6853 58.1621 66.312Z" fill="#2BABEE"/>
<path d="M42.596 11C46.0989 12.3596 54.4335 17.118 53.9824 28.5904C53.7278 35.0643 45.9576 38.4632 37.6228 38.8741C31.4221 39.1797 17.8705 33.4539 23.2263 23.0427C28.5821 12.6315 34.0914 12.7674 41.6799 13.0297" stroke="#2BABEE" stroke-width="2.84444" stroke-linecap="round"/>
<path d="M29.5891 27.8711C30.4656 29.3968 32.1144 31.1803 34.2975 31.2418C37.8456 31.3417 40.0628 29.1895 41.1221 28.528" stroke="#2BABEE" stroke-width="2.84444" stroke-linecap="round"/>
<ellipse cx="29.5429" cy="20.8304" rx="1.6" ry="1.14286" fill="#2BABEE"/>
<ellipse cx="40.5143" cy="20.8304" rx="1.6" ry="1.14286" fill="#2BABEE"/>
</svg>
