<svg width="289" height="51" viewBox="0 0 289 51" fill="none" xmlns="http://www.w3.org/2000/svg">
<path d="M134.232 5.34315C100.534 6.23299 31.7122 11.2008 1.5132 13.5735C2.16506 22.6541 13.8204 43.4294 17.5 45.3131C22.0994 47.6678 110.972 43.5275 121.575 45.3131C132.177 47.0987 283.141 40.1378 285.5 33.0617C290.5 18.0617 284 9.56168 279.5 4.56168C275.177 -0.241643 176.353 4.23086 134.232 5.34315Z" stroke="#2BABEE" stroke-width="2" stroke-linecap="round"/>
<path d="M134.925 5.08393C101.217 4.79663 32.2634 7.35837 2 8.67516C2.3344 17.773 3.90609 36.4714 7.51764 38.4825C12.0321 40.9964 110.346 42.4329 120.88 44.5876C131.414 46.7423 271.361 40.9964 278.384 38.4825C285.406 35.9686 280.39 12.6257 278.384 8.67516C276.377 4.72465 177.06 5.44305 134.925 5.08393Z" fill="#2BABEE"/>
</svg>
