<svg width="56" height="56" viewBox="0 0 56 56" fill="none" xmlns="http://www.w3.org/2000/svg">
<path d="M44.0767 32.13L35.21 28.2333C34.9067 28.0933 34.5567 28 34.1833 28H32.6667V17.5C32.6667 15.9529 32.0521 14.4692 30.9581 13.3752C29.8642 12.2812 28.3804 11.6666 26.8333 11.6666C25.2862 11.6666 23.8025 12.2812 22.7085 13.3752C21.6146 14.4692 21 15.9529 21 17.5V36.5166L16.6367 35.5833C16.1933 35.5133 14.2567 35.2333 12.6 36.89L9.33332 40.18L21.28 52.29C22.1433 53.1766 23.3333 53.6666 24.57 53.6666H39.8533C42.14 53.6666 44.0767 52.0333 44.45 49.77L46.5967 37.0766C46.7617 36.091 46.6059 35.0783 46.1522 34.1878C45.6986 33.2973 44.971 32.576 44.0767 32.13ZM39.8533 49H24.57L15.9367 40.18L25.6667 42.2566V17.5C25.6667 16.8466 26.18 16.3333 26.8333 16.3333C27.4867 16.3333 28 16.8466 28 17.5V31.92H32.1067L42 36.3066L39.8533 49ZM9.54332 12.8333H16.3333V16.3333H4.66666V4.66665H8.16666V9.37998C13.58 4.96998 20.4867 2.33331 28 2.33331C40.81 2.33331 49.63 9.61331 51.3333 16.3333H47.67C45.8967 11.7133 39.06 5.83331 28 5.83331C20.93 5.83331 14.49 8.49331 9.54332 12.8333Z" fill="#CFCFCF"/>
</svg>
