<svg width="23" height="22" viewBox="0 0 23 22" fill="none" xmlns="http://www.w3.org/2000/svg">
<path d="M5.39996 11.191L11.1321 19.2029C11.1832 19.2744 11.2507 19.3326 11.3289 19.3728C11.407 19.413 11.4936 19.4341 11.5815 19.4341H11.5828C11.6711 19.434 11.758 19.4127 11.8363 19.3722C11.9147 19.3317 11.9823 19.273 12.0334 19.2012L17.7285 11.1894C17.7874 11.1066 17.8223 11.0091 17.8294 10.9078C17.8365 10.8064 17.8156 10.705 17.7688 10.6148C17.7223 10.5244 17.6518 10.4487 17.565 10.3958C17.4782 10.343 17.3785 10.3152 17.2769 10.3154H14.5966L14.5968 3.11939C14.5969 3.0467 14.5826 2.97472 14.5548 2.90756C14.527 2.84041 14.4862 2.77939 14.4348 2.728C14.3834 2.67661 14.3223 2.63586 14.2552 2.60808C14.188 2.5803 14.116 2.56603 14.0433 2.56609L9.0843 2.56631C9.0116 2.56628 8.93961 2.58057 8.87244 2.60838C8.80527 2.63619 8.74424 2.67696 8.69284 2.72836C8.64143 2.77977 8.60066 2.8408 8.57285 2.90797C8.54505 2.97514 8.53075 3.04713 8.53078 3.11983V10.3149H5.84986C5.64306 10.3149 5.4532 10.4315 5.35772 10.6157C5.31105 10.7061 5.29029 10.8077 5.29775 10.9093C5.3052 11.0108 5.34057 11.1083 5.39996 11.191Z" fill="#2BABEE"/>
</svg>
