<svg width="167" height="76" viewBox="0 0 167 76" fill="none" xmlns="http://www.w3.org/2000/svg">
<path d="M76.9886 8.32184C17.9665 5.16085 7 25.8654 7 44.9198C8.45784 59.8493 24.7976 67.2274 81.362 65.8332C152.067 64.0904 154.971 47.6478 154.971 47.6478C154.971 47.6478 176.839 13.6694 76.9886 8.32184Z" fill="white" stroke="#2BABEE" stroke-width="3" stroke-linecap="round"/>
<path d="M76.9886 8.3219C17.9665 5.16091 1 21.4456 1 40.5C2.45784 55.4294 24.7932 68.2988 81.362 69.5001C152 71.0001 154.971 47.6479 154.971 47.6479C154.971 47.6479 176.839 13.6695 76.9886 8.3219Z" stroke="#2BABEE" stroke-width="2" stroke-linecap="round"/>
<path d="M80.7456 8.04399C20.8689 10.2305 5.18985 27.9839 6.88881 46.9624C9.69195 61.7006 33.3915 72.4999 90.6162 68.5832C162.073 63.6924 162.991 40.1646 162.991 40.1646C162.991 40.1646 182.041 4.34496 80.7456 8.04399Z" stroke="#2BABEE" stroke-width="2" stroke-linecap="round"/>
<path d="M28.9531 36.0469L28.8828 27.6211L34.4023 27.4336L34.332 41.2266L41.5156 41.1562L41.3164 45.5039C40.2852 45.4648 39.3594 45.4336 38.5391 45.4102C37.7266 45.3945 36.9648 45.3867 36.2539 45.3867H35.293L28.6719 45.1641L28.9531 36.0469ZM48.1602 37.8984H51.9336L51.7109 35.4492L48.1602 35.5195V37.8984ZM51.5469 41.4727L56.2227 41.332C56.0039 42.7305 55.3516 43.8242 54.2656 44.6133C53.1797 45.4023 51.7773 45.7969 50.0586 45.7969C47.8789 45.7969 46.1523 45.2188 44.8789 44.0625C43.6133 42.8984 42.9805 41.332 42.9805 39.3633C42.9805 37.3008 43.5938 35.6484 44.8203 34.4062C46.0469 33.1641 47.6797 32.543 49.7188 32.543C51.7891 32.543 53.4297 33.1836 54.6406 34.4648C55.8594 35.7383 56.4688 37.4727 56.4688 39.668V40.1016H51.6875C51.2031 40.1016 50.6211 40.1211 49.9414 40.1602C49.2695 40.1992 48.4102 40.2617 47.3633 40.3477C47.3633 40.7539 47.3828 41.1562 47.4219 41.5547C47.4609 41.9453 47.5156 42.332 47.5859 42.7148L51.4062 42.7734L51.5469 41.4727ZM57.5938 36.0938L57.7344 33.5273L59.7734 33.5742L61.4727 29.6602L63.7812 29.543L63.6406 33.0469L67.2852 33.1875L67.0742 36.4102L63.4414 36.457L63.2539 42.6445L65.4805 42.668L65.3867 41.0391H67.7891C67.8203 41.2422 67.8438 41.4609 67.8594 41.6953C67.875 41.9219 67.8828 42.168 67.8828 42.4336C67.8828 43.5117 67.5117 44.3398 66.7695 44.918C66.0352 45.4883 64.9688 45.7734 63.5703 45.7734C62.6719 45.7734 61.8945 45.6523 61.2383 45.4102C60.582 45.1758 60.0234 44.8164 59.5625 44.332C59.3438 44.1055 59.1875 43.8633 59.0938 43.6055C59 43.3477 58.9531 42.9727 58.9531 42.4805V41.9766C58.9531 41.1562 58.9922 40.3125 59.0703 39.4453C59.1484 38.5703 59.2852 37.5195 59.4805 36.293L57.5938 36.0938ZM69.1367 28.1484H71.7031V34.7227H69.1367V28.1484ZM73.6602 41.6367L77.5039 41.9297L77.7148 42.7969L81.9219 42.8672V41.1797C78.5547 41 76.3125 40.5742 75.1953 39.9023C74.0781 39.2305 73.5195 38.0898 73.5195 36.4805C73.5195 35.0508 73.9336 34.0234 74.7617 33.3984C75.5898 32.7656 76.9844 32.4492 78.9453 32.4492C80.8125 32.4492 82.1836 32.7383 83.0586 33.3164C83.9414 33.8867 84.4805 34.8359 84.6758 36.1641C84.6602 36.1641 84.6367 36.1641 84.6055 36.1641C83.0508 36.1016 81.875 36.0703 81.0781 36.0703L80.7617 35.0625H77.0234V36.7734C80.2656 36.9062 82.4766 37.3125 83.6562 37.9922C84.8359 38.6641 85.4258 39.7773 85.4258 41.332C85.4258 42.7227 84.9023 43.8125 83.8555 44.6016C82.8164 45.3828 81.3633 45.7734 79.4961 45.7734C77.5977 45.7734 76.1484 45.4297 75.1484 44.7422C74.1562 44.0547 73.6602 43.0508 73.6602 41.7305V41.6367ZM104.797 36.293L100.355 36.1172V40.9219L104.914 40.8281L104.797 36.293ZM103.426 44.0156C102.996 44.2344 102.559 44.3945 102.113 44.4961C101.676 44.5898 101.195 44.6367 100.672 44.6367C98.9375 44.6367 97.5859 44.1133 96.6172 43.0664C95.6562 42.0195 95.1758 40.5508 95.1758 38.6602C95.1758 36.7148 95.6719 35.2109 96.6641 34.1484C97.6562 33.0781 99.0547 32.543 100.859 32.543C101.758 32.543 102.551 32.6758 103.238 32.9414C103.934 33.1992 104.516 33.5859 104.984 34.1016L105.594 32.9297L108.617 33V43.5117C108.617 44.9961 108.57 46.0625 108.477 46.7109C108.383 47.3594 108.227 47.8789 108.008 48.2695C107.508 49.1367 106.715 49.8086 105.629 50.2852C104.543 50.7617 103.242 51 101.727 51C99.4688 51 97.8047 50.5977 96.7344 49.793C95.6641 48.9961 95.1289 47.75 95.1289 46.0547C95.1289 45.875 95.1289 45.7383 95.1289 45.6445C95.1367 45.5508 95.1445 45.4648 95.1523 45.3867L99.6641 45.668L99.6172 47.7305L103.402 47.7656L103.426 44.0156ZM119.082 35.7656L115.871 36.0703L115.215 41.5898C115.793 41.7852 116.41 41.9297 117.066 42.0234C117.73 42.1172 118.457 42.1641 119.246 42.1641H119.562L119.082 35.7656ZM117.5 32.543C119.492 32.543 121.145 33.2266 122.457 34.5938C123.777 35.9609 124.438 37.7109 124.438 39.8438C124.438 41.5312 123.789 42.9414 122.492 44.0742C121.203 45.207 119.609 45.7734 117.711 45.7734C115.703 45.7734 114.074 45.1367 112.824 43.8633C111.574 42.5898 110.949 40.9219 110.949 38.8594C110.949 36.9297 111.539 35.3945 112.719 34.2539C113.906 33.1133 115.5 32.543 117.5 32.543ZM129.066 45.8438C128.199 45.8438 127.535 45.6172 127.074 45.1641C126.621 44.7188 126.395 44.0703 126.395 43.2188C126.395 42.5859 126.633 42.0781 127.109 41.6953C127.594 41.3047 128.203 41.1094 128.938 41.1094C129.68 41.1094 130.266 41.3125 130.695 41.7188C131.125 42.125 131.34 42.6758 131.34 43.3711C131.34 44.1836 131.148 44.7969 130.766 45.2109C130.383 45.6328 129.816 45.8438 129.066 45.8438ZM127.098 40.1719C127.168 39.2969 127.219 38.4492 127.25 37.6289C127.289 36.8086 127.309 36.0078 127.309 35.2266C127.309 33.8984 127.273 32.543 127.203 31.1602C127.141 29.7773 127.039 28.375 126.898 26.9531L131.633 27.3633L131.363 32.2617C131.098 33.9336 130.883 35.3789 130.719 36.5977C130.562 37.8086 130.457 38.7461 130.402 39.4102L127.098 40.1719Z" fill="#2BABEE"/>
</svg>
