<svg width="77" height="76" viewBox="0 0 77 76" fill="none" xmlns="http://www.w3.org/2000/svg">
<path d="M37.1982 2.58176C7.57818 6.87651 2 16.0921 2 30.7661C2.73317 42.2633 10.9507 47.9452 39.3977 46.8715C74.9564 45.5294 74.5898 30.7661 74.9564 30.7661C75.323 30.7661 74.2233 -2.78667 37.1982 2.58176Z" fill="white" stroke="black" stroke-width="3" stroke-linecap="round"/>
<path d="M28.8569 58.822C28.9409 60.502 29.0109 62.392 29.0669 64.492C29.1229 66.5827 29.1509 68.3467 29.1509 69.784C28.8989 69.784 28.6235 69.7653 28.3249 69.728C28.0355 69.7 27.8162 69.6673 27.6669 69.63C27.6669 69.0233 27.6575 68.258 27.6389 67.334C27.6295 66.41 27.6155 65.43 27.5969 64.394C26.8409 64.4033 26.1549 64.4267 25.5389 64.464C24.9229 64.5013 24.3489 64.5573 23.8169 64.632C23.8262 65.5373 23.8355 66.3353 23.8449 67.026C23.8635 67.7073 23.8869 68.2907 23.9149 68.776C23.7469 68.8227 23.5322 68.86 23.2709 68.888C23.0189 68.916 22.7902 68.9253 22.5849 68.916C22.4729 67.1893 22.3842 65.4953 22.3189 63.834C22.2629 62.1633 22.2349 60.628 22.2349 59.228C22.3469 59.1627 22.4869 59.1113 22.6549 59.074C22.8322 59.0273 23.0189 59.004 23.2149 59.004C23.3455 59.004 23.4715 59.0133 23.5929 59.032C23.7142 59.0413 23.8402 59.0647 23.9709 59.102C23.9242 59.5593 23.8869 60.1567 23.8589 60.894C23.8402 61.6313 23.8262 62.504 23.8169 63.512C24.4235 63.4093 25.0302 63.3347 25.6369 63.288C26.2529 63.232 26.8969 63.1993 27.5689 63.19C27.5315 62.1167 27.4942 61.2207 27.4569 60.502C27.4289 59.774 27.3915 59.186 27.3449 58.738C27.5035 58.6913 27.6389 58.6587 27.7509 58.64C27.8629 58.6213 27.9795 58.612 28.1009 58.612C28.2315 58.612 28.3622 58.6307 28.4929 58.668C28.6329 58.7053 28.7542 58.7567 28.8569 58.822ZM30.4955 65.64C30.4955 64.408 30.7988 63.4 31.4055 62.616C32.0122 61.832 32.7915 61.44 33.7435 61.44C34.5088 61.44 35.1108 61.7107 35.5495 62.252C35.9882 62.784 36.2075 63.5167 36.2075 64.45C36.2075 65.8127 35.9182 66.9373 35.3395 67.824C34.7702 68.7013 34.0048 69.14 33.0435 69.14C32.2595 69.14 31.6388 68.818 31.1815 68.174C30.7242 67.53 30.4955 66.6853 30.4955 65.64ZM34.6955 65.08C34.6955 64.1747 34.5882 63.5073 34.3735 63.078C34.1682 62.6393 33.8508 62.42 33.4215 62.42C33.0202 62.42 32.6748 62.714 32.3855 63.302C32.0962 63.8807 31.9515 64.5947 31.9515 65.444C31.9515 66.2093 32.0728 66.858 32.3155 67.39C32.5675 67.9127 32.9035 68.174 33.3235 68.174C33.6968 68.174 34.0188 67.8707 34.2895 67.264C34.5602 66.648 34.6955 65.92 34.6955 65.08ZM46.3664 63.708C46.3664 64.5573 46.2824 65.528 46.1144 66.62C45.9557 67.7027 45.769 68.622 45.5544 69.378C45.2744 69.3687 45.013 69.3453 44.7704 69.308C44.5277 69.2707 44.3084 69.224 44.1124 69.168C44.3737 68.1227 44.5697 67.1427 44.7004 66.228C44.831 65.304 44.8964 64.4593 44.8964 63.694C44.8964 63.1807 44.8357 62.812 44.7144 62.588C44.593 62.3547 44.397 62.238 44.1264 62.238C43.865 62.238 43.6037 62.3827 43.3424 62.672C43.081 62.9613 42.8477 63.3673 42.6424 63.89C42.6517 63.946 42.6564 64.0113 42.6564 64.086C42.6564 64.1607 42.6564 64.2773 42.6564 64.436C42.6564 65.108 42.6004 65.8733 42.4884 66.732C42.3764 67.5907 42.2504 68.2953 42.1104 68.846C41.933 68.846 41.7277 68.832 41.4944 68.804C41.2704 68.7667 41.0184 68.7153 40.7384 68.65C40.9157 67.6887 41.0417 66.8813 41.1164 66.228C41.191 65.5747 41.2284 64.9913 41.2284 64.478C41.2284 63.9647 41.1677 63.596 41.0464 63.372C40.925 63.1387 40.729 63.022 40.4584 63.022C40.169 63.022 39.8844 63.162 39.6044 63.442C39.3244 63.7127 39.091 64.0907 38.9044 64.576C38.895 65.276 38.8857 65.78 38.8764 66.088C38.8764 66.3867 38.8764 66.6527 38.8764 66.886C38.8764 67.3153 38.881 67.7447 38.8904 68.174C38.909 68.594 38.9277 68.9113 38.9464 69.126C38.797 69.1727 38.601 69.2147 38.3584 69.252C38.125 69.2893 37.9057 69.308 37.7004 69.308C37.607 68.132 37.523 66.802 37.4484 65.318C37.383 63.8247 37.3504 62.5927 37.3504 61.622C37.481 61.5567 37.6397 61.5053 37.8264 61.468C38.0224 61.4307 38.2184 61.412 38.4144 61.412C38.545 61.412 38.6617 61.4167 38.7644 61.426C38.867 61.4353 38.9744 61.454 39.0864 61.482C39.0584 61.6967 39.035 61.9487 39.0164 62.238C38.9977 62.518 38.979 62.8307 38.9604 63.176C39.2404 62.728 39.5577 62.392 39.9124 62.168C40.267 61.9347 40.645 61.818 41.0464 61.818C41.3824 61.818 41.6624 61.8973 41.8864 62.056C42.1104 62.2053 42.283 62.434 42.4044 62.742C42.7217 62.1727 43.0717 61.748 43.4544 61.468C43.8464 61.1787 44.271 61.034 44.7284 61.034C45.2884 61.034 45.699 61.2533 45.9604 61.692C46.231 62.1213 46.3664 62.7933 46.3664 63.708ZM49.238 64.506C49.4713 64.59 49.7233 64.6553 49.994 64.702C50.2647 64.7393 50.5353 64.758 50.806 64.758C50.89 64.758 50.9927 64.7533 51.114 64.744C51.2353 64.7253 51.324 64.7113 51.38 64.702C51.4453 64.45 51.492 64.2167 51.52 64.002C51.5573 63.778 51.576 63.5727 51.576 63.386C51.576 63.022 51.5153 62.7653 51.394 62.616C51.282 62.4573 51.1 62.378 50.848 62.378C50.512 62.378 50.1993 62.574 49.91 62.966C49.6207 63.358 49.3967 63.8713 49.238 64.506ZM52.024 66.55C52.22 66.5873 52.4207 66.662 52.626 66.774C52.8313 66.8767 53.004 67.0027 53.144 67.152C52.976 67.6747 52.6027 68.146 52.024 68.566C51.4547 68.9767 50.8387 69.182 50.176 69.182C49.364 69.182 48.7293 68.8927 48.272 68.314C47.8147 67.7353 47.586 66.9513 47.586 65.962C47.586 64.8047 47.9173 63.7687 48.58 62.854C49.252 61.93 50.0453 61.468 50.96 61.468C51.5667 61.468 52.0473 61.65 52.402 62.014C52.7567 62.378 52.934 62.8633 52.934 63.47C52.934 63.7873 52.9013 64.114 52.836 64.45C52.78 64.786 52.7007 65.0847 52.598 65.346C52.3833 65.43 52.122 65.4953 51.814 65.542C51.5153 65.5793 51.1513 65.598 50.722 65.598C50.4607 65.598 50.19 65.5793 49.91 65.542C49.63 65.4953 49.3547 65.43 49.084 65.346C49.0747 65.5327 49.0653 65.6633 49.056 65.738C49.056 65.8127 49.056 65.8827 49.056 65.948C49.056 66.6387 49.1727 67.194 49.406 67.614C49.6393 68.034 49.952 68.244 50.344 68.244C50.6613 68.244 50.988 68.076 51.324 67.74C51.66 67.3947 51.8933 66.998 52.024 66.55Z" fill="black"/>
<path d="M34 12C34.3333 15.9296 35 20.7465 35 26.4507C35 31.7746 34.6667 35.7042 34.5 39" stroke="black" stroke-width="3" stroke-linecap="round"/>
<path d="M31 15.0698C36.4643 14.6715 47.3129 15.7867 46.9931 23.4337C46.5933 32.9924 39.2773 37.3734 32.0804 36.9751" stroke="black" stroke-width="3" stroke-linecap="round"/>
</svg>
