<svg width="75" height="76" viewBox="0 0 75 76" fill="none" xmlns="http://www.w3.org/2000/svg">
<path d="M36.2339 2.58176C7.42535 6.87652 2 16.0921 2 30.7661C2.71308 42.2633 10.7054 47.9452 38.3731 46.8715C72.9576 45.5294 72.601 30.7661 72.9576 30.7661C73.3141 30.7661 72.2446 -2.78667 36.2339 2.58176Z" fill="white" stroke="black" stroke-width="3" stroke-linecap="round"/>
<path d="M29.0418 62.798C29.0418 64.1887 28.5471 65.472 27.5578 66.648C26.5778 67.8147 25.2898 68.6453 23.6938 69.14C23.5538 69.14 23.3345 69.126 23.0358 69.098C22.7465 69.07 22.5365 69.042 22.4058 69.014C22.3031 67.5113 22.2285 66.2093 22.1818 65.108C22.1445 63.9973 22.1258 62.924 22.1258 61.888C22.1258 61.5147 22.1305 61.1273 22.1398 60.726C22.1491 60.3153 22.1585 59.942 22.1678 59.606C22.6345 59.382 23.0918 59.2187 23.5398 59.116C23.9971 59.0133 24.4778 58.962 24.9818 58.962C26.3071 58.962 27.3151 59.2933 28.0058 59.956C28.6965 60.6093 29.0418 61.5567 29.0418 62.798ZM23.7778 60.138C23.7125 61.062 23.6658 61.9253 23.6378 62.728C23.6191 63.5307 23.6098 64.5947 23.6098 65.92C23.6098 66.2093 23.6098 66.5033 23.6098 66.802C23.6191 67.1007 23.6285 67.5113 23.6378 68.034C24.8978 67.5393 25.8545 66.8487 26.5078 65.962C27.1611 65.066 27.4878 64.0067 27.4878 62.784C27.4878 61.8787 27.2545 61.1833 26.7878 60.698C26.3211 60.2127 25.6491 59.97 24.7718 59.97C24.6225 59.97 24.4685 59.984 24.3098 60.012C24.1511 60.04 23.9738 60.082 23.7778 60.138ZM32.399 69.14C31.643 69.14 31.069 68.8087 30.677 68.146C30.2943 67.4833 30.103 66.5173 30.103 65.248C30.103 64.604 30.159 63.9413 30.271 63.26C30.3923 62.5693 30.5276 62.0793 30.677 61.79C30.7796 61.7527 30.8916 61.7247 31.013 61.706C31.1343 61.6873 31.251 61.678 31.363 61.678C31.4843 61.678 31.5963 61.692 31.699 61.72C31.811 61.7387 31.9043 61.7667 31.979 61.804C31.8483 62.2893 31.7503 62.812 31.685 63.372C31.6196 63.9227 31.587 64.5107 31.587 65.136C31.587 66.032 31.6756 66.76 31.853 67.32C32.0396 67.8707 32.2963 68.146 32.623 68.146C32.9963 68.146 33.281 67.8287 33.477 67.194C33.673 66.5593 33.771 65.6633 33.771 64.506C33.771 64.1233 33.7523 63.7267 33.715 63.316C33.6776 62.896 33.6403 62.602 33.603 62.434C33.7896 62.35 34.023 62.2847 34.303 62.238C34.5923 62.1913 34.863 62.168 35.115 62.168C35.1616 62.364 35.1943 62.616 35.213 62.924C35.241 63.2227 35.255 63.5493 35.255 63.904C35.255 65.612 35.0123 66.914 34.527 67.81C34.051 68.6967 33.3416 69.14 32.399 69.14ZM41.728 69.434C41.5693 69.4807 41.3827 69.518 41.168 69.546C40.9533 69.574 40.7667 69.588 40.608 69.588C40.58 69.308 40.552 69.0233 40.524 68.734C40.496 68.4353 40.4727 68.1413 40.454 67.852C40.2673 68.384 40.0247 68.776 39.726 69.028C39.4367 69.2893 39.0727 69.42 38.634 69.42C37.8873 69.42 37.2993 69.0933 36.87 68.44C36.45 67.7773 36.24 66.8953 36.24 65.794C36.24 64.534 36.5293 63.5307 37.108 62.784C37.696 62.028 38.4847 61.65 39.474 61.65C39.5953 61.65 39.7167 61.6593 39.838 61.678C39.9687 61.6873 40.09 61.706 40.202 61.734C40.1927 60.922 40.1833 60.3387 40.174 59.984C40.174 59.6293 40.174 59.312 40.174 59.032C40.2953 58.976 40.4493 58.9293 40.636 58.892C40.832 58.8453 41.0233 58.822 41.21 58.822C41.3127 58.822 41.4153 58.8313 41.518 58.85C41.63 58.8593 41.7467 58.878 41.868 58.906C41.8027 59.5313 41.756 60.46 41.728 61.692C41.7 62.9147 41.686 64.8047 41.686 67.362C41.686 67.7447 41.686 68.0853 41.686 68.384C41.6953 68.6827 41.7093 69.0327 41.728 69.434ZM37.696 65.598C37.696 66.466 37.808 67.1427 38.032 67.628C38.256 68.104 38.564 68.342 38.956 68.342C39.3107 68.342 39.6047 68.132 39.838 67.712C40.0807 67.2827 40.2487 66.6667 40.342 65.864C40.314 65.3787 40.2907 64.8653 40.272 64.324C40.2533 63.7827 40.2347 63.2273 40.216 62.658C40.132 62.63 40.0387 62.6113 39.936 62.602C39.8333 62.5927 39.726 62.588 39.614 62.588C39.0353 62.588 38.5687 62.854 38.214 63.386C37.8687 63.918 37.696 64.6553 37.696 65.598ZM44.6726 64.506C44.9059 64.59 45.1579 64.6553 45.4286 64.702C45.6993 64.7393 45.9699 64.758 46.2406 64.758C46.3246 64.758 46.4273 64.7533 46.5486 64.744C46.6699 64.7253 46.7586 64.7113 46.8146 64.702C46.8799 64.45 46.9266 64.2167 46.9546 64.002C46.9919 63.778 47.0106 63.5727 47.0106 63.386C47.0106 63.022 46.9499 62.7653 46.8286 62.616C46.7166 62.4573 46.5346 62.378 46.2826 62.378C45.9466 62.378 45.6339 62.574 45.3446 62.966C45.0553 63.358 44.8313 63.8713 44.6726 64.506ZM47.4586 66.55C47.6546 66.5873 47.8553 66.662 48.0606 66.774C48.2659 66.8767 48.4386 67.0027 48.5786 67.152C48.4106 67.6747 48.0373 68.146 47.4586 68.566C46.8893 68.9767 46.2733 69.182 45.6106 69.182C44.7986 69.182 44.1639 68.8927 43.7066 68.314C43.2493 67.7353 43.0206 66.9513 43.0206 65.962C43.0206 64.8047 43.3519 63.7687 44.0146 62.854C44.6866 61.93 45.4799 61.468 46.3946 61.468C47.0013 61.468 47.4819 61.65 47.8366 62.014C48.1913 62.378 48.3686 62.8633 48.3686 63.47C48.3686 63.7873 48.3359 64.114 48.2706 64.45C48.2146 64.786 48.1353 65.0847 48.0326 65.346C47.8179 65.43 47.5566 65.4953 47.2486 65.542C46.9499 65.5793 46.5859 65.598 46.1566 65.598C45.8953 65.598 45.6246 65.5793 45.3446 65.542C45.0646 65.4953 44.7893 65.43 44.5186 65.346C44.5093 65.5327 44.4999 65.6633 44.4906 65.738C44.4906 65.8127 44.4906 65.8827 44.4906 65.948C44.4906 66.6387 44.6073 67.194 44.8406 67.614C45.0739 68.034 45.3866 68.244 45.7786 68.244C46.0959 68.244 46.4226 68.076 46.7586 67.74C47.0946 67.3947 47.3279 66.998 47.4586 66.55ZM52.4557 64.828C53.165 65.3227 53.6317 65.7473 53.8557 66.102C54.0797 66.4473 54.1917 66.8347 54.1917 67.264C54.1917 67.9267 53.9584 68.4773 53.4917 68.916C53.025 69.3547 52.437 69.574 51.7277 69.574C51.0277 69.574 50.4537 69.336 50.0057 68.86C49.567 68.3747 49.3477 67.7587 49.3477 67.012C49.497 66.9467 49.6744 66.9 49.8797 66.872C50.085 66.8347 50.2764 66.8207 50.4537 66.83C50.435 67.4087 50.5377 67.866 50.7617 68.202C50.995 68.5287 51.317 68.692 51.7277 68.692C52.045 68.692 52.2924 68.594 52.4697 68.398C52.6564 68.1927 52.7497 67.9173 52.7497 67.572C52.7497 67.2827 52.661 67.012 52.4837 66.76C52.3157 66.508 51.9377 66.1767 51.3497 65.766C50.6404 65.262 50.1737 64.828 49.9497 64.464C49.7257 64.1 49.6137 63.694 49.6137 63.246C49.6137 62.6207 49.8144 62.1167 50.2157 61.734C50.6264 61.3513 51.1724 61.16 51.8537 61.16C52.507 61.16 53.025 61.3373 53.4077 61.692C53.7904 62.0373 54.047 62.574 54.1777 63.302C54.019 63.3953 53.8417 63.4653 53.6457 63.512C53.459 63.5587 53.235 63.596 52.9737 63.624C52.8897 63.092 52.759 62.7093 52.5817 62.476C52.4044 62.2333 52.1617 62.112 51.8537 62.112C51.611 62.112 51.415 62.196 51.2657 62.364C51.1164 62.5227 51.0417 62.742 51.0417 63.022C51.0417 63.3113 51.1304 63.582 51.3077 63.834C51.485 64.086 51.8677 64.4173 52.4557 64.828Z" fill="black"/>
<path d="M48.4992 30.04C48.5213 29.4881 48.0918 29.0229 47.54 29.0008L38.5472 28.6411C37.9953 28.619 37.5301 29.0485 37.508 29.6003C37.4859 30.1522 37.9154 30.6174 38.4672 30.6395L46.4608 30.9592L46.1411 38.9528C46.119 39.5047 46.5485 39.9699 47.1003 39.992C47.6522 40.0141 48.1174 39.5846 48.1395 39.0328L48.4992 30.04ZM21.7929 28.2071C23.0796 29.4938 25.2764 31.4349 27.7219 33.1122C30.1301 34.7639 32.9366 36.2711 35.4095 36.4959L35.5905 34.5041C33.6634 34.3289 31.2199 33.0861 28.8531 31.4628C26.5236 29.8651 24.4204 28.0062 23.2071 26.7929L21.7929 28.2071ZM35.4095 36.4959C37.9045 36.7227 40.576 35.7359 42.8121 34.5302C45.0739 33.3106 47.0413 31.7843 48.1783 30.7348L46.8217 29.2652C45.792 30.2157 43.9594 31.6394 41.8629 32.7698C39.7407 33.9141 37.4955 34.6773 35.5905 34.5041L35.4095 36.4959Z" fill="black"/>
<path d="M25.0019 21.4477C24.9681 21.9989 25.3875 22.4732 25.9388 22.507L34.9219 23.058C35.4731 23.0918 35.9474 22.6724 35.9812 22.1211C36.0151 21.5699 35.5956 21.0956 35.0443 21.0618L27.0593 20.572L27.5491 12.587C27.5829 12.0357 27.1635 11.5615 26.6122 11.5277C26.061 11.4938 25.5867 11.9133 25.5529 12.4646L25.0019 21.4477ZM52.6918 23.2779C51.3543 21.9964 49.071 20.0635 46.5302 18.3938C44.0243 16.7471 41.1175 15.2544 38.5668 15.0322L38.3932 17.0247C40.4185 17.2011 42.9717 18.4486 45.4318 20.0652C47.857 21.6589 50.0457 23.5125 51.3082 24.7221L52.6918 23.2779ZM38.5668 15.0322C35.9963 14.8083 33.2341 15.7828 30.91 16.9834C28.5622 18.1964 26.5187 19.7152 25.3375 20.7598L26.6625 22.258C27.7346 21.3097 29.6432 19.889 31.828 18.7603C34.0366 17.6193 36.3877 16.85 38.3932 17.0247L38.5668 15.0322Z" fill="black"/>
</svg>
