<svg width="77" height="76" viewBox="0 0 77 76" fill="none" xmlns="http://www.w3.org/2000/svg">
<path d="M37.1982 2.58176C7.57818 6.87652 2 16.0921 2 30.7661C2.73317 42.2633 10.9507 47.9452 39.3977 46.8715C74.9564 45.5294 74.5898 30.7661 74.9564 30.7661C75.323 30.7661 74.2233 -2.78667 37.1982 2.58176Z" fill="white" stroke="black" stroke-width="3" stroke-linecap="round"/>
<path d="M21.6635 65.822C21.6729 66.4473 21.6915 67.082 21.7195 67.726C21.7569 68.3607 21.8082 69.1027 21.8735 69.952C21.6775 69.9613 21.4489 69.9567 21.1875 69.938C20.9355 69.9193 20.7349 69.896 20.5855 69.868C20.4362 68.2533 20.3335 66.8393 20.2775 65.626C20.2215 64.4127 20.1935 63.0267 20.1935 61.468C20.1935 61.132 20.2029 60.74 20.2215 60.292C20.2402 59.8347 20.2635 59.4333 20.2915 59.088C20.7489 58.9293 21.2202 58.8127 21.7055 58.738C22.1909 58.654 22.6669 58.612 23.1335 58.612C24.2722 58.612 25.1495 58.8547 25.7655 59.34C26.3909 59.816 26.7035 60.4833 26.7035 61.342C26.7035 62.3313 26.2789 63.204 25.4295 63.96C24.5895 64.7067 23.3342 65.3273 21.6635 65.822ZM21.8875 59.732C21.8129 60.516 21.7569 61.3 21.7195 62.084C21.6822 62.8587 21.6635 63.722 21.6635 64.674C21.6635 64.6833 21.6635 64.6973 21.6635 64.716C21.6635 64.7253 21.6635 64.7393 21.6635 64.758C22.8115 64.4593 23.6795 64.044 24.2675 63.512C24.8555 62.9707 25.1495 62.322 25.1495 61.566C25.1495 60.9313 24.9629 60.4413 24.5895 60.096C24.2162 59.7507 23.6795 59.578 22.9795 59.578C22.7929 59.578 22.6062 59.592 22.4195 59.62C22.2329 59.648 22.0555 59.6853 21.8875 59.732ZM29.2182 65.556C29.2462 66.0693 29.2928 66.6153 29.3582 67.194C29.4235 67.7633 29.5075 68.3747 29.6102 69.028C29.4795 69.0747 29.3395 69.1073 29.1902 69.126C29.0502 69.1447 28.9055 69.1493 28.7562 69.14C28.6628 69.14 28.5788 69.1353 28.5042 69.126C28.4295 69.1167 28.3502 69.098 28.2662 69.07C28.0328 67.894 27.8695 66.6433 27.7762 65.318C27.6922 63.9833 27.6875 62.7 27.7622 61.468C27.8742 61.4307 28.0002 61.4027 28.1402 61.384C28.2802 61.3653 28.4342 61.356 28.6022 61.356C28.7235 61.356 28.8495 61.3653 28.9802 61.384C29.1108 61.4027 29.2508 61.4353 29.4002 61.482C29.3628 61.734 29.3255 61.9953 29.2882 62.266C29.2602 62.5273 29.2368 62.812 29.2182 63.12C29.4328 62.4573 29.7175 61.93 30.0722 61.538C30.4268 61.146 30.7908 60.95 31.1642 60.95C31.5748 60.95 31.8828 61.1087 32.0882 61.426C32.3028 61.734 32.4102 62.196 32.4102 62.812C32.4102 62.9147 32.4055 63.0267 32.3962 63.148C32.3868 63.2693 32.3775 63.3907 32.3682 63.512C32.2282 63.568 32.0508 63.6053 31.8362 63.624C31.6308 63.6427 31.3835 63.6473 31.0942 63.638C31.1128 63.5073 31.1268 63.386 31.1362 63.274C31.1455 63.162 31.1502 63.05 31.1502 62.938C31.1502 62.658 31.1128 62.448 31.0382 62.308C30.9728 62.1587 30.8702 62.084 30.7302 62.084C30.4315 62.084 30.1422 62.4013 29.8622 63.036C29.5915 63.6613 29.3768 64.5013 29.2182 65.556ZM32.8822 65.64C32.8822 64.408 33.1856 63.4 33.7922 62.616C34.3989 61.832 35.1782 61.44 36.1302 61.44C36.8956 61.44 37.4976 61.7107 37.9362 62.252C38.3749 62.784 38.5942 63.5167 38.5942 64.45C38.5942 65.8127 38.3049 66.9373 37.7262 67.824C37.1569 68.7013 36.3916 69.14 35.4302 69.14C34.6462 69.14 34.0256 68.818 33.5682 68.174C33.1109 67.53 32.8822 66.6853 32.8822 65.64ZM37.0822 65.08C37.0822 64.1747 36.9749 63.5073 36.7602 63.078C36.5549 62.6393 36.2376 62.42 35.8082 62.42C35.4069 62.42 35.0616 62.714 34.7722 63.302C34.4829 63.8807 34.3382 64.5947 34.3382 65.444C34.3382 66.2093 34.4596 66.858 34.7022 67.39C34.9542 67.9127 35.2902 68.174 35.7102 68.174C36.0836 68.174 36.4056 67.8707 36.6762 67.264C36.9469 66.648 37.0822 65.92 37.0822 65.08ZM41.7671 63.736C41.8044 64.66 41.8884 65.6027 42.0191 66.564C42.1498 67.5253 42.2991 68.3467 42.4671 69.028C42.2431 69.1027 41.9864 69.1633 41.6971 69.21C41.4171 69.266 41.1604 69.294 40.9271 69.294C40.8058 68.7433 40.6844 67.8893 40.5631 66.732C40.4511 65.5653 40.3904 64.5107 40.3811 63.568C40.1944 63.54 40.0218 63.5073 39.8631 63.47C39.7044 63.4233 39.5738 63.3813 39.4711 63.344C39.4711 63.2227 39.4851 63.078 39.5131 62.91C39.5504 62.7327 39.5878 62.6253 39.6251 62.588C39.7184 62.5973 39.8258 62.6113 39.9471 62.63C40.0778 62.6393 40.2271 62.6533 40.3951 62.672C40.4511 61.384 40.6751 60.4227 41.0671 59.788C41.4591 59.144 42.0144 58.822 42.7331 58.822C43.2651 58.822 43.6851 58.99 43.9931 59.326C44.3104 59.662 44.4691 60.1007 44.4691 60.642C44.4691 60.782 44.4551 60.9313 44.4271 61.09C44.3991 61.2393 44.3618 61.3607 44.3151 61.454C44.1191 61.454 43.9231 61.44 43.7271 61.412C43.5404 61.3747 43.3584 61.328 43.1811 61.272C43.2184 61.132 43.2464 61.006 43.2651 60.894C43.2838 60.782 43.2931 60.6747 43.2931 60.572C43.2931 60.3293 43.2418 60.138 43.1391 59.998C43.0364 59.858 42.8964 59.788 42.7191 59.788C42.4018 59.788 42.1591 60.04 41.9911 60.544C41.8231 61.048 41.7391 61.776 41.7391 62.728V62.756C42.0378 62.7653 42.2618 62.7747 42.4111 62.784C42.5604 62.784 42.6958 62.784 42.8171 62.784C43.0224 62.784 43.2278 62.7793 43.4331 62.77C43.6384 62.7513 43.8298 62.728 44.0071 62.7C44.0071 62.8307 43.9978 62.9893 43.9791 63.176C43.9604 63.3533 43.9371 63.526 43.9091 63.694C43.8064 63.722 43.6711 63.7453 43.5031 63.764C43.3351 63.7733 43.1158 63.778 42.8451 63.778C42.6584 63.778 42.4718 63.7733 42.2851 63.764C42.1078 63.7547 41.9351 63.7453 41.7671 63.736ZM46.3253 58.584C46.484 58.584 46.6286 58.598 46.7593 58.626C46.89 58.654 47.0113 58.7007 47.1233 58.766C47.03 58.99 46.932 59.256 46.8293 59.564C46.736 59.8627 46.666 60.138 46.6193 60.39C46.4793 60.418 46.3066 60.4367 46.1013 60.446C45.896 60.4553 45.6533 60.4553 45.3733 60.446C45.3453 60.334 45.3266 60.2267 45.3173 60.124C45.308 60.0213 45.3033 59.9187 45.3033 59.816C45.3033 59.6293 45.3173 59.438 45.3453 59.242C45.3826 59.0367 45.4293 58.8687 45.4853 58.738C45.6066 58.6727 45.7326 58.6307 45.8633 58.612C45.994 58.584 46.148 58.5747 46.3253 58.584ZM45.0373 62C45.1773 61.9253 45.336 61.8693 45.5133 61.832C45.6906 61.7853 45.8726 61.762 46.0593 61.762C46.1526 61.762 46.246 61.7667 46.3393 61.776C46.4326 61.7853 46.5213 61.7993 46.6053 61.818C46.4093 62.714 46.2646 63.8247 46.1713 65.15C46.078 66.466 46.0546 67.7447 46.1013 68.986C45.9986 69.0327 45.8726 69.07 45.7233 69.098C45.574 69.126 45.4246 69.14 45.2753 69.14C45.2006 69.14 45.1306 69.1353 45.0653 69.126C45.0093 69.126 44.958 69.1167 44.9113 69.098C44.762 67.9033 44.6966 66.676 44.7153 65.416C44.7433 64.156 44.8506 63.0173 45.0373 62ZM49.5535 69.7C49.4228 69.7373 49.2222 69.77 48.9515 69.798C48.6808 69.8353 48.4475 69.854 48.2515 69.854C48.1022 67.8193 48.0088 65.906 47.9715 64.114C47.9342 62.322 47.9528 60.572 48.0275 58.864C48.1582 58.7893 48.3075 58.7287 48.4755 58.682C48.6435 58.6353 48.8068 58.612 48.9655 58.612C49.0962 58.612 49.2222 58.6213 49.3435 58.64C49.4648 58.6493 49.5862 58.6727 49.7075 58.71C49.5675 60.082 49.4835 61.7947 49.4555 63.848C49.4275 65.9013 49.4602 67.852 49.5535 69.7ZM52.3493 64.506C52.5827 64.59 52.8347 64.6553 53.1053 64.702C53.376 64.7393 53.6467 64.758 53.9173 64.758C54.0013 64.758 54.104 64.7533 54.2253 64.744C54.3467 64.7253 54.4353 64.7113 54.4913 64.702C54.5567 64.45 54.6033 64.2167 54.6313 64.002C54.6687 63.778 54.6873 63.5727 54.6873 63.386C54.6873 63.022 54.6267 62.7653 54.5053 62.616C54.3933 62.4573 54.2113 62.378 53.9593 62.378C53.6233 62.378 53.3107 62.574 53.0213 62.966C52.732 63.358 52.508 63.8713 52.3493 64.506ZM55.1353 66.55C55.3313 66.5873 55.532 66.662 55.7373 66.774C55.9427 66.8767 56.1153 67.0027 56.2553 67.152C56.0873 67.6747 55.714 68.146 55.1353 68.566C54.566 68.9767 53.95 69.182 53.2873 69.182C52.4753 69.182 51.8407 68.8927 51.3833 68.314C50.926 67.7353 50.6973 66.9513 50.6973 65.962C50.6973 64.8047 51.0287 63.7687 51.6913 62.854C52.3633 61.93 53.1567 61.468 54.0713 61.468C54.678 61.468 55.1587 61.65 55.5133 62.014C55.868 62.378 56.0453 62.8633 56.0453 63.47C56.0453 63.7873 56.0127 64.114 55.9473 64.45C55.8913 64.786 55.812 65.0847 55.7093 65.346C55.4947 65.43 55.2333 65.4953 54.9253 65.542C54.6267 65.5793 54.2627 65.598 53.8333 65.598C53.572 65.598 53.3013 65.5793 53.0213 65.542C52.7413 65.4953 52.466 65.43 52.1953 65.346C52.186 65.5327 52.1767 65.6633 52.1673 65.738C52.1673 65.8127 52.1673 65.8827 52.1673 65.948C52.1673 66.6387 52.284 67.194 52.5173 67.614C52.7507 68.034 53.0633 68.244 53.4553 68.244C53.7727 68.244 54.0993 68.076 54.4353 67.74C54.7713 67.3947 55.0047 66.998 55.1353 66.55Z" fill="black"/>
<path d="M42.596 11C46.0989 12.3596 54.4335 17.118 53.9824 28.5904C53.7278 35.0643 45.9576 38.4632 37.6228 38.8741C31.4221 39.1797 17.8705 33.4539 23.2263 23.0427C28.5821 12.6315 34.0914 12.7674 41.6799 13.0297" stroke="black" stroke-width="2.84444" stroke-linecap="round"/>
<path d="M29.5891 27.8711C30.4656 29.3968 32.1144 31.1803 34.2975 31.2418C37.8456 31.3417 40.0628 29.1895 41.1221 28.528" stroke="black" stroke-width="2.84444" stroke-linecap="round"/>
<ellipse cx="29.5429" cy="20.8304" rx="1.6" ry="1.14286" fill="black"/>
<ellipse cx="40.5143" cy="20.8304" rx="1.6" ry="1.14286" fill="black"/>
</svg>
