<svg width="72" height="76" viewBox="0 0 72 76" fill="none" xmlns="http://www.w3.org/2000/svg">
<path d="M6.82286 68.804C6.86019 68.9533 6.89286 69.1493 6.92086 69.392C6.95819 69.644 6.97686 69.8493 6.97686 70.008C6.07153 70.0173 5.23619 70.05 4.47086 70.106C3.70553 70.162 2.82819 70.26 1.83886 70.4C1.58686 68.6547 1.39553 66.8347 1.26486 64.94C1.14353 63.036 1.10153 61.3047 1.13886 59.746C1.36286 59.6807 1.57286 59.634 1.76886 59.606C1.97419 59.578 2.18419 59.564 2.39886 59.564C2.46419 59.564 2.53419 59.5687 2.60886 59.578C2.68353 59.578 2.76286 59.5827 2.84686 59.592C2.79086 60.1053 2.74886 60.684 2.72086 61.328C2.70219 61.9627 2.69286 62.742 2.69286 63.666C2.71153 64.9073 2.74886 65.9433 2.80486 66.774C2.87019 67.5953 2.95886 68.3887 3.07086 69.154C3.68686 69.042 4.32153 68.958 4.97486 68.902C5.62819 68.8367 6.24419 68.804 6.82286 68.804ZM8.99778 64.506C9.23111 64.59 9.48311 64.6553 9.75378 64.702C10.0244 64.7393 10.2951 64.758 10.5658 64.758C10.6498 64.758 10.7524 64.7533 10.8738 64.744C10.9951 64.7253 11.0838 64.7113 11.1398 64.702C11.2051 64.45 11.2518 64.2167 11.2798 64.002C11.3171 63.778 11.3358 63.5727 11.3358 63.386C11.3358 63.022 11.2751 62.7653 11.1538 62.616C11.0418 62.4573 10.8598 62.378 10.6078 62.378C10.2718 62.378 9.95911 62.574 9.66978 62.966C9.38045 63.358 9.15645 63.8713 8.99778 64.506ZM11.7838 66.55C11.9798 66.5873 12.1804 66.662 12.3858 66.774C12.5911 66.8767 12.7638 67.0027 12.9038 67.152C12.7358 67.6747 12.3624 68.146 11.7838 68.566C11.2144 68.9767 10.5984 69.182 9.93578 69.182C9.12378 69.182 8.48911 68.8927 8.03178 68.314C7.57445 67.7353 7.34578 66.9513 7.34578 65.962C7.34578 64.8047 7.67711 63.7687 8.33978 62.854C9.01178 61.93 9.80511 61.468 10.7198 61.468C11.3264 61.468 11.8071 61.65 12.1618 62.014C12.5164 62.378 12.6938 62.8633 12.6938 63.47C12.6938 63.7873 12.6611 64.114 12.5958 64.45C12.5398 64.786 12.4604 65.0847 12.3578 65.346C12.1431 65.43 11.8818 65.4953 11.5738 65.542C11.2751 65.5793 10.9111 65.598 10.4818 65.598C10.2204 65.598 9.94978 65.5793 9.66978 65.542C9.38978 65.4953 9.11445 65.43 8.84378 65.346C8.83445 65.5327 8.82511 65.6633 8.81578 65.738C8.81578 65.8127 8.81578 65.8827 8.81578 65.948C8.81578 66.6387 8.93245 67.194 9.16578 67.614C9.39911 68.034 9.71178 68.244 10.1038 68.244C10.4211 68.244 10.7478 68.076 11.0838 67.74C11.4198 67.3947 11.6531 66.998 11.7838 66.55ZM19.3009 64.17C19.3009 64.7953 19.2169 65.626 19.0489 66.662C18.8809 67.6887 18.6802 68.6313 18.4469 69.49C18.2602 69.49 18.0642 69.4713 17.8589 69.434C17.6536 69.406 17.4529 69.364 17.2569 69.308C17.2849 69.1493 17.3129 69.0047 17.3409 68.874C17.3689 68.7433 17.3969 68.6267 17.4249 68.524C17.2196 68.6547 16.9956 68.7527 16.7529 68.818C16.5102 68.8833 16.2536 68.916 15.9829 68.916C15.3109 68.916 14.7696 68.7433 14.3589 68.398C13.9482 68.0433 13.7429 67.572 13.7429 66.984C13.7429 66.3587 14.0042 65.8873 14.5269 65.57C15.0496 65.2527 15.8196 65.094 16.8369 65.094C17.0049 65.094 17.1589 65.0987 17.2989 65.108C17.4482 65.108 17.6302 65.1127 17.8449 65.122C17.8449 65.0193 17.8449 64.9213 17.8449 64.828C17.8449 64.7253 17.8449 64.6273 17.8449 64.534C17.8449 63.75 17.7609 63.1853 17.5929 62.84C17.4249 62.4947 17.1542 62.322 16.7809 62.322C16.3982 62.322 16.0762 62.4993 15.8149 62.854C15.5629 63.2087 15.4276 63.666 15.4089 64.226C15.0729 64.198 14.7976 64.1233 14.5829 64.002C14.3682 63.8807 14.2096 63.7173 14.1069 63.512C14.2282 62.924 14.5549 62.4247 15.0869 62.014C15.6282 61.6033 16.2442 61.398 16.9349 61.398C17.7189 61.398 18.3069 61.6313 18.6989 62.098C19.1002 62.5647 19.3009 63.2553 19.3009 64.17ZM15.2409 67.054C15.2409 67.362 15.3389 67.6093 15.5349 67.796C15.7309 67.9827 15.9969 68.076 16.3329 68.076C16.5662 68.076 16.7856 68.0433 16.9909 67.978C17.2056 67.9033 17.4016 67.8007 17.5789 67.67C17.6442 67.3247 17.6956 67.0073 17.7329 66.718C17.7702 66.4287 17.7936 66.1347 17.8029 65.836C16.9442 65.808 16.3002 65.8967 15.8709 66.102C15.4509 66.298 15.2409 66.6153 15.2409 67.054ZM25.9731 69.434C25.8144 69.4807 25.6278 69.518 25.4131 69.546C25.1984 69.574 25.0118 69.588 24.8531 69.588C24.8251 69.308 24.7971 69.0233 24.7691 68.734C24.7411 68.4353 24.7178 68.1413 24.6991 67.852C24.5124 68.384 24.2698 68.776 23.9711 69.028C23.6818 69.2893 23.3178 69.42 22.8791 69.42C22.1324 69.42 21.5444 69.0933 21.1151 68.44C20.6951 67.7773 20.4851 66.8953 20.4851 65.794C20.4851 64.534 20.7744 63.5307 21.3531 62.784C21.9411 62.028 22.7298 61.65 23.7191 61.65C23.8404 61.65 23.9618 61.6593 24.0831 61.678C24.2138 61.6873 24.3351 61.706 24.4471 61.734C24.4378 60.922 24.4284 60.3387 24.4191 59.984C24.4191 59.6293 24.4191 59.312 24.4191 59.032C24.5404 58.976 24.6944 58.9293 24.8811 58.892C25.0771 58.8453 25.2684 58.822 25.4551 58.822C25.5578 58.822 25.6604 58.8313 25.7631 58.85C25.8751 58.8593 25.9918 58.878 26.1131 58.906C26.0478 59.5313 26.0011 60.46 25.9731 61.692C25.9451 62.9147 25.9311 64.8047 25.9311 67.362C25.9311 67.7447 25.9311 68.0853 25.9311 68.384C25.9404 68.6827 25.9544 69.0327 25.9731 69.434ZM21.9411 65.598C21.9411 66.466 22.0531 67.1427 22.2771 67.628C22.5011 68.104 22.8091 68.342 23.2011 68.342C23.5558 68.342 23.8498 68.132 24.0831 67.712C24.3258 67.2827 24.4938 66.6667 24.5871 65.864C24.5591 65.3787 24.5358 64.8653 24.5171 64.324C24.4984 63.7827 24.4798 63.2273 24.4611 62.658C24.3771 62.63 24.2838 62.6113 24.1811 62.602C24.0784 62.5927 23.9711 62.588 23.8591 62.588C23.2804 62.588 22.8138 62.854 22.4591 63.386C22.1138 63.918 21.9411 64.6553 21.9411 65.598ZM28.9177 64.506C29.151 64.59 29.403 64.6553 29.6737 64.702C29.9444 64.7393 30.215 64.758 30.4857 64.758C30.5697 64.758 30.6724 64.7533 30.7937 64.744C30.915 64.7253 31.0037 64.7113 31.0597 64.702C31.125 64.45 31.1717 64.2167 31.1997 64.002C31.237 63.778 31.2557 63.5727 31.2557 63.386C31.2557 63.022 31.195 62.7653 31.0737 62.616C30.9617 62.4573 30.7797 62.378 30.5277 62.378C30.1917 62.378 29.879 62.574 29.5897 62.966C29.3004 63.358 29.0764 63.8713 28.9177 64.506ZM31.7037 66.55C31.8997 66.5873 32.1004 66.662 32.3057 66.774C32.511 66.8767 32.6837 67.0027 32.8237 67.152C32.6557 67.6747 32.2824 68.146 31.7037 68.566C31.1344 68.9767 30.5184 69.182 29.8557 69.182C29.0437 69.182 28.409 68.8927 27.9517 68.314C27.4944 67.7353 27.2657 66.9513 27.2657 65.962C27.2657 64.8047 27.597 63.7687 28.2597 62.854C28.9317 61.93 29.725 61.468 30.6397 61.468C31.2464 61.468 31.727 61.65 32.0817 62.014C32.4364 62.378 32.6137 62.8633 32.6137 63.47C32.6137 63.7873 32.581 64.114 32.5157 64.45C32.4597 64.786 32.3804 65.0847 32.2777 65.346C32.063 65.43 31.8017 65.4953 31.4937 65.542C31.195 65.5793 30.831 65.598 30.4017 65.598C30.1404 65.598 29.8697 65.5793 29.5897 65.542C29.3097 65.4953 29.0344 65.43 28.7637 65.346C28.7544 65.5327 28.745 65.6633 28.7357 65.738C28.7357 65.8127 28.7357 65.8827 28.7357 65.948C28.7357 66.6387 28.8524 67.194 29.0857 67.614C29.319 68.034 29.6317 68.244 30.0237 68.244C30.341 68.244 30.6677 68.076 31.0037 67.74C31.3397 67.3947 31.573 66.998 31.7037 66.55ZM35.4408 65.556C35.4688 66.0693 35.5155 66.6153 35.5808 67.194C35.6462 67.7633 35.7302 68.3747 35.8328 69.028C35.7022 69.0747 35.5622 69.1073 35.4128 69.126C35.2728 69.1447 35.1282 69.1493 34.9788 69.14C34.8855 69.14 34.8015 69.1353 34.7268 69.126C34.6522 69.1167 34.5728 69.098 34.4888 69.07C34.2555 67.894 34.0922 66.6433 33.9988 65.318C33.9148 63.9833 33.9102 62.7 33.9848 61.468C34.0968 61.4307 34.2228 61.4027 34.3628 61.384C34.5028 61.3653 34.6568 61.356 34.8248 61.356C34.9462 61.356 35.0722 61.3653 35.2028 61.384C35.3335 61.4027 35.4735 61.4353 35.6228 61.482C35.5855 61.734 35.5482 61.9953 35.5108 62.266C35.4828 62.5273 35.4595 62.812 35.4408 63.12C35.6555 62.4573 35.9402 61.93 36.2948 61.538C36.6495 61.146 37.0135 60.95 37.3868 60.95C37.7975 60.95 38.1055 61.1087 38.3108 61.426C38.5255 61.734 38.6328 62.196 38.6328 62.812C38.6328 62.9147 38.6282 63.0267 38.6188 63.148C38.6095 63.2693 38.6002 63.3907 38.5908 63.512C38.4508 63.568 38.2735 63.6053 38.0588 63.624C37.8535 63.6427 37.6062 63.6473 37.3168 63.638C37.3355 63.5073 37.3495 63.386 37.3588 63.274C37.3682 63.162 37.3728 63.05 37.3728 62.938C37.3728 62.658 37.3355 62.448 37.2608 62.308C37.1955 62.1587 37.0928 62.084 36.9528 62.084C36.6542 62.084 36.3648 62.4013 36.0848 63.036C35.8142 63.6613 35.5995 64.5013 35.4408 65.556ZM44.9956 64.898C44.9956 66.2887 44.6829 67.4133 44.0576 68.272C43.4416 69.1307 42.6389 69.56 41.6496 69.56C41.2856 69.56 40.9449 69.504 40.6276 69.392C40.3196 69.2893 40.0209 69.126 39.7316 68.902C39.6943 68.3233 39.6663 67.6233 39.6476 66.802C39.6289 65.9807 39.6196 65.1173 39.6196 64.212C39.6196 63.1947 39.6383 62.238 39.6756 61.342C39.7129 60.4367 39.7689 59.7087 39.8436 59.158C39.9556 59.102 40.1049 59.06 40.2916 59.032C40.4783 59.004 40.6929 58.99 40.9356 58.99C41.0289 58.99 41.1176 58.9947 41.2016 59.004C41.2856 59.0133 41.4069 59.032 41.5656 59.06C41.4816 59.564 41.4023 60.1333 41.3276 60.768C41.2623 61.4027 41.2016 62.0793 41.1456 62.798C41.3696 62.49 41.6263 62.2613 41.9156 62.112C42.2143 61.9533 42.5456 61.874 42.9096 61.874C43.5909 61.874 44.1089 62.1307 44.4636 62.644C44.8183 63.1573 44.9956 63.9087 44.9956 64.898ZM41.0196 68.258C41.1223 68.3513 41.2343 68.4213 41.3556 68.468C41.4769 68.5053 41.6076 68.524 41.7476 68.524C42.3076 68.524 42.7369 68.1927 43.0356 67.53C43.3343 66.8673 43.4836 65.9433 43.4836 64.758C43.4836 64.142 43.3949 63.6753 43.2176 63.358C43.0403 63.0407 42.7743 62.882 42.4196 62.882C42.1489 62.882 41.8923 63.0127 41.6496 63.274C41.4163 63.5353 41.2156 63.904 41.0476 64.38C41.0383 64.7347 41.0289 65.0893 41.0196 65.444C41.0103 65.7987 41.0056 66.144 41.0056 66.48C41.0056 67.04 41.0056 67.4367 41.0056 67.67C41.0056 67.894 41.0103 68.09 41.0196 68.258ZM46.0365 65.64C46.0365 64.408 46.3399 63.4 46.9465 62.616C47.5532 61.832 48.3325 61.44 49.2845 61.44C50.0499 61.44 50.6519 61.7107 51.0905 62.252C51.5292 62.784 51.7485 63.5167 51.7485 64.45C51.7485 65.8127 51.4592 66.9373 50.8805 67.824C50.3112 68.7013 49.5459 69.14 48.5845 69.14C47.8005 69.14 47.1799 68.818 46.7225 68.174C46.2652 67.53 46.0365 66.6853 46.0365 65.64ZM50.2365 65.08C50.2365 64.1747 50.1292 63.5073 49.9145 63.078C49.7092 62.6393 49.3919 62.42 48.9625 62.42C48.5612 62.42 48.2159 62.714 47.9265 63.302C47.6372 63.8807 47.4925 64.5947 47.4925 65.444C47.4925 66.2093 47.6139 66.858 47.8565 67.39C48.1085 67.9127 48.4445 68.174 48.8645 68.174C49.2379 68.174 49.5599 67.8707 49.8305 67.264C50.1012 66.648 50.2365 65.92 50.2365 65.08ZM58.1017 64.17C58.1017 64.7953 58.0177 65.626 57.8497 66.662C57.6817 67.6887 57.481 68.6313 57.2477 69.49C57.061 69.49 56.865 69.4713 56.6597 69.434C56.4544 69.406 56.2537 69.364 56.0577 69.308C56.0857 69.1493 56.1137 69.0047 56.1417 68.874C56.1697 68.7433 56.1977 68.6267 56.2257 68.524C56.0204 68.6547 55.7964 68.7527 55.5537 68.818C55.311 68.8833 55.0544 68.916 54.7837 68.916C54.1117 68.916 53.5704 68.7433 53.1597 68.398C52.749 68.0433 52.5437 67.572 52.5437 66.984C52.5437 66.3587 52.805 65.8873 53.3277 65.57C53.8504 65.2527 54.6204 65.094 55.6377 65.094C55.8057 65.094 55.9597 65.0987 56.0997 65.108C56.249 65.108 56.431 65.1127 56.6457 65.122C56.6457 65.0193 56.6457 64.9213 56.6457 64.828C56.6457 64.7253 56.6457 64.6273 56.6457 64.534C56.6457 63.75 56.5617 63.1853 56.3937 62.84C56.2257 62.4947 55.955 62.322 55.5817 62.322C55.199 62.322 54.877 62.4993 54.6157 62.854C54.3637 63.2087 54.2284 63.666 54.2097 64.226C53.8737 64.198 53.5984 64.1233 53.3837 64.002C53.169 63.8807 53.0104 63.7173 52.9077 63.512C53.029 62.924 53.3557 62.4247 53.8877 62.014C54.429 61.6033 55.045 61.398 55.7357 61.398C56.5197 61.398 57.1077 61.6313 57.4997 62.098C57.901 62.5647 58.1017 63.2553 58.1017 64.17ZM54.0417 67.054C54.0417 67.362 54.1397 67.6093 54.3357 67.796C54.5317 67.9827 54.7977 68.076 55.1337 68.076C55.367 68.076 55.5864 68.0433 55.7917 67.978C56.0064 67.9033 56.2024 67.8007 56.3797 67.67C56.445 67.3247 56.4964 67.0073 56.5337 66.718C56.571 66.4287 56.5944 66.1347 56.6037 65.836C55.745 65.808 55.101 65.8967 54.6717 66.102C54.2517 66.298 54.0417 66.6153 54.0417 67.054ZM60.9799 65.556C61.0079 66.0693 61.0546 66.6153 61.1199 67.194C61.1852 67.7633 61.2692 68.3747 61.3719 69.028C61.2412 69.0747 61.1012 69.1073 60.9519 69.126C60.8119 69.1447 60.6672 69.1493 60.5179 69.14C60.4246 69.14 60.3406 69.1353 60.2659 69.126C60.1912 69.1167 60.1119 69.098 60.0279 69.07C59.7946 67.894 59.6312 66.6433 59.5379 65.318C59.4539 63.9833 59.4492 62.7 59.5239 61.468C59.6359 61.4307 59.7619 61.4027 59.9019 61.384C60.0419 61.3653 60.1959 61.356 60.3639 61.356C60.4852 61.356 60.6112 61.3653 60.7419 61.384C60.8726 61.4027 61.0126 61.4353 61.1619 61.482C61.1246 61.734 61.0872 61.9953 61.0499 62.266C61.0219 62.5273 60.9986 62.812 60.9799 63.12C61.1946 62.4573 61.4792 61.93 61.8339 61.538C62.1886 61.146 62.5526 60.95 62.9259 60.95C63.3366 60.95 63.6446 61.1087 63.8499 61.426C64.0646 61.734 64.1719 62.196 64.1719 62.812C64.1719 62.9147 64.1672 63.0267 64.1579 63.148C64.1486 63.2693 64.1392 63.3907 64.1299 63.512C63.9899 63.568 63.8126 63.6053 63.5979 63.624C63.3926 63.6427 63.1452 63.6473 62.8559 63.638C62.8746 63.5073 62.8886 63.386 62.8979 63.274C62.9072 63.162 62.9119 63.05 62.9119 62.938C62.9119 62.658 62.8746 62.448 62.7999 62.308C62.7346 62.1587 62.6319 62.084 62.4919 62.084C62.1932 62.084 61.9039 62.4013 61.6239 63.036C61.3532 63.6613 61.1386 64.5013 60.9799 65.556ZM69.9008 69.434C69.7422 69.4807 69.5555 69.518 69.3408 69.546C69.1262 69.574 68.9395 69.588 68.7808 69.588C68.7528 69.308 68.7248 69.0233 68.6968 68.734C68.6688 68.4353 68.6455 68.1413 68.6268 67.852C68.4402 68.384 68.1975 68.776 67.8988 69.028C67.6095 69.2893 67.2455 69.42 66.8068 69.42C66.0602 69.42 65.4722 69.0933 65.0428 68.44C64.6228 67.7773 64.4128 66.8953 64.4128 65.794C64.4128 64.534 64.7022 63.5307 65.2808 62.784C65.8688 62.028 66.6575 61.65 67.6468 61.65C67.7682 61.65 67.8895 61.6593 68.0108 61.678C68.1415 61.6873 68.2628 61.706 68.3748 61.734C68.3655 60.922 68.3562 60.3387 68.3468 59.984C68.3468 59.6293 68.3468 59.312 68.3468 59.032C68.4682 58.976 68.6222 58.9293 68.8088 58.892C69.0048 58.8453 69.1962 58.822 69.3828 58.822C69.4855 58.822 69.5882 58.8313 69.6908 58.85C69.8028 58.8593 69.9195 58.878 70.0408 58.906C69.9755 59.5313 69.9288 60.46 69.9008 61.692C69.8728 62.9147 69.8588 64.8047 69.8588 67.362C69.8588 67.7447 69.8588 68.0853 69.8588 68.384C69.8682 68.6827 69.8822 69.0327 69.9008 69.434ZM65.8688 65.598C65.8688 66.466 65.9808 67.1427 66.2048 67.628C66.4288 68.104 66.7368 68.342 67.1288 68.342C67.4835 68.342 67.7775 68.132 68.0108 67.712C68.2535 67.2827 68.4215 66.6667 68.5148 65.864C68.4868 65.3787 68.4635 64.8653 68.4448 64.324C68.4262 63.7827 68.4075 63.2273 68.3888 62.658C68.3048 62.63 68.2115 62.6113 68.1088 62.602C68.0062 62.5927 67.8988 62.588 67.7868 62.588C67.2082 62.588 66.7415 62.854 66.3868 63.386C66.0415 63.918 65.8688 64.6553 65.8688 65.598Z" fill="black"/>
<path d="M33.7282 2.2497C6.97146 -0.202786 2 15.8611 2 30.6447C2.66089 42.2279 10.0683 47.9523 35.7108 46.8706C67.7639 45.5184 69.0803 32.7613 69.0803 32.7613C69.0803 32.7613 78.9936 6.39868 33.7282 2.2497Z" fill="white" stroke="black" stroke-width="3" stroke-linecap="round"/>
<path d="M28 20C28.6667 21.7658 30 25.7514 30 27.5676C30 29.3838 30 32.6126 30 34" stroke="black" stroke-width="3" stroke-linecap="round"/>
<path d="M33 15C33.6667 17.7273 35 23.5909 35 25.2273C35 26.8636 35 31.0909 35 33" stroke="black" stroke-width="3" stroke-linecap="round"/>
<path d="M40 24C40 24.5556 40 26.25 40 28.5833C40 30.9167 40 33.1667 40 34" stroke="black" stroke-width="3" stroke-linecap="round"/>
</svg>
