<svg width="77" height="76" viewBox="0 0 77 76" fill="none" xmlns="http://www.w3.org/2000/svg">
<path d="M37.1982 2.58176C7.57818 6.87651 2 16.0921 2 30.7661C2.73317 42.2633 10.9507 47.9452 39.3977 46.8715C74.9564 45.5294 74.5898 30.7661 74.9564 30.7661C75.323 30.7661 74.2233 -2.78667 37.1982 2.58176Z" fill="white" stroke="#2BABEE" stroke-width="3" stroke-linecap="round"/>
<path d="M29.0794 59.06C29.1541 60.5907 29.2147 62.3827 29.2614 64.436C29.3174 66.4893 29.3454 68.2907 29.3454 69.84C28.8321 69.84 28.3001 69.8167 27.7494 69.77C27.1987 69.7233 26.8021 69.6627 26.5594 69.588C26.5594 68.9813 26.5547 68.272 26.5454 67.46C26.5361 66.648 26.5267 65.8267 26.5174 64.996C26.0601 65.0053 25.6307 65.024 25.2294 65.052C24.8281 65.0707 24.4501 65.1033 24.0954 65.15C24.0861 65.6167 24.0767 66.1113 24.0674 66.634C24.0674 67.1473 24.0674 67.824 24.0674 68.664C23.8247 68.7387 23.4514 68.804 22.9474 68.86C22.4527 68.916 22.0047 68.944 21.6034 68.944C21.4074 66.564 21.2674 64.646 21.1834 63.19C21.1087 61.734 21.0714 60.4973 21.0714 59.48C21.2954 59.3307 21.5754 59.214 21.9114 59.13C22.2474 59.046 22.5927 59.004 22.9474 59.004C23.2087 59.004 23.4467 59.018 23.6614 59.046C23.8761 59.074 24.0907 59.116 24.3054 59.172C24.2681 59.592 24.2354 60.1333 24.2074 60.796C24.1794 61.4587 24.1561 62.2007 24.1374 63.022C24.5481 62.9567 24.9447 62.9053 25.3274 62.868C25.7101 62.8213 26.0927 62.7933 26.4754 62.784C26.4567 61.972 26.4287 61.2207 26.3914 60.53C26.3541 59.83 26.3167 59.2467 26.2794 58.78C26.5034 58.724 26.7087 58.682 26.8954 58.654C27.0914 58.626 27.2921 58.612 27.4974 58.612C27.7961 58.612 28.0854 58.654 28.3654 58.738C28.6454 58.8127 28.8834 58.92 29.0794 59.06ZM30.3607 65.738C30.3607 64.422 30.7387 63.3487 31.4947 62.518C32.2601 61.678 33.2494 61.258 34.4627 61.258C35.3774 61.258 36.0867 61.5147 36.5907 62.028C37.0947 62.5413 37.3467 63.2693 37.3467 64.212C37.3467 64.8 37.2534 65.3973 37.0667 66.004C36.8894 66.6107 36.6374 67.138 36.3107 67.586C35.9374 68.0993 35.4894 68.4867 34.9667 68.748C34.4534 69.0093 33.8701 69.14 33.2167 69.14C32.3114 69.14 31.6067 68.8367 31.1027 68.23C30.6081 67.614 30.3607 66.7833 30.3607 65.738ZM34.5607 64.982C34.5607 64.254 34.5047 63.722 34.3927 63.386C34.2807 63.0407 34.1034 62.868 33.8607 62.868C33.6367 62.868 33.4501 63.0967 33.3007 63.554C33.1607 64.0113 33.0907 64.6087 33.0907 65.346C33.0907 65.9527 33.1561 66.4707 33.2867 66.9C33.4174 67.32 33.5947 67.53 33.8187 67.53C34.0521 67.53 34.2341 67.2967 34.3647 66.83C34.4954 66.354 34.5607 65.738 34.5607 64.982ZM49.2707 63.54C49.2707 64.4267 49.182 65.4627 49.0047 66.648C48.8367 67.824 48.6454 68.8087 48.4307 69.602C47.8894 69.602 47.39 69.5787 46.9327 69.532C46.4754 69.4853 46.0367 69.4153 45.6167 69.322C45.9434 67.8473 46.172 66.6713 46.3027 65.794C46.4334 64.9167 46.4987 64.1933 46.4987 63.624C46.4987 63.3627 46.4614 63.1713 46.3867 63.05C46.312 62.9193 46.1954 62.854 46.0367 62.854C45.8874 62.854 45.738 62.9613 45.5887 63.176C45.4394 63.3907 45.304 63.694 45.1827 64.086V64.198C45.1827 64.926 45.122 65.766 45.0007 66.718C44.8794 67.6607 44.7534 68.3747 44.6227 68.86C44.268 68.86 43.8807 68.8413 43.4607 68.804C43.0407 68.7573 42.56 68.6873 42.0187 68.594C42.196 67.5487 42.322 66.6993 42.3967 66.046C42.4807 65.3927 42.5227 64.856 42.5227 64.436C42.5227 64.1747 42.4854 63.9833 42.4107 63.862C42.336 63.7313 42.2194 63.666 42.0607 63.666C41.8927 63.666 41.7294 63.7733 41.5707 63.988C41.412 64.2027 41.2767 64.5013 41.1647 64.884C41.1554 65.6307 41.146 66.2 41.1367 66.592C41.1367 66.9747 41.1367 67.3153 41.1367 67.614C41.1367 67.6793 41.132 67.8333 41.1227 68.076C41.1227 68.3093 41.1274 68.5147 41.1367 68.692C40.8754 68.7667 40.5207 68.832 40.0727 68.888C39.6247 68.944 39.2094 68.972 38.8267 68.972C38.6494 67.6653 38.4954 66.3027 38.3647 64.884C38.2434 63.456 38.1827 62.2893 38.1827 61.384C38.3974 61.272 38.7007 61.1833 39.0927 61.118C39.4847 61.0527 39.886 61.02 40.2967 61.02C40.4834 61.02 40.6654 61.0293 40.8427 61.048C41.02 61.0667 41.1974 61.0947 41.3747 61.132C41.3467 61.3747 41.3187 61.6453 41.2907 61.944C41.2627 62.2427 41.244 62.546 41.2347 62.854C41.5054 62.4247 41.8274 62.1027 42.2007 61.888C42.574 61.664 42.9894 61.552 43.4467 61.552C43.764 61.552 44.0394 61.622 44.2727 61.762C44.506 61.902 44.6927 62.1073 44.8327 62.378C45.1314 61.846 45.5 61.44 45.9387 61.16C46.3774 60.88 46.872 60.74 47.4227 60.74C48.0294 60.74 48.4867 60.978 48.7947 61.454C49.112 61.9207 49.2707 62.616 49.2707 63.54ZM53.3597 64.156C53.4717 64.184 53.579 64.2073 53.6817 64.226C53.7937 64.2353 53.887 64.24 53.9617 64.24C54.0363 64.24 54.1203 64.24 54.2137 64.24C54.3163 64.2307 54.3863 64.2213 54.4237 64.212C54.4797 63.988 54.5217 63.778 54.5497 63.582C54.587 63.386 54.6057 63.2087 54.6057 63.05C54.6057 62.854 54.5777 62.7093 54.5217 62.616C54.475 62.5227 54.4003 62.476 54.2977 62.476C54.111 62.476 53.9337 62.63 53.7657 62.938C53.5977 63.2367 53.4623 63.6427 53.3597 64.156ZM55.0537 66.312C55.4083 66.3773 55.7677 66.508 56.1317 66.704C56.505 66.8907 56.8083 67.1053 57.0417 67.348C56.967 67.5907 56.7943 67.852 56.5237 68.132C56.253 68.412 55.931 68.6453 55.5577 68.832C55.259 68.9813 54.9323 69.0933 54.5777 69.168C54.2323 69.252 53.8683 69.294 53.4857 69.294C52.515 69.294 51.7543 69.014 51.2037 68.454C50.6623 67.8847 50.3917 67.1147 50.3917 66.144C50.3917 65.5373 50.485 64.9447 50.6717 64.366C50.8677 63.778 51.143 63.246 51.4977 62.77C51.899 62.238 52.361 61.8227 52.8837 61.524C53.4063 61.2253 53.943 61.076 54.4937 61.076C55.2777 61.076 55.903 61.2767 56.3697 61.678C56.8363 62.07 57.0697 62.5973 57.0697 63.26C57.0697 63.5587 57.037 63.89 56.9717 64.254C56.9157 64.6087 56.841 64.9167 56.7477 65.178C56.4583 65.318 56.099 65.4253 55.6697 65.5C55.2497 65.5653 54.7457 65.598 54.1577 65.598C53.9897 65.598 53.8217 65.5887 53.6537 65.57C53.495 65.5513 53.3363 65.528 53.1777 65.5C53.1683 65.556 53.1637 65.6213 53.1637 65.696C53.1637 65.7613 53.1637 65.864 53.1637 66.004C53.1637 66.564 53.2337 66.9933 53.3737 67.292C53.523 67.5907 53.733 67.74 54.0037 67.74C54.181 67.74 54.3723 67.5953 54.5777 67.306C54.783 67.0167 54.9417 66.6853 55.0537 66.312Z" fill="#2BABEE"/>
<path d="M34 12C34.3333 15.9296 35 20.7465 35 26.4507C35 31.7746 34.6667 35.7042 34.5 39" stroke="#2BABEE" stroke-width="3" stroke-linecap="round"/>
<path d="M31 15.0698C36.4643 14.6715 47.3129 15.7867 46.9931 23.4337C46.5933 32.9924 39.2773 37.3734 32.0804 36.9751" stroke="#2BABEE" stroke-width="3" stroke-linecap="round"/>
</svg>
