<svg width="99" height="201" viewBox="0 0 99 201" fill="none" xmlns="http://www.w3.org/2000/svg">
<rect y="151.352" width="83.8234" height="3.10457" rx="1.55228" fill="white" fill-opacity="0.2"/>
<path d="M70.0538 4C77.7164 6.97405 95.9484 17.3832 94.9615 42.4791C94.4046 56.6407 77.4072 64.0758 59.1748 64.9745C45.6108 65.6431 15.9667 53.1178 27.6825 30.3433C39.3983 7.56886 51.4499 7.86627 68.0498 8.4399" stroke="black" stroke-width="6.22222" stroke-linecap="round"/>
<path d="M41.6016 40.9062C43.5189 44.2437 47.1257 48.1451 51.9012 48.2796C59.6626 48.4982 64.5127 43.7904 66.83 42.3433" stroke="black" stroke-width="6.22222" stroke-linecap="round"/>
<ellipse cx="41.5" cy="25.5" rx="3.5" ry="2.5" fill="black"/>
<ellipse cx="65.5" cy="25.5" rx="3.5" ry="2.5" fill="black"/>
<path d="M50 100C44.1765 100 31.2059 97.5522 25.9118 87.7612C20.6176 77.9701 15.7647 64.5075 14 59" stroke="black" stroke-width="6.22222" stroke-linecap="round"/>
<path d="M56 93C61.6532 94.5432 73.5636 100.531 75.9798 112.136C78.396 123.741 79 137.547 79 143" stroke="black" stroke-width="6.22222" stroke-linecap="round"/>
<path d="M53 151C56.9327 152.42 65.2182 157.928 66.899 168.605C68.5798 179.281 69 191.984 69 197" stroke="black" stroke-width="6.22222" stroke-linecap="round"/>
<path d="M53 151C49.3131 152.42 41.5455 157.928 39.9697 168.605C38.3939 179.281 38 191.984 38 197" stroke="black" stroke-width="6.22222" stroke-linecap="round"/>
<path d="M53 151C53 141.455 53 119.309 53 107.091C53 94.8727 57 75.2727 59 67" stroke="black" stroke-width="6.05714" stroke-linecap="round"/>
</svg>
