<svg width="84" height="74" viewBox="0 0 84 74" fill="none" xmlns="http://www.w3.org/2000/svg">
<path d="M49.763 14.5273C22.5638 12.8115 14.9949 22.0828 10.7244 38.8294C8.02079 52.1145 13.5663 60.4349 38.8005 65.5646C70.3431 71.9768 74.3185 55.0461 74.6396 55.128C74.9608 55.2099 83.7621 16.672 49.763 14.5273Z" fill="#EEB72B"/>
<path d="M51.1907 9.97456C19.3751 7.96759 10.5216 18.8124 5.52635 38.4014C2.36381 53.9412 8.85058 63.6737 38.3675 69.6741" stroke="#EEB72B" stroke-width="3" stroke-linecap="round"/>
<path d="M32.4736 32.583L33.5274 37.3667L35.1304 35.7598L37.0149 33.9345L41.8821 35.2724C40.4973 36.4028 39.338 37.4079 38.4041 38.2878C37.4829 39.1601 36.673 40.0178 35.9742 40.8609L38.5336 50.2372L31.5841 48.4651L31.1295 46.011L30.6277 43.9319L27.3235 47.0883L26.4241 48.149L21.6891 46.103L24.2998 43.7695L28.8142 39.535L26.1752 30.9769L32.4736 32.583ZM40.8133 50.5928C41.5851 47.6506 42.2329 45.5529 42.7567 44.2997C43.2906 43.0491 43.8786 42.1133 44.5207 41.4923C45.2287 40.8236 46.2542 40.3433 47.5971 40.0515C48.9527 39.7522 51.3701 39.5678 54.8494 39.4982L56.2779 33.8963L51.9931 32.8036L50.6784 37.58L44.8119 35.9873C44.9026 35.5052 44.9829 35.0849 45.0528 34.7265C45.1354 34.3605 45.2062 34.0615 45.2654 33.8293C45.5331 32.7796 45.836 32.0344 46.1741 31.5939C46.5148 31.1433 47.0462 30.6822 47.7685 30.2106C48.8987 29.4883 50.0793 29.053 51.3104 28.9047C52.5541 28.7488 53.9633 28.8717 55.5379 29.2732C58.0613 29.9167 59.8446 31.0809 60.8876 32.7659C61.9333 34.4408 62.1459 36.4945 61.5256 38.9271C61.0726 40.7036 60.2744 42.0212 59.1309 42.8798C58.0001 43.731 56.2618 44.2874 53.9161 44.5493C52.7861 44.6804 51.64 44.7697 50.4776 44.8173C49.3178 44.8548 48.7037 44.881 48.6354 44.8958C48.5444 44.9156 48.4633 44.9809 48.392 45.0917C48.3233 45.1925 48.2401 45.4346 48.1422 45.8182L48.0882 46.0301C48.0367 46.232 47.9905 46.3922 47.9495 46.5108C47.9186 46.6319 47.8903 46.7429 47.8646 46.8439C48.185 46.9363 48.5508 47.0404 48.9621 47.156C49.3759 47.2615 50.027 47.4275 50.9152 47.654C52.5605 48.0736 54.0116 48.4114 55.2686 48.6674C56.5382 48.9159 57.6452 49.0853 58.5897 49.1757C58.3339 49.8415 58.0933 50.5111 57.8678 51.1846C57.655 51.8506 57.4649 52.5116 57.2976 53.1677C57.2436 53.3797 57.1894 53.6131 57.1351 53.868C57.0835 54.1128 57.015 54.4447 56.9296 54.8637C54.5204 54.1096 52.646 53.5349 51.3063 53.1395C49.9767 52.7467 48.7921 52.4178 47.7524 52.1527C46.7532 51.8978 45.6781 51.6452 44.5272 51.3947C43.3789 51.1341 42.1409 50.8668 40.8133 50.5928Z" fill="white"/>
</svg>
