<svg width="80" height="74" viewBox="0 0 80 74" fill="none" xmlns="http://www.w3.org/2000/svg">
<path d="M45.763 14.5273C18.5638 12.8115 10.9949 22.0828 6.72445 38.8294C4.02079 52.1145 9.56634 60.4349 34.8005 65.5646C66.3431 71.9768 70.3185 55.0461 70.6396 55.128C70.9608 55.2099 79.7621 16.672 45.763 14.5273Z" fill="#EE2B2B"/>
<path d="M1.52635 38.4014C6.52161 18.8124 15.3751 7.96759 47.1907 9.97456" stroke="#EE2B2B" stroke-width="3" stroke-linecap="round"/>
<path d="M28.4736 32.5829L29.5274 37.3666L31.1304 35.7598L33.0149 33.9344L37.8821 35.2724C36.4973 36.4027 35.338 37.4079 34.4041 38.2877C33.4829 39.1601 32.673 40.0178 31.9742 40.8608L34.5336 50.2371L27.5841 48.465L27.1295 46.0109L26.6277 43.9319L23.3235 47.0883L22.4241 48.1489L17.6891 46.103L20.2998 43.7694L24.8142 39.5349L22.1752 30.9768L28.4736 32.5829ZM36.8133 50.5927C37.5851 47.6505 38.2329 45.5528 38.7567 44.2997C39.2906 43.049 39.8786 42.1132 40.5207 41.4922C41.2287 40.8235 42.2542 40.3433 43.5971 40.0515C44.9527 39.7521 47.3701 39.5677 50.8494 39.4982L52.2779 33.8962L47.9931 32.8036L46.6784 37.5799L40.8119 35.9872C40.9026 35.5051 40.9829 35.0848 41.0528 34.7264C41.1354 34.3605 41.2062 34.0614 41.2654 33.8292C41.5331 32.7795 41.836 32.0344 42.1741 31.5938C42.5148 31.1432 43.0462 30.6821 43.7685 30.2105C44.8987 29.4882 46.0793 29.0529 47.3104 28.9046C48.5541 28.7488 49.9633 28.8716 51.5379 29.2731C54.0613 29.9166 55.8446 31.0808 56.8876 32.7658C57.9333 34.4407 58.1459 36.4945 57.5256 38.927C57.0726 40.7035 56.2744 42.0211 55.1309 42.8798C54.0001 43.7309 52.2618 44.2874 49.9161 44.5492C48.7861 44.6803 47.64 44.7697 46.4776 44.8173C45.3178 44.8547 44.7037 44.8809 44.6354 44.8958C44.5444 44.9155 44.4633 44.9808 44.392 45.0917C44.3233 45.1924 44.2401 45.4346 44.1422 45.8181L44.0882 46.0301C44.0367 46.2319 43.9905 46.3922 43.9495 46.5107C43.9186 46.6318 43.8903 46.7429 43.8646 46.8438C44.185 46.9363 44.5508 47.0403 44.9621 47.1559C45.3759 47.2615 46.027 47.4275 46.9152 47.654C48.5605 48.0735 50.0116 48.4113 51.2686 48.6673C52.5382 48.9159 53.6452 49.0853 54.5897 49.1756C54.3339 49.8414 54.0933 50.511 53.8678 51.1845C53.655 51.8505 53.4649 52.5116 53.2976 53.1676C53.2436 53.3796 53.1894 53.613 53.1351 53.868C53.0835 54.1128 53.015 54.4447 52.9296 54.8637C50.5204 54.1096 48.646 53.5348 47.3063 53.1395C45.9767 52.7467 44.7921 52.4177 43.7524 52.1526C42.7532 51.8978 41.6781 51.6451 40.5272 51.3946C39.3789 51.1341 38.1409 50.8668 36.8133 50.5927Z" fill="white"/>
</svg>
