<svg width="375" height="486" viewBox="0 0 375 486" fill="none" xmlns="http://www.w3.org/2000/svg">
<path opacity="0.4" d="M353.477 116.46C351.35 116.294 348.63 115.767 345.317 114.879C342.003 113.99 338.67 112.912 335.318 111.644C335.969 107.511 336.679 103.583 337.449 99.8599C338.298 96.167 339.181 92.9884 340.098 90.3244C346.636 91.6113 352.175 91.1976 356.716 89.0832C361.286 86.8889 364.553 83.1978 366.515 78.0098C367.873 74.4182 368.351 71.588 367.947 69.5195C367.574 67.3711 366.35 65.9044 364.274 65.1195C361.88 64.2138 359.266 65.0953 356.432 67.7639C353.708 70.3829 351.349 74.3263 349.357 79.5941C344.807 77.8733 340.858 76.0144 337.507 74.0173C334.187 71.9405 331.363 69.6403 329.033 67.1168C332.681 58.9174 337.97 53.6191 344.898 51.2217C351.856 48.7446 360.124 49.3174 369.702 52.9401C378.242 56.1704 384.62 61.1373 388.836 67.841C393.082 74.4648 393.967 81.0491 391.492 87.5939C389.318 93.3405 385.456 97.3995 379.906 99.7708C374.436 102.172 367.743 102.742 359.827 101.482C358.61 104.215 357.464 106.883 356.388 109.487C355.342 112.011 354.372 114.335 353.477 116.46ZM351.314 129.053C349.72 134.472 348.515 138.623 347.698 141.507C346.991 144.342 346.299 147.136 345.622 149.891C343.715 149.626 341.933 149.271 340.276 148.827C338.669 148.493 336.733 147.943 334.468 147.177C332.203 146.412 330.109 145.437 328.184 144.253C326.26 143.069 324.716 141.846 323.551 140.585C324.439 137.271 325.417 134.083 326.484 131.02C327.582 127.877 328.905 124.5 330.453 120.889C331.969 121.462 333.526 122.051 335.122 122.655C336.718 123.259 338.898 124.129 341.662 125.265C344.185 126.311 346.086 127.076 347.363 127.559C348.72 128.072 350.037 128.57 351.314 129.053Z" fill="#2BABEE"/>
<path d="M30.1179 36.7575C29.6857 37.0701 29.0821 37.4099 28.307 37.7768C27.5319 38.1437 26.7223 38.4776 25.8784 38.7785C25.3335 37.8856 24.8332 37.0222 24.3773 36.1882C23.9415 35.347 23.5954 34.5984 23.3389 33.9425C24.793 33.1296 25.7816 32.1543 26.3046 31.0167C26.8204 29.8589 26.8455 28.6269 26.3798 27.3208C26.0575 26.4165 25.6904 25.8 25.2788 25.4711C24.8599 25.1222 24.3893 25.0408 23.8668 25.2271C23.264 25.442 22.9085 26.033 22.8003 27.0002C22.7051 27.9401 22.8939 29.0732 23.3667 30.3994C22.2213 30.8077 21.1678 31.0927 20.2063 31.2543C19.2375 31.3959 18.327 31.4147 17.4747 31.3109C16.843 29.158 16.9933 27.2926 17.9255 25.7145C18.8506 24.1164 20.5188 22.8875 22.9301 22.0279C25.0802 21.2613 27.0993 21.1756 28.9875 21.7708C30.8685 22.3458 32.1028 23.4573 32.6902 25.105C33.206 26.5518 33.127 27.9502 32.4532 29.3002C31.7995 30.643 30.6164 31.8349 28.9038 32.8758C29.1144 33.5934 29.3278 34.2874 29.5441 34.9576C29.7533 35.6078 29.9445 36.2078 30.1179 36.7575ZM31.7437 39.5072C32.317 40.7976 32.7591 41.7837 33.0701 42.4656C33.3941 43.1201 33.7145 43.7646 34.0312 44.3991C33.625 44.6572 33.2281 44.8779 32.8405 45.0614C32.4802 45.2578 32.0223 45.4663 31.4668 45.687C30.9114 45.9077 30.3545 46.061 29.7962 46.1467C29.2379 46.2325 28.7457 46.2495 28.3195 46.1976C27.9526 45.4225 27.623 44.6567 27.3306 43.9003C27.0311 43.1237 26.7367 42.2661 26.4474 41.3275C26.8292 41.1914 27.221 41.0517 27.6229 40.9084C28.0248 40.7651 28.581 40.5781 29.2914 40.3475C29.9416 40.1383 30.4275 39.9764 30.749 39.8618C31.0906 39.74 31.4221 39.6218 31.7437 39.5072Z" fill="#2BABEE"/>
<path opacity="0.4" d="M27.5428 380.884C25.6551 381.878 23.073 382.882 19.7964 383.898C16.5198 384.913 13.1256 385.779 9.61365 386.494C7.9602 382.65 6.46623 378.949 5.13174 375.389C3.88087 371.812 2.93268 368.652 2.28719 365.91C8.50439 363.512 12.9696 360.208 15.6828 355.998C18.379 351.704 19.1737 346.84 18.067 341.404C17.3008 337.642 16.1954 334.993 14.7508 333.458C13.2892 331.84 11.4713 331.252 9.29729 331.695C6.78877 332.206 5.04738 334.346 4.07312 338.115C3.16545 341.783 3.27349 346.376 4.39724 351.895C-0.368952 352.865 -4.70155 353.399 -8.60054 353.497C-12.5166 353.51 -16.1329 353.071 -19.4496 352.179C-20.7357 343.297 -19.0876 335.994 -14.5053 330.272C-9.94006 324.465 -2.64038 320.541 7.39371 318.497C16.3408 316.676 24.3849 317.476 31.5261 320.899C38.6502 324.238 42.9104 329.335 44.3066 336.192C45.5325 342.213 44.4303 347.706 41.0001 352.671C37.6536 357.62 32.2956 361.672 24.9263 364.827C25.355 367.787 25.8085 370.656 26.2868 373.432C26.748 376.125 27.1667 378.609 27.5428 380.884ZM32.4288 392.69C33.9706 398.124 35.1649 402.278 36.0117 405.154C36.9251 407.929 37.8299 410.662 38.7263 413.353C36.9718 414.146 35.2755 414.796 33.6372 415.304C32.0995 415.878 30.1685 416.445 27.8443 417.006C25.52 417.566 23.2283 417.859 20.9691 417.883C18.7099 417.908 16.7512 417.697 15.0928 417.251C14.0773 413.974 13.2042 410.756 12.4736 407.596C11.7259 404.351 11.0441 400.789 10.4281 396.909C12.0168 396.585 13.6474 396.253 15.3197 395.913C16.9921 395.572 19.3001 395.146 22.2437 394.633C24.9365 394.172 26.9518 393.805 28.2897 393.533C29.7112 393.243 31.0909 392.963 32.4288 392.69Z" fill="#2BABEE"/>
<path d="M358.607 459.832C358.074 459.825 357.387 459.737 356.546 459.569C355.705 459.401 354.856 459.185 354 458.923C354.096 457.881 354.21 456.89 354.342 455.948C354.494 455.013 354.664 454.206 354.849 453.527C356.501 453.743 357.877 453.551 358.975 452.95C360.08 452.329 360.836 451.356 361.242 450.03C361.524 449.112 361.597 448.399 361.463 447.889C361.336 447.359 361.007 447.013 360.476 446.85C359.864 446.663 359.226 446.925 358.562 447.636C357.925 448.333 357.4 449.355 356.987 450.701C355.824 450.345 354.809 449.945 353.941 449.5C353.08 449.035 352.338 448.507 351.716 447.915C352.495 445.811 353.729 444.404 355.419 443.694C357.115 442.965 359.187 442.975 361.635 443.725C363.817 444.393 365.488 445.53 366.648 447.135C367.813 448.719 368.14 450.348 367.628 452.02C367.178 453.489 366.279 454.563 364.933 455.244C363.607 455.931 361.946 456.181 359.951 455.994C359.691 456.695 359.448 457.379 359.221 458.046C359.001 458.692 358.796 459.288 358.607 459.832ZM358.27 463.009C357.959 464.386 357.725 465.441 357.568 466.174C357.437 466.893 357.309 467.601 357.184 468.299C356.704 468.264 356.254 468.204 355.834 468.12C355.428 468.062 354.936 467.956 354.358 467.801C353.781 467.647 353.243 467.437 352.744 467.173C352.245 466.908 351.84 466.628 351.529 466.332C351.697 465.491 351.89 464.68 352.107 463.899C352.33 463.097 352.606 462.233 352.934 461.307C353.322 461.426 353.72 461.548 354.128 461.673C354.535 461.798 355.093 461.98 355.801 462.219C356.447 462.439 356.934 462.6 357.26 462.7C357.607 462.806 357.943 462.909 358.27 463.009Z" fill="#2BABEE"/>
</svg>
